<?xml version="1.0" encoding="UTF-8" standalone="no"?>
<!-- Created with Inkscape (http://www.inkscape.org/) -->

<svg
   width="210mm"
   height="297mm"
   viewBox="0 0 210 297"
   version="1.1"
   id="svg1"
   xml:space="preserve"
   inkscape:version="1.4.2 (f4327f4, 2025-05-13)"
   sodipodi:docname="annotation_mri.svg"
   xmlns:inkscape="http://www.inkscape.org/namespaces/inkscape"
   xmlns:sodipodi="http://sodipodi.sourceforge.net/DTD/sodipodi-0.dtd"
   xmlns:xlink="http://www.w3.org/1999/xlink"
   xmlns="http://www.w3.org/2000/svg"
   xmlns:svg="http://www.w3.org/2000/svg"><sodipodi:namedview
     id="namedview1"
     pagecolor="#ffffff"
     bordercolor="#000000"
     borderopacity="0.25"
     inkscape:showpageshadow="2"
     inkscape:pageopacity="0.0"
     inkscape:pagecheckerboard="0"
     inkscape:deskcolor="#d1d1d1"
     inkscape:document-units="mm"
     inkscape:zoom="2.0535658"
     inkscape:cx="280.24425"
     inkscape:cy="416.59245"
     inkscape:window-width="2560"
     inkscape:window-height="1377"
     inkscape:window-x="-8"
     inkscape:window-y="-8"
     inkscape:window-maximized="1"
     inkscape:current-layer="layer7" /><defs
     id="defs1" /><g
     inkscape:label="Слой 1"
     inkscape:groupmode="layer"
     id="layer1"><image
       width="128.9716"
       height="133.3746"
       preserveAspectRatio="none"
       xlink:href="image10.png"
       id="image1"
       x="8.6218939"
       y="12.383486" /><image
       width="129.364"
       height="124.54462"
       preserveAspectRatio="none"
       xlink:href="image60.png"
       id="image1-1"
       x="74.450569"
       y="162.21002" /></g><g
     inkscape:groupmode="layer"
     id="layer6"
     inkscape:label="dentate_line"><path
       style="fill:none;fill-opacity:0.166181;stroke:#f20a16;stroke-width:0.355419;stroke-dasharray:1.42168, 0.355419"
       d="m 112.34957,236.55213 c 18.36646,-0.29873 36.75298,-0.25803 55.14322,-0.25803"
       id="path2" /><path
       style="fill:none;fill-opacity:0.166181;stroke:#f20a16;stroke-width:0.365001;stroke-dasharray:1.46001, 0.365001"
       d="M 79.366014,96.695118 C 81.907255,94.356389 93.85506,94.059439 98.434465,89.480026"
       id="path1" /></g><g
     inkscape:groupmode="layer"
     id="layer7"
     inkscape:label="muscle_1"><path
       style="fill:#600000;fill-opacity:0.35094339;stroke:#f20a16;stroke-width:0.365001;stroke-dasharray:1.46001, 0.365001"
       d="m 115.69916,237.58268 c -1.16408,0.3246 -4.75287,2.21404 -2.06146,6.69973 1.60439,2.67398 2.49141,4.46891 3.09218,7.47277 0.49842,2.49208 2.31882,9.92091 6.69973,7.73045 1.02891,-0.51445 0.99781,-2.22037 1.28841,-3.09218 2.30749,-6.92245 0.8705,-10.20982 -4.12291,-15.20323 -2.50594,-2.50594 -0.3749,-4.73781 -4.89595,-3.60754 z"
       id="path8" /><path
       style="display:inline;fill:#600000;fill-opacity:0.350943;stroke:#f20a16;stroke-width:0.365001;stroke-dasharray:1.46001, 0.365001"
       d="m 156.15521,240.15949 c -0.49884,-0.4548 4.16592,-3.04916 5.92668,-1.2884 4.51403,4.51402 1.77188,15.73454 -3.86523,18.55309 -0.99772,0.49886 -3.47423,0 -4.63827,0 -7.53805,0 -3.08318,-7.74847 -1.54609,-10.82264 1.29447,-2.58894 1.39092,-5.27119 4.12291,-6.44205 z"
       id="path7" /><path
       style="fill:#610000;fill-opacity:0.35;stroke:#f20a16;stroke-width:0.264999;stroke-dasharray:1.06, 0.264999;stroke-dashoffset:0;stroke-opacity:1"
       d="m 91.799163,93.280833 c -2.981731,1.100017 -9.57056,1.826052 -8.825603,6.184362 0.744957,4.358315 10.018809,9.990715 16.6849,13.012935 6.66609,3.02222 12.97949,-9.93127 7.5372,-12.43315 -5.4423,-2.50187 -7.00033,-3.698075 -8.696767,-4.638271 -1.696436,-0.940197 -3.717999,-3.225892 -6.69973,-2.125876 z"
       id="path5"
       sodipodi:nodetypes="zzzzzz" /></g></svg>
