<?xml version="1.0" encoding="UTF-8" standalone="no"?>
<!-- Created with Inkscape (http://www.inkscape.org/) -->

<svg
   width="210mm"
   height="297mm"
   viewBox="0 0 210 297"
   version="1.1"
   id="svg1"
   xml:space="preserve"
   inkscape:version="1.4.2 (f4327f4, 2025-05-13)"
   sodipodi:docname="annotation_mri.svg"
   xmlns:inkscape="http://www.inkscape.org/namespaces/inkscape"
   xmlns:sodipodi="http://sodipodi.sourceforge.net/DTD/sodipodi-0.dtd"
   xmlns:xlink="http://www.w3.org/1999/xlink"
   xmlns="http://www.w3.org/2000/svg"
   xmlns:svg="http://www.w3.org/2000/svg"><sodipodi:namedview
     id="namedview1"
     pagecolor="#ffffff"
     bordercolor="#000000"
     borderopacity="0.25"
     inkscape:showpageshadow="2"
     inkscape:pageopacity="0.0"
     inkscape:pagecheckerboard="0"
     inkscape:deskcolor="#d1d1d1"
     inkscape:document-units="mm"
     inkscape:zoom="1.0267829"
     inkscape:cx="216.69624"
     inkscape:cy="409.53154"
     inkscape:window-width="1920"
     inkscape:window-height="1017"
     inkscape:window-x="-8"
     inkscape:window-y="-8"
     inkscape:window-maximized="1"
     inkscape:current-layer="layer1" /><defs
     id="defs1" /><g
     inkscape:label="Слой 1"
     inkscape:groupmode="layer"
     id="layer1"><image
       width="128.9716"
       height="133.3746"
       preserveAspectRatio="none"
       xlink:href="image10.png"
       id="image1"
       x="8.6218939"
       y="12.383486" /><image
       width="134.11328"
       height="141.55162"
       preserveAspectRatio="none"
       xlink:href="image60.png"
       id="image1-1"
       x="71.873749"
       y="150.35666" /><path
       style="fill:none;stroke:#f20a16;stroke-width:0.299463;stroke-dasharray:1.79678, 0.299463;stroke-dashoffset:0"
       d="m 79.252058,100.36398 c 0.459155,-1.848004 5.523311,-3.190028 8.134064,-5.307104 0.923924,-0.749214 1.607108,-1.702783 2.664607,-2.274469"
       id="path2" /><path
       style="fill:none;stroke:#f20a16;stroke-width:0.264583;stroke-dasharray:1.5875, 0.264583;stroke-dashoffset:0"
       d="m 81.35338,101.54503 c 0.421826,-1.570244 5.074272,-2.710559 7.472773,-4.509434 0.84881,-0.636606 1.476452,-1.446851 2.447978,-1.932612"
       id="path2-6" /><path
       style="fill:none;stroke:#f20a16;stroke-width:0.294428;stroke-dasharray:1.76657, 0.294428;stroke-dashoffset:0"
       d="m 80.600508,102.31477 c 0.459293,-1.78585 5.524976,-3.082738 8.136515,-5.12861 0.924202,-0.724017 1.607592,-1.645514 2.66541,-2.197973"
       id="path2-7" /><path
       style="fill:none;stroke:#f20a16;stroke-width:0.323385;stroke-dasharray:1.94031, 0.323385;stroke-dashoffset:0"
       d="m 82.093385,104.80021 c 0.502255,-1.97011 6.041769,-3.40082 8.897585,-5.657795 1.01065,-0.798723 1.757962,-1.815303 2.914726,-2.424767"
       id="path2-1" /><path
       style="fill:none;stroke:#f20a16;stroke-width:0.307183;stroke-dasharray:1.8431, 0.307183;stroke-dashoffset:0"
       d="m 83.735161,107.02756 c 0.475352,-1.87827 5.718147,-3.24225 8.420993,-5.394 0.956516,-0.76147 1.663799,-1.730654 2.758602,-2.311699"
       id="path2-2" /><path
       style="fill:none;stroke:#f20a16;stroke-width:0.299463;stroke-dasharray:1.79678, 0.299463;stroke-dashoffset:0"
       d="m 84.938979,108.98248 c 0.459155,-1.84801 5.523311,-3.19002 8.134064,-5.30711 0.923924,-0.7492 1.607108,-1.70278 2.664607,-2.27446"
       id="path2-19" /><path
       style="fill:none;stroke:#f20a16;stroke-width:0.264583;stroke-dasharray:none;stroke-dashoffset:0"
       d="m 158.47434,239.64413 c 3.62845,-0.14636 -3.40556,-0.25769 2.31914,-0.25769 4.4022,0 6.57686,9.61216 4.89595,11.85337 -1.39059,1.85412 -2.76495,5.03705 -4.63827,6.44204 -0.59782,0.44837 -1.99302,0.18925 -2.31914,0.51537 -0.47305,0.47305 -2.48311,1.35088 -3.34986,0.77304 -1.37872,-0.91914 -2.58518,-2.07817 -3.34987,-3.60754 -2.11083,-4.22167 2.72388,-14.12509 6.44205,-15.71859 z"
       id="path3" /><path
       style="fill:none;stroke:#f20a16;stroke-width:0.264583;stroke-dasharray:none;stroke-dashoffset:0"
       d="m 109.25711,239.38644 c 0.63605,-0.50063 0.64849,-0.58192 3.09218,-1.80377 9.81754,-4.90877 11.86911,18.27966 6.44204,23.70673 -1.26282,1.26283 -4.90069,-0.948 -5.41131,-1.28841 -1.53857,-1.02571 -3.54822,-10.70397 -4.63828,-12.88409 -0.78713,-1.57427 0.0643,-6.15154 0.51537,-7.73046 z"
       id="path6" /></g></svg>
