<?xml version="1.0" encoding="UTF-8" standalone="no"?>
<!-- Created with Inkscape (http://www.inkscape.org/) -->

<svg
   width="210mm"
   height="297mm"
   viewBox="0 0 210 297"
   version="1.1"
   id="svg1"
   xml:space="preserve"
   inkscape:version="1.4.2 (f4327f4, 2025-05-13)"
   sodipodi:docname="annotation_mri.svg"
   xmlns:inkscape="http://www.inkscape.org/namespaces/inkscape"
   xmlns:sodipodi="http://sodipodi.sourceforge.net/DTD/sodipodi-0.dtd"
   xmlns:xlink="http://www.w3.org/1999/xlink"
   xmlns="http://www.w3.org/2000/svg"
   xmlns:svg="http://www.w3.org/2000/svg"><sodipodi:namedview
     id="namedview1"
     pagecolor="#ffffff"
     bordercolor="#000000"
     borderopacity="0.25"
     inkscape:showpageshadow="2"
     inkscape:pageopacity="0.0"
     inkscape:pagecheckerboard="0"
     inkscape:deskcolor="#d1d1d1"
     inkscape:document-units="mm"
     inkscape:zoom="1.0267829"
     inkscape:cx="211.82667"
     inkscape:cy="650.08874"
     inkscape:window-width="1920"
     inkscape:window-height="1017"
     inkscape:window-x="1912"
     inkscape:window-y="-8"
     inkscape:window-maximized="1"
     inkscape:current-layer="layer2" /><defs
     id="defs1" /><g
     inkscape:label="Слой 1"
     inkscape:groupmode="layer"
     id="layer1"><image
       width="126.56949"
       height="114.3"
       preserveAspectRatio="none"
       xlink:href="image14.png"
       id="image1"
       x="7.4166598"
       y="17.66898" /><image
       width="121.70834"
       height="136.48091"
       preserveAspectRatio="none"
       xlink:href="image20.png"
       id="image1-7"
       x="76.982956"
       y="142.6813"
       style="fill:#43c112;fill-opacity:0.16618101;stroke:#97e611;stroke-opacity:1" /></g><g
     inkscape:groupmode="layer"
     id="layer4"
     inkscape:label="intersphincteric_space"><path
       d="m 66.250386,53.758509 c -0.374695,0.01311 -0.745352,0.110368 -1.097607,0.234611 -2.664391,0.90749 -5.665912,0.819447 -8.126636,2.41484 -4.156458,2.348427 -8.010718,6.439584 -8.102348,11.468034 0.07835,3.805736 0.842649,7.627541 -0.02894,11.418424 -1.346405,5.285482 0.919037,10.865251 4.420918,14.811499 3.844875,3.886791 8.682488,6.728283 13.702523,8.821683 4.098045,1.68205 8.622977,-0.5219 11.353829,-3.650426 4.707507,-5.090457 5.282961,-12.251403 7.391797,-18.551319 1.164702,-2.976474 1.823341,-6.256279 0.842843,-9.391158 -0.412785,-3.669858 -2.472436,-6.827883 -3.583244,-10.288261 -1.002165,-3.5621 -5.065716,-4.25658 -7.975741,-5.611027 -2.45455,-1.887971 -5.626704,-0.99478 -8.421708,-1.659847 -0.125251,-0.01655 -0.250789,-0.02142 -0.375688,-0.01705 z m 2.949691,5.263762 c 2.288703,0.09683 4.590449,0.884975 6.690031,1.724442 3.445752,0.730694 5.916832,3.709506 6.793901,7.011458 0.477712,2.482735 2.314759,4.514857 2.237589,7.114812 1.005854,4.99388 -0.782408,10.07519 -3.560506,14.197583 -1.880231,3.331214 -5.028235,6.031079 -8.894031,6.618717 -6.959427,1.156599 -14.516169,-2.371913 -18.173051,-8.389669 -2.193452,-4.0693 -2.289417,-8.927711 -1.917712,-13.437939 0.871195,-3.599405 1.057593,-7.768884 3.755843,-10.578166 2.522548,-1.984797 5.866793,-3.312378 9.008752,-3.550687 1.317181,-0.577872 2.685963,-0.768652 4.059184,-0.710551 z"
       style="fill:#a3c112;fill-opacity:0.16618101;stroke:none;stroke-width:0.365001;stroke-dasharray:1.46001, 0.365001"
       id="path3"
       sodipodi:nodetypes="sccccccccccccssscccccccccs" /><path
       style="fill:#43c112;fill-opacity:0.166181;stroke:#97e611;stroke-width:0.3;stroke-dasharray:none;stroke-opacity:1"
       d="m 121.25982,221.38344 c -1.53832,4.3471 -1.96971,8.98904 -2.53298,13.53918 -0.55957,5.88993 -1.07529,11.83707 -0.56215,17.74889 0.1849,3.23509 2.65682,5.60495 3.85885,8.47003 1.19429,2.23018 2.23713,4.58642 3.8402,6.55977 1.11428,0.36656 -0.4215,-1.9241 -0.62866,-2.4541 -1.02574,-1.82411 -2.20207,-3.58244 -2.75172,-5.62854 -1.24751,-3.11999 -2.24608,-6.4063 -2.12311,-9.80249 -0.10177,-3.36391 -0.14256,-6.73159 0.14599,-10.08967 0.31168,-4.96653 0.88324,-9.91104 1.42378,-14.85507 0.0447,-1.1721 0.11155,-2.51844 -0.6702,-3.488 z"
       id="path10" /><path
       style="fill:#43c112;fill-opacity:0.166181;stroke:#97e611;stroke-width:0.3;stroke-dasharray:none;stroke-opacity:1"
       d="m 149.55211,215.84077 c -0.72541,5.19449 -0.28483,11.33114 -0.34708,16.55883 0.0403,5.83173 0.8929,11.65537 0.52186,17.48643 -0.43542,5.20068 -2.30083,10.19992 -5.16964,14.54333 -1.09617,1.75348 -2.37106,3.42674 -2.9727,5.43549 -1.48859,1.104 0.0184,-2.67104 0.51507,-3.39384 1.6827,-3.49989 3.70048,-6.87802 4.82172,-10.61663 1.43202,-5.01532 -0.29354,-10.175 0.0782,-15.25716 -0.10475,-6.93486 -1.52912,-13.9671 -0.0559,-20.84207 0.37812,-1.53503 1.07983,-3.12172 2.51191,-3.94659"
       id="path9"
       sodipodi:nodetypes="cccccccccc" /></g><g
     inkscape:groupmode="layer"
     id="layer3"
     inkscape:label="internal_sphincter"><path
       style="fill:#c11212;stroke:#e61111;stroke-width:0.3;stroke-dasharray:none;fill-opacity:0.16618101"
       d="m 122.52773,219.41611 c 0.0311,5.1196 -1.54609,9.40316 -1.54609,14.55902 0,3.32107 -0.38653,6.52903 -0.38653,9.92075 0,2.96334 0,5.92669 0,8.89003 0,2.09937 5.61695,17.75531 7.21509,14.55903 1.17568,-2.35137 -0.30533,-5.87199 0.64421,-8.24583 3.99762,-9.99405 -2.05902,-22.77804 -2.96334,-32.72559 -0.2151,-2.36604 -0.26183,-6.61972 -2.96334,-6.95741 z"
       id="path5" /><path
       style="fill:#c11212;fill-opacity:0.166181;stroke:#e61111;stroke-width:0.3;stroke-dasharray:none"
       d="m 147.52287,216.96813 c -1.7591,2.72353 -1.35629,6.14535 -1.26999,9.22985 0.50915,5.86085 0.37699,11.74689 0.49549,17.62263 -0.11247,4.22773 1.27392,8.66339 -0.48496,12.71493 -1.50891,4.07253 -2.89893,8.30898 -5.49296,11.84299 -0.9496,1.75205 -2.16062,0.72401 -1.88338,-0.84723 -0.0576,-1.68866 -0.0559,-3.38318 -0.4177,-5.03777 -0.12151,-5.70311 0.81375,-11.3671 1.46671,-17.01776 1.04852,-7.73994 2.14477,-15.47763 3.41443,-23.18343 0.51519,-1.94733 1.00513,-4.50712 3.1032,-5.33054 0.34892,-0.0934 0.72057,-0.0822 1.06916,0.006 z"
       id="path4" /><path
       id="path13"
       style="fill:#c12112;fill-opacity:0.29562983;stroke:#97e611;stroke-width:0.3;stroke-dasharray:1.2, 0.3;stroke-dashoffset:0;stroke-opacity:1"
       d="M 69.876872 59.217574 C 66.230287 59.637767 63.640249 59.096372 60.153951 60.378227 C 58.226452 60.977055 55.672834 63.118541 54.871069 64.91335 C 52.333645 70.337275 52.215333 76.646143 53.484074 82.419259 C 54.582797 87.111877 57.003326 92.037897 61.570402 94.181331 C 64.871639 95.483169 68.516808 96.377446 72.077771 95.840145 C 73.95496 95.058219 75.857621 94.504309 77.870182 94.147225 C 79.355644 93.268596 80.317156 91.710329 81.287028 90.323169 C 83.427018 84.105578 83.835409 79.023964 83.300342 73.646667 C 82.63343 70.329363 82.235602 66.757424 80.212158 63.938733 C 77.513071 61.08392 73.407992 60.521258 69.876872 59.217574 z M 69.512553 66.255387 C 71.683372 67.022548 74.206856 67.353578 75.86617 69.033512 C 77.110119 70.692188 77.354766 72.793736 77.764762 74.745825 C 78.093705 77.910129 77.842711 80.900914 76.527112 84.559696 C 75.930867 85.375979 75.33968 86.292652 74.426465 86.809688 C 73.189207 87.019815 72.019477 87.34588 70.865442 87.80601 C 68.676276 88.122186 66.435384 87.595918 64.405888 86.829842 C 61.598195 85.568525 60.110592 82.669701 59.435132 79.908301 C 58.655151 76.511074 58.72735 72.798345 60.287276 69.606604 C 60.780176 68.550437 62.350175 67.290418 63.53514 66.938033 C 65.678405 66.183717 67.270748 66.502652 69.512553 66.255387 z " /></g><g
     inkscape:groupmode="layer"
     id="layer2"
     inkscape:label="external_sphincter"><path
       id="path17"
       style="fill:#129dc1;fill-opacity:0.16618101;stroke:#f21b0a;stroke-width:0.365001;stroke-dasharray:1.46001, 0.365001;stroke-dashoffset:0;stroke-opacity:1"
       d="m 70.837537,48.227547 c -3.579187,0.595289 -7.270182,0.498843 -10.803262,1.252503 -4.864591,1.398943 -10.142072,3.444199 -12.643802,8.190633 -2.574104,4.241791 -2.261872,9.424635 -1.268402,14.08808 0.632839,3.657137 0.590271,7.41603 -0.305157,11.021567 -0.818078,5.386433 -0.555082,11.620371 3.571677,15.683458 2.478605,3.050132 5.86914,5.203882 9.3879,6.816862 2.702568,2.34343 6.31149,8.85506 10.32501,8.64369 6.691881,2.60622 9.449635,-3.3419 13.357622,-6.80005 3.395434,-4.81047 4.475731,-10.697289 5.729497,-16.268451 2.242197,-4.681293 2.106118,-9.458196 2.232562,-14.2126 0.531172,-4.568654 0.587358,-9.075293 0.475876,-13.70738 0.293388,-3.046249 -0.447716,-6.277227 -2.994927,-8.207427 -3.852267,-3.021877 -8.527391,-5.066088 -13.34754,-5.910947 -1.273214,-0.105669 -2.501844,-0.257282 -3.717054,-0.589938 z m -4.340304,6.321061 c 2.795004,0.665067 5.967006,-0.22836 8.421556,1.659611 2.910025,1.354447 6.973982,2.049046 7.976147,5.611146 1.110808,3.460378 3.170349,6.618422 3.583134,10.28828 0.980498,3.134879 1.223654,6.414985 0.05895,9.391459 -1.20695,6.81528 -3.586021,13.460685 -8.293528,18.551146 -2.730852,3.12853 -7.256219,5.33269 -11.354264,3.65064 -5.020035,-2.0934 -9.857665,-4.935371 -13.70254,-8.822162 -3.501881,-3.946248 -5.767123,-9.525899 -4.420718,-14.811381 0.871587,-3.790883 0.107542,-7.612673 0.02919,-11.418409 0.09163,-5.02845 3.945726,-9.119273 8.102184,-11.4677 2.460724,-1.595393 5.462351,-1.507376 8.126742,-2.414866 0.469673,-0.165657 0.972136,-0.283949 1.473141,-0.217764 z"
       sodipodi:nodetypes="cccccccccccccccscccccccccccss" /><path
       style="fill:#127cc1;fill-opacity:0.166181;stroke:#11e1e6;stroke-width:0.3;stroke-dasharray:none;stroke-opacity:1"
       d="m 113.25118,233.33093 c 2.6601,0.9293 4.34447,3.58376 4.58399,6.32562 0.68226,5.14786 -0.86447,10.54008 1.02819,15.52341 1.5434,3.17854 3.05451,6.38105 4.69722,9.50877 1.78123,2.91336 3.79285,5.77557 4.80585,9.06878 0.59733,1.30502 -0.5283,2.25413 -1.34943,0.90255 -3.84306,-3.45272 -7.7637,-6.92729 -10.60228,-11.29411 -3.64949,-5.46808 -6.42619,-11.95089 -5.93555,-18.64837 0.13972,-1.80803 0.76637,-3.55091 0.61312,-5.38498 0.0928,-1.94872 -0.18498,-4.06148 0.74616,-5.84573 0.31482,-0.4935 0.97635,-0.45108 1.41273,-0.15594 z"
       id="path7" /><path
       style="fill:#127cc1;fill-opacity:0.166181;stroke:#11e1e6;stroke-width:0.3;stroke-dasharray:none;stroke-opacity:1"
       d="m 142.11155,272.6274 c -0.40729,-1.92808 -0.25693,-3.98056 0.77377,-5.69476 2.0457,-3.97213 5.56658,-7.324 6.12422,-11.94807 1.42667,-7.38507 1.83436,-14.98061 3.98233,-22.21567 0.75422,-1.94547 1.35218,-4.18386 3.02853,-5.55224 2.29052,-0.39446 1.65289,3.12375 1.76016,4.59429 -0.31969,4.80362 -0.15113,9.64746 -0.99527,14.40789 -1.39595,9.36758 -5.56055,18.32321 -12.04276,25.25397 -0.52125,0.56815 -1.95694,0.67384 -2.50215,1.21904"
       id="path8"
       sodipodi:nodetypes="ccccccccc" /></g></svg>
