<?xml version="1.0" encoding="UTF-8" standalone="no"?>
<!-- Created with Inkscape (http://www.inkscape.org/) -->

<svg
   width="210mm"
   height="297mm"
   viewBox="0 0 210 297"
   version="1.1"
   id="svg1"
   xml:space="preserve"
   inkscape:version="1.4.2 (f4327f4, 2025-05-13)"
   sodipodi:docname="annotation_mri.svg"
   xmlns:inkscape="http://www.inkscape.org/namespaces/inkscape"
   xmlns:sodipodi="http://sodipodi.sourceforge.net/DTD/sodipodi-0.dtd"
   xmlns:xlink="http://www.w3.org/1999/xlink"
   xmlns="http://www.w3.org/2000/svg"
   xmlns:svg="http://www.w3.org/2000/svg"><sodipodi:namedview
     id="namedview1"
     pagecolor="#ffffff"
     bordercolor="#000000"
     borderopacity="0.25"
     inkscape:showpageshadow="2"
     inkscape:pageopacity="0.0"
     inkscape:pagecheckerboard="0"
     inkscape:deskcolor="#d1d1d1"
     inkscape:document-units="mm"
     inkscape:zoom="2.9041806"
     inkscape:cx="161.31917"
     inkscape:cy="310.75891"
     inkscape:window-width="1920"
     inkscape:window-height="1017"
     inkscape:window-x="-8"
     inkscape:window-y="-8"
     inkscape:window-maximized="1"
     inkscape:current-layer="layer1" /><defs
     id="defs1" /><g
     inkscape:label="Слой 1"
     inkscape:groupmode="layer"
     id="layer1"><image
       width="126.73542"
       height="114.3"
       preserveAspectRatio="none"
       xlink:href="image14.png"
       id="image1"
       x="7.4166598"
       y="17.66898" /><image
       width="121.70834"
       height="134.67291"
       preserveAspectRatio="none"
       xlink:href="image20.png"
       id="image1-7"
       x="76.982956"
       y="142.6813" /></g><g
     inkscape:groupmode="layer"
     id="layer3"
     inkscape:label="muscle_2"><path
       id="path12"
       style="fill:#c1bc12;stroke:#f2f00a;stroke-width:0.411193;stroke-dasharray:1.64478, 0.411193;stroke-dashoffset:0;stroke-opacity:1;fill-opacity:0.89504373"
       d="M 69.071236 59.795317 C 67.698015 59.737216 66.329233 59.927996 65.012052 60.505868 C 61.870093 60.744177 58.525848 62.071758 56.0033 64.056555 C 53.30505 66.865837 53.118652 71.035316 52.247457 74.634721 C 51.875752 79.144949 51.971717 84.00336 54.165169 88.07266 C 57.822051 94.090416 65.378793 97.618928 72.33822 96.462329 C 76.204016 95.874691 79.35202 93.174826 81.232251 89.843612 C 84.010349 85.721219 85.798611 80.639909 84.792757 75.646029 C 84.869927 73.046074 83.03288 71.013952 82.555168 68.531217 C 81.678099 65.229265 79.207019 62.250453 75.761267 61.519759 C 73.661685 60.680292 71.359939 59.89215 69.071236 59.795317 z M 69.006641 62.209123 C 70.995739 62.29328 72.996538 62.978163 74.821273 63.707739 C 77.815956 64.342781 79.96305 66.931717 80.725305 69.801424 C 81.140482 71.959155 82.736959 73.72542 82.669889 75.985026 C 83.544071 80.325178 81.99045 84.74106 79.576021 88.323808 C 77.941923 91.218946 75.206002 93.565198 71.846261 94.075911 C 65.797864 95.081105 59.230051 92.014363 56.051876 86.784367 C 54.14556 83.247762 54.062264 79.025306 54.385311 75.105493 C 55.142461 71.977271 55.304161 68.353787 57.649194 65.912256 C 59.841526 64.187281 62.748549 63.033769 65.479207 62.826656 C 66.623961 62.324431 67.813182 62.158628 69.006641 62.209123 z " /><path
       style="fill:none;stroke:#f2ee0a;stroke-width:0.365001;stroke-dasharray:1.46001, 0.365001;stroke-dashoffset:0;stroke-opacity:1"
       d="m 148.13558,214.45951 c -0.29152,1.04288 -2.36871,5.4299 -2.36871,8.74601 0,1.90422 1.05371,8.1203 1.82209,9.65705 0.98055,1.96111 -1.00625,16.04256 -1.82209,17.67424 -0.8281,1.65619 0.12291,4.4916 -0.72883,6.19509 -0.87237,1.74473 -1.3686,4.05921 -2.0043,5.64846 -0.36175,0.90438 -1.0883,1.81714 -1.63988,2.3687 -2.04951,2.04955 -1.82208,4.92004 -1.82208,7.65279"
       id="path8" /><path
       style="fill:none;stroke:#f2ee0a;stroke-width:0.365001;stroke-dasharray:1.46001, 0.365001;stroke-dashoffset:0;stroke-opacity:1"
       d="m 121.16871,215.55276 c -0.16545,0.0975 1.20093,9.33402 0.36442,11.84356 -2.0787,6.2361 -3.12676,17.58661 -0.91105,24.23374 0.28078,0.84233 -0.0166,2.15336 0.36442,2.91534 0.5073,1.01459 1.60555,4.20135 1.82209,5.28404 0.26365,1.31828 0.46268,2.74745 1.09325,4.00859 0.46143,0.92286 1.63055,1.62123 2.00429,2.3687 0.33445,0.66892 0.78381,2.2415 1.45767,2.91534 0.83346,0.83347 0.60788,2.85565 1.09325,3.82641"
       id="path9" /></g><g
     inkscape:groupmode="layer"
     id="layer2"
     inkscape:label="muscle_1"><path
       id="path17"
       style="fill:#c11212;fill-opacity:0.166181;stroke:#f21b0a;stroke-width:0.365001;stroke-dasharray:1.46001, 0.365001;stroke-dashoffset:0;stroke-opacity:1"
       d="m 70.837537,48.227547 c -3.579187,0.595289 -7.270182,0.498843 -10.803262,1.252503 -4.864591,1.398943 -10.142072,3.444199 -12.643802,8.190633 -2.574104,4.241791 -2.261872,9.424635 -1.268402,14.08808 0.632839,3.657137 0.590271,7.41603 -0.305157,11.021567 -0.818078,5.386433 -0.555082,11.620371 3.571677,15.683458 2.478605,3.050132 5.86914,5.203882 9.3879,6.816862 2.702568,2.34343 5.151922,6.02056 9.165442,5.80919 5.016948,0.0294 10.609203,-0.5074 14.51719,-3.96555 4.039639,-4.42395 4.475731,-10.697289 5.729497,-16.268451 0.953788,-4.681293 1.075391,-9.458196 1.201835,-14.2126 0.531172,-4.568654 1.618085,-9.075293 1.506603,-13.70738 0.293388,-3.046249 -0.447716,-6.277227 -2.994927,-8.207427 -3.852267,-3.021877 -8.527391,-5.066088 -13.34754,-5.910947 -1.273214,-0.105669 -2.501844,-0.257282 -3.717054,-0.589938 z m -4.340304,6.321061 c 2.795004,0.665067 5.967006,-0.22836 8.421556,1.659611 2.910025,1.354447 6.973982,2.049046 7.976147,5.611146 1.110808,3.460378 3.170349,6.618422 3.583134,10.28828 0.980498,3.134879 0.321767,6.414985 -0.842935,9.391459 -2.108836,6.299916 -2.684134,13.460685 -7.391641,18.551146 -2.730852,3.12853 -7.256219,5.33269 -11.354264,3.65064 -5.020035,-2.0934 -9.857665,-4.935371 -13.70254,-8.822162 -3.501881,-3.946248 -5.767123,-9.525899 -4.420718,-14.811381 0.871587,-3.790883 0.107542,-7.612673 0.02919,-11.418409 0.09163,-5.02845 3.945726,-9.119273 8.102184,-11.4677 2.460724,-1.595393 5.462351,-1.507376 8.126742,-2.414866 0.469673,-0.165657 0.972136,-0.283949 1.473141,-0.217764 z" /><path
       style="fill:#c11212;fill-opacity:0.166181;stroke:#f21b0a;stroke-width:0.365001;stroke-dasharray:1.46001, 0.365001;stroke-dashoffset:0;stroke-opacity:1"
       d="m 159.24739,216.71044 c -2.1878,4.27216 -1.54609,9.16537 -1.54609,13.91482 0,1.12828 0.17531,2.41416 -0.12885,3.47871 -1.19617,4.18659 -0.62322,8.88101 -1.80377,13.01293 -1.93061,6.75712 -4.45411,13.41765 -7.60161,19.71266 -0.84102,1.68204 -3.30037,6.66007 -5.79784,5.41131 -1.50041,-0.7502 -0.14346,-3.82137 0.12883,-4.63827 0.8595,-2.5785 1.86686,-4.89326 3.09219,-7.34393 0.8551,-1.7102 2.3666,-3.41088 2.8345,-5.28247 0.38124,-1.52499 0.67932,-3.19754 1.15957,-4.63828 0.25389,-0.76169 -0.0674,-1.79187 0.12884,-2.57682 0.18189,-0.72757 -0.1819,-1.59156 0,-2.31913 0.65752,-2.6301 1.20323,-7.89868 0.6442,-10.6938 -0.29258,-1.46294 -1.14657,-2.76951 -1.41725,-4.12291 -0.5961,-2.9805 -0.77304,-5.85963 -0.77304,-9.01886 0,-1.5858 -0.66563,-4.54524 1.15957,-5.15364"
       id="path23" /><path
       style="fill:#c11212;fill-opacity:0.166181;stroke:#f21b0a;stroke-width:0.365001;stroke-dasharray:1.46001, 0.365001;stroke-dashoffset:0;stroke-opacity:1"
       d="m 111.06088,214.90667 c -0.14871,2.23165 0.61803,9.71541 -1.28841,13.52829 -0.62278,1.24556 -0.2555,4.62516 -0.51536,6.18437 -0.38389,2.30329 -0.81656,4.80555 -0.51537,7.21509 0.12017,0.96134 0.481,2.63693 0.90189,3.47871 0.56839,1.13677 1.68043,2.34662 1.93261,3.60754 1.20292,6.0146 3.99239,11.76523 7.73046,16.74933 1.74756,2.33008 3.68516,4.52702 5.41132,6.82855 0.47865,0.6382 1.36731,0.72311 1.93261,1.28842 0.29634,0.29633 1.21502,1.19626 1.54609,1.03073 0.57919,-0.28961 -2.36825,-5.20276 -2.96334,-5.79784 -2.30178,-2.30179 -4.66097,-8.56403 -5.79784,-11.59569 -0.5077,-1.35385 -1.03824,-2.97837 -1.67493,-4.25175 -0.24801,-0.49601 0.14701,-1.51883 -0.12884,-1.93261 -0.75285,-1.12926 -0.87737,-10.30102 -0.51537,-12.11105 0.29473,-1.47362 0.56678,-2.98874 1.03073,-4.38059 0.6339,-1.90171 -0.17657,-5.43032 0.25768,-7.60162 0.58815,-2.94072 2.31914,-5.39394 2.31914,-8.24582"
       id="path22" /><path
       d="m 66.121545,54.531555 c -0.374695,0.01311 -0.745352,0.110368 -1.097607,0.234611 -2.664391,0.90749 -5.665912,0.819447 -8.126636,2.41484 -4.156458,2.348427 -8.010718,6.439584 -8.102348,11.468034 0.07835,3.805736 0.842649,7.627541 -0.02894,11.418424 -1.346405,5.285482 0.919037,10.865251 4.420918,14.811499 3.844875,3.886791 8.682488,6.728287 13.702523,8.821687 4.098045,1.68205 8.622977,-0.5219 11.353829,-3.65043 4.707507,-5.090457 5.282961,-12.251403 7.391797,-18.551319 1.164702,-2.976474 1.823341,-6.256279 0.842843,-9.391158 -0.412785,-3.669858 -2.472436,-6.827883 -3.583244,-10.288261 -1.002165,-3.5621 -5.065716,-4.25658 -7.975741,-5.611027 -2.45455,-1.887971 -5.626704,-0.99478 -8.421708,-1.659847 -0.125251,-0.01655 -0.250789,-0.02142 -0.375688,-0.01705 z m 2.949691,5.263762 c 2.288703,0.09683 4.590449,0.884975 6.690031,1.724442 3.445752,0.730694 5.916832,3.709506 6.793901,7.011458 0.477712,2.482735 2.314759,4.514857 2.237589,7.114812 1.005854,4.99388 -0.782408,10.07519 -3.560506,14.197583 -1.880231,3.331214 -5.028235,6.031079 -8.894031,6.618717 -6.959427,1.156599 -14.516169,-2.371913 -18.173051,-8.389669 -2.193452,-4.0693 -2.289417,-8.927711 -1.917712,-13.437939 0.871195,-3.599405 1.057593,-7.768884 3.755843,-10.578166 2.522548,-1.984797 5.866793,-3.312378 9.008752,-3.550687 1.317181,-0.577872 2.685963,-0.768652 4.059184,-0.710551 z"
       style="fill:#1218c1;fill-opacity:0.16618101;stroke:none;stroke-width:0.365001;stroke-dasharray:1.46001, 0.365001"
       id="path3" /></g></svg>
