<?xml version="1.0" encoding="UTF-8" standalone="no"?>
<!-- Created with Inkscape (http://www.inkscape.org/) -->

<svg
   width="210mm"
   height="297mm"
   viewBox="0 0 210 297"
   version="1.1"
   id="svg1"
   xml:space="preserve"
   inkscape:version="1.4.2 (f4327f4, 2025-05-13)"
   sodipodi:docname="annotation_mri.svg"
   xmlns:inkscape="http://www.inkscape.org/namespaces/inkscape"
   xmlns:sodipodi="http://sodipodi.sourceforge.net/DTD/sodipodi-0.dtd"
   xmlns:xlink="http://www.w3.org/1999/xlink"
   xmlns="http://www.w3.org/2000/svg"
   xmlns:svg="http://www.w3.org/2000/svg"><sodipodi:namedview
     id="namedview1"
     pagecolor="#ffffff"
     bordercolor="#000000"
     borderopacity="0.25"
     inkscape:showpageshadow="2"
     inkscape:pageopacity="0.0"
     inkscape:pagecheckerboard="0"
     inkscape:deskcolor="#d1d1d1"
     inkscape:document-units="mm"
     inkscape:zoom="1.0267829"
     inkscape:cx="543.93191"
     inkscape:cy="645.21914"
     inkscape:window-width="1920"
     inkscape:window-height="1017"
     inkscape:window-x="-8"
     inkscape:window-y="-8"
     inkscape:window-maximized="1"
     inkscape:current-layer="layer1" /><defs
     id="defs1" /><g
     inkscape:label="Слой 1"
     inkscape:groupmode="layer"
     id="layer1"><image
       width="126.73542"
       height="114.3"
       preserveAspectRatio="none"
       xlink:href="image14.png"
       id="image1"
       x="7.4166598"
       y="17.66898" /><image
       width="121.70834"
       height="134.67291"
       preserveAspectRatio="none"
       xlink:href="image20.png"
       id="image1-7"
       x="76.982956"
       y="142.6813" /><path
       style="fill:none;stroke:#f2ee0a;stroke-width:0.365001;stroke-dasharray:1.46001, 0.365001;stroke-dashoffset:0;stroke-opacity:1"
       d="m 148.13558,214.45951 c -0.29152,1.04288 -2.36871,5.4299 -2.36871,8.74601 0,1.90422 1.05371,8.1203 1.82209,9.65705 0.98055,1.96111 -1.00625,16.04256 -1.82209,17.67424 -0.8281,1.65619 0.12291,4.4916 -0.72883,6.19509 -0.87237,1.74473 -1.3686,4.05921 -2.0043,5.64846 -0.36175,0.90438 -1.0883,1.81714 -1.63988,2.3687 -2.04951,2.04955 -1.82208,4.92004 -1.82208,7.65279"
       id="path8" /><path
       style="fill:none;stroke:#f2ee0a;stroke-width:0.365001;stroke-dasharray:1.46001, 0.365001;stroke-dashoffset:0;stroke-opacity:1"
       d="m 121.16871,215.55276 c -0.16545,0.0975 1.20093,9.33402 0.36442,11.84356 -2.0787,6.2361 -3.12676,17.58661 -0.91105,24.23374 0.28078,0.84233 -0.0166,2.15336 0.36442,2.91534 0.5073,1.01459 1.60555,4.20135 1.82209,5.28404 0.26365,1.31828 0.46268,2.74745 1.09325,4.00859 0.46143,0.92286 1.63055,1.62123 2.00429,2.3687 0.33445,0.66892 0.78381,2.2415 1.45767,2.91534 0.83346,0.83347 0.60788,2.85565 1.09325,3.82641"
       id="path9" /><path
       style="fill:none;stroke:#f2f00a;stroke-width:0.365001;stroke-dasharray:1.46001, 0.365001;stroke-dashoffset:0;stroke-opacity:1"
       d="m 64.866257,61.586503 c -0.340254,-0.53713 -2.757053,0.615337 -4.737422,1.275459 -5.174576,1.724858 -5.239486,5.470205 -6.377303,10.021472 -0.747773,2.991093 -0.320976,9.036822 0.728835,11.661351 3.336747,8.341866 17.350337,13.125725 23.504908,4.919631 2.936714,-3.915616 5.658882,-9.250974 4.373007,-14.394479 -0.108934,-0.435734 0.165809,-1.043146 0,-1.457669 -0.5349,-1.337246 -1.284266,-2.586146 -1.639877,-4.008588 -0.516379,-2.065512 -1.664264,-4.482399 -3.461964,-5.830676 -1.113404,-0.835051 -2.554838,-1.131258 -3.826381,-1.639877 -2.613498,-1.045398 -5.722868,-1.764167 -8.563803,-0.546624 z"
       id="path12" /><path
       style="fill:#c11212;stroke:#f21b0a;stroke-width:0.365001;stroke-dasharray:1.46001, 0.365001;stroke-dashoffset:0;stroke-opacity:1;fill-opacity:0.16618076"
       d="m 76.016148,49.217235 c 1.215972,-0.25754 10.919777,3.237894 13.914818,7.730456 1.59072,2.386076 0.773047,7.431762 0.773047,10.307272 0,2.143403 -0.655405,4.705474 -1.030727,6.957412 -0.671833,4.030996 -0.194863,8.321447 -0.773046,12.368728 -0.394092,2.758649 -2.596452,14.548797 -3.607546,16.233957 -0.921594,1.53599 -1.925384,3.47147 -3.092183,4.63827 -2.911637,2.91164 -12.340352,4.38769 -16.491638,3.34987 -2.291715,-0.57293 -4.988671,-3.70026 -6.699729,-5.41132 -0.821475,-0.82148 -2.632543,-1.21877 -3.607546,-1.80378 -3.149049,-1.88942 -5.961255,-4.690127 -7.988136,-7.730451 C 44.555724,91.571044 45.443899,84.06019 46.382733,79.366011 47.456201,73.998679 44.13519,66.524822 45.86737,61.328281 c 2.933369,-8.800103 8.0143,-9.800633 15.718594,-12.368729 1.213215,-0.404405 2.874346,0.249714 4.122909,0 1.631641,-0.326329 4.913111,-1.110903 6.699729,-0.515363 1.29844,0.432813 1.728025,5.951932 0.25768,6.442046 -2.236917,0.745641 -5.889416,-1.049361 -7.988136,0 -1.515864,0.757933 -3.351871,0.516033 -4.895955,1.030727 -4.779619,1.593207 -8.731978,5.20946 -10.564956,9.791911 -0.950536,2.376337 0,7.703185 0,10.307275 0,3.002124 -1.553699,7.449952 -0.515366,10.564955 2.753572,8.260715 6.138397,10.48584 13.141775,14.687867 2.290276,1.37416 7.050709,3.83413 10.049595,2.8345 9.014348,-3.00478 10.794674,-11.483834 12.884091,-19.841503 0.654672,-2.618692 3.284808,-8.118253 1.803773,-11.080321 -0.496218,-0.992437 0.05086,-3.015898 -0.515363,-3.865227 -1.304891,-1.957337 -2.14144,-5.095914 -3.092183,-7.472775 -2.039969,-5.099923 -7.174349,-4.082166 -10.049592,-6.957409 -1.907384,-1.907384 -1.187833,-8.114723 3.092183,-5.669 z"
       id="path17" /><path
       style="fill:#c11212;fill-opacity:0.166181;stroke:#f21b0a;stroke-width:0.365001;stroke-dasharray:1.46001, 0.365001;stroke-dashoffset:0;stroke-opacity:1"
       d="m 111.06088,214.90667 c -0.14871,2.23165 0.61803,9.71541 -1.28841,13.52829 -0.62278,1.24556 -0.2555,4.62516 -0.51536,6.18437 -0.38389,2.30329 -0.81656,4.80555 -0.51537,7.21509 0.12017,0.96134 0.481,2.63693 0.90189,3.47871 0.56839,1.13677 1.68043,2.34662 1.93261,3.60754 1.20292,6.0146 3.99239,11.76523 7.73046,16.74933 1.74756,2.33008 3.68516,4.52702 5.41132,6.82855 0.47865,0.6382 1.36731,0.72311 1.93261,1.28842 0.29634,0.29633 1.21502,1.19626 1.54609,1.03073 0.57919,-0.28961 -2.36825,-5.20276 -2.96334,-5.79784 -2.30178,-2.30179 -4.66097,-8.56403 -5.79784,-11.59569 -0.5077,-1.35385 -1.03824,-2.97837 -1.67493,-4.25175 -0.24801,-0.49601 0.14701,-1.51883 -0.12884,-1.93261 -0.75285,-1.12926 -0.87737,-10.30102 -0.51537,-12.11105 0.29473,-1.47362 0.56678,-2.98874 1.03073,-4.38059 0.6339,-1.90171 -0.17657,-5.43032 0.25768,-7.60162 0.58815,-2.94072 2.31914,-5.39394 2.31914,-8.24582"
       id="path22" /><path
       style="fill:#c11212;fill-opacity:0.166181;stroke:#f21b0a;stroke-width:0.365001;stroke-dasharray:1.46001, 0.365001;stroke-dashoffset:0;stroke-opacity:1"
       d="m 159.24739,216.71044 c -2.1878,4.27216 -1.54609,9.16537 -1.54609,13.91482 0,1.12828 0.17531,2.41416 -0.12885,3.47871 -1.19617,4.18659 -0.62322,8.88101 -1.80377,13.01293 -1.93061,6.75712 -4.45411,13.41765 -7.60161,19.71266 -0.84102,1.68204 -3.30037,6.66007 -5.79784,5.41131 -1.50041,-0.7502 -0.14346,-3.82137 0.12883,-4.63827 0.8595,-2.5785 1.86686,-4.89326 3.09219,-7.34393 0.8551,-1.7102 2.3666,-3.41088 2.8345,-5.28247 0.38124,-1.52499 0.67932,-3.19754 1.15957,-4.63828 0.25389,-0.76169 -0.0674,-1.79187 0.12884,-2.57682 0.18189,-0.72757 -0.1819,-1.59156 0,-2.31913 0.65752,-2.6301 1.20323,-7.89868 0.6442,-10.6938 -0.29258,-1.46294 -1.14657,-2.76951 -1.41725,-4.12291 -0.5961,-2.9805 -0.77304,-5.85963 -0.77304,-9.01886 0,-1.5858 -0.66563,-4.54524 1.15957,-5.15364"
       id="path23" /></g></svg>
