<?xml version="1.0" encoding="UTF-8" standalone="no"?>
<!-- Created with Inkscape (http://www.inkscape.org/) -->

<svg
   width="210mm"
   height="297mm"
   viewBox="0 0 210 297"
   version="1.1"
   id="svg1"
   xml:space="preserve"
   inkscape:version="1.4.2 (f4327f4, 2025-05-13)"
   sodipodi:docname="annotation_mri.svg"
   xmlns:inkscape="http://www.inkscape.org/namespaces/inkscape"
   xmlns:sodipodi="http://sodipodi.sourceforge.net/DTD/sodipodi-0.dtd"
   xmlns:xlink="http://www.w3.org/1999/xlink"
   xmlns="http://www.w3.org/2000/svg"
   xmlns:svg="http://www.w3.org/2000/svg"><sodipodi:namedview
     id="namedview1"
     pagecolor="#ffffff"
     bordercolor="#000000"
     borderopacity="0.25"
     inkscape:showpageshadow="2"
     inkscape:pageopacity="0.0"
     inkscape:pagecheckerboard="0"
     inkscape:deskcolor="#d1d1d1"
     inkscape:document-units="mm"
     inkscape:zoom="2.0535658"
     inkscape:cx="330.40091"
     inkscape:cy="414.15766"
     inkscape:window-width="1920"
     inkscape:window-height="1017"
     inkscape:window-x="1912"
     inkscape:window-y="-8"
     inkscape:window-maximized="1"
     inkscape:current-layer="layer5" /><defs
     id="defs1"><linearGradient
       id="linearGradient16"
       inkscape:collect="always"><stop
         style="stop-color:#9f0c0e;stop-opacity:0.28753993;"
         offset="0"
         id="stop16" /><stop
         style="stop-color:#e6c611;stop-opacity:0;"
         offset="1"
         id="stop17" /></linearGradient><linearGradient
       inkscape:collect="always"
       xlink:href="#linearGradient16"
       id="linearGradient17"
       x1="32.139256"
       y1="119.68368"
       x2="175.07869"
       y2="119.68368"
       gradientUnits="userSpaceOnUse" /></defs><g
     inkscape:label="Слой 1"
     inkscape:groupmode="layer"
     id="layer1"><image
       width="142.93944"
       height="121.56565"
       preserveAspectRatio="none"
       xlink:href="image31.jpg"
       id="image1-8"
       x="32.139256"
       y="58.900852"
       style="fill:url(#linearGradient17);fill-opacity:1" /></g><g
     inkscape:groupmode="layer"
     id="layer7"
     inkscape:label="muscularis"><path
       d="m 104.70679,80.578544 c -8.646375,-0.215202 -16.171906,4.642466 -23.74664,8.119214 -6.246968,4.821267 -8.267974,12.958232 -9.788632,20.310062 -1.017914,6.69494 -0.526503,13.62393 1.494848,20.09076 3.425552,3.28528 2.641156,9.06962 6.554904,11.99528 3.824019,7.64708 12.819366,10.58032 20.80298,11.19734 8.38973,0.75386 16.4328,-2.25724 24.03612,-5.41547 3.04178,-1.03013 6.41119,-2.38882 7.49369,-5.72227 1.27557,-3.22698 2.06214,-6.65725 3.92002,-9.62876 1.71173,-4.31508 2.06468,-9.01081 3.0071,-13.5222 0.75928,-4.85843 -0.62183,-9.6326 -1.96261,-14.24561 -0.69706,-4.857147 -4.63515,-7.934082 -6.21796,-12.375153 -2.31484,-3.675435 -7.18605,-0.79782 -10.21763,-3.943011 -4.51454,-1.304701 -7.41037,-5.06229 -11.63828,-6.822176 -1.21308,-0.356384 -2.51673,-0.350516 -3.73791,-0.03801 z m 2.74608,8.818067 c 6.90827,0.382869 12.97044,4.262503 18.60553,7.9102 5.54558,5.211639 5.60051,13.532729 4.93305,20.575309 -0.67058,5.91983 -0.65105,12.78314 -5.21722,17.24489 -1.9971,2.09759 -4.92826,2.67964 -7.7031,2.72539 -4.78859,0.46721 -8.32277,3.9898 -12.60594,5.70063 -3.69332,1.665 -7.338862,-0.23322 -10.752752,-1.57735 -4.249187,-1.73724 -9.074422,-3.15968 -11.760331,-7.17982 -6.438475,-8.06342 -9.376886,-19.73536 -5.134352,-29.4636 1.768671,-3.64368 3.847129,-7.268698 6.688007,-10.173535 4.85351,-3.966278 11.465228,-3.773727 17.239358,-5.375323 1.87827,-0.350657 3.79846,-0.517458 5.70775,-0.386791 z"
       style="fill:#e36a31;stroke:#e61111;stroke-width:0.3;fill-opacity:0.32843137"
       id="path2" /></g><g
     inkscape:groupmode="layer"
     id="layer5"
     inkscape:label="mucosa"><path
       d="m 92.620186,93.301282 c -3.535953,0.210164 -5.971707,3.50019 -8.549865,5.43636 -2.750036,2.065248 -4.646934,6.161148 -3.124357,9.438698 2.302626,3.21588 7.247743,1.45 9.200472,-0.42374 1.952729,-1.87374 6.466833,-1.85643 4.142899,0.96635 -2.323934,2.82278 -5.738506,4.1361 -7.643978,7.49773 -1.905472,3.36163 2.990666,6.82787 5.025017,4.27571 2.034351,-2.55216 6.778538,-6.63127 7.124112,-2.8882 0.345574,3.74307 -1.419846,6.22378 -2.269112,10.08569 -0.849266,3.86191 4.380476,8.04524 7.938016,7.13807 3.55754,-0.90717 8.12002,-1.40468 8.37778,-4.93975 0.25776,-3.53507 -2.96871,-6.08336 -3.88916,-9.19996 -0.92045,-3.1166 2.05786,0.58493 3.33623,-1.09089 1.27837,-1.67582 0.76224,-6.16915 3.51399,-7.95249 2.75175,-1.78334 6.62325,-4.0434 4.94492,-7.74423 -0.97937,-2.73789 -4.59968,-4.338413 -6.97115,-2.92798 -2.37147,1.41043 -4.89878,5.73775 -5.59966,2.91145 -0.70088,-2.8263 0.82445,-6.608406 -2.60707,-8.031036 -3.54426,-2.302074 -5.19305,2.462134 -4.00958,5.160926 1.39646,2.13516 -1.50766,4.80671 -2.767271,2.1115 -0.528867,-3.142943 -0.627854,-7.34594 -3.871598,-9.038726 -0.454578,-0.379539 -0.994227,-0.669823 -1.578715,-0.784965 -0.245881,-0.01468 -0.486189,-0.01453 -0.72192,-5.17e-4 z m 0.246497,1.581299 c 0.643594,0.01225 1.164256,0.507317 1.674316,0.84956 1.894614,1.37596 2.095827,3.906725 2.436544,6.032189 0.0548,1.49655 0.613788,3.21435 2.106332,3.84318 1.858905,0.85226 4.001285,-0.70199 4.355805,-2.57814 0.37354,-1.22113 -0.36059,-2.3399 -0.64957,-3.481441 -0.0422,-0.932949 -0.0192,-2.247813 0.96583,-2.69596 0.75786,0.150336 1.51824,0.514417 2.05724,1.086756 0.97501,1.72164 0.31561,3.796185 0.68213,5.661155 0.0544,1.39364 1.11972,2.9183 2.64118,2.8143 1.95805,-0.39434 3.15021,-2.18483 4.57078,-3.42563 0.86515,-0.94441 2.29312,-1.1956 3.4432,-0.65216 1.53839,0.65454 2.90638,2.51704 2.17455,4.20698 -1.16702,2.30186 -3.93792,2.97955 -5.57744,4.8395 -1.72999,1.817 -1.71657,4.47201 -2.50527,6.71483 -0.0543,0.61804 -0.56688,0.0688 -0.89091,0.002 -1.13854,-0.70024 -2.96279,-0.11438 -3.14037,1.30534 -0.036,2.46008 1.55376,4.53701 2.75538,6.53242 0.81927,1.37484 1.79568,3.12307 1.00201,4.71599 -0.89245,1.16032 -2.44582,1.51683 -3.79305,1.89188 -1.69024,0.30769 -3.41403,1.18579 -5.13974,0.56844 -1.99159,-0.7662 -4.002703,-2.50109 -3.995103,-4.79712 0.627749,-3.35168 2.492033,-6.46495 2.383833,-9.95444 0.13372,-1.50923 -0.530655,-3.30423 -2.105813,-3.76462 -1.883324,-0.36049 -3.638027,0.82053 -5.003313,1.98851 -1.17041,0.86779 -2.04124,2.03208 -3.077848,3.03547 -1.24924,0.52815 -2.735591,-1.0069 -2.358512,-2.2779 1.547895,-3.12599 4.954073,-4.57927 7.191809,-7.10809 1.0434,-0.97926 1.887716,-2.57601 1.173572,-3.9796 -0.841646,-1.43794 -2.805409,-1.60121 -4.273641,-1.20148 -1.682861,0.34589 -2.87933,1.64295 -4.294829,2.49959 -1.527194,0.77892 -3.632048,1.31464 -5.078243,0.0961 -0.841679,-1.06856 -0.678271,-2.61505 -0.279052,-3.83801 0.580203,-2.10402 2.323068,-3.5236 3.942911,-4.840533 1.96316,-1.601584 3.776672,-3.839792 6.475057,-4.085022 v 5.16e-4 c 0.04403,-0.0037 0.08732,-0.0055 0.130225,-0.0046 z"
       style="fill:#25eaf0;fill-opacity:0.95127892;stroke:#bb8889;stroke-width:0.3;stroke-opacity:0.941928"
       id="path5" /></g><g
     inkscape:groupmode="layer"
     id="layer6"
     inkscape:label="submucosa"><path
       d="m 107.45287,89.396611 c -5.0422,-0.32757 -9.850461,1.585649 -14.79916,2.197513 -4.421758,0.838325 -8.803101,3.083174 -11.064231,7.135701 -4.063486,5.621765 -6.621882,12.628825 -5.56307,19.622285 0.857702,7.13321 4.132903,14.0482 9.332256,19.02844 4.160226,3.11967 9.29259,4.42359 14.02736,6.38835 3.310285,1.12045 6.754785,-0.11098 9.521195,-1.97512 3.49562,-2.14597 7.28566,-4.32844 11.5383,-4.09099 4.90198,-0.60206 8.25945,-5.17418 9.15741,-9.7619 1.23238,-5.33687 1.51282,-10.85558 1.68064,-16.31204 -0.0986,-5.29156 -1.3593,-11.26461 -5.75698,-14.665799 -5.4929,-3.546932 -11.3615,-7.188734 -18.07372,-7.56644 z m -12.532249,4.69008 c 3.243744,1.692786 3.34301,5.895858 3.871877,9.038799 1.259612,2.69521 4.163502,0.0236 2.767042,-2.11156 -1.18347,-2.698791 0.46563,-7.462848 4.00989,-5.160774 3.43152,1.42263 1.9059,5.204464 2.60678,8.030764 0.70088,2.8263 3.22814,-1.50099 5.59961,-2.91142 2.37147,-1.410431 5.99196,0.19048 6.97133,2.92837 1.67833,3.70083 -2.19331,5.96059 -4.94506,7.74393 -2.75175,1.78334 -2.23539,6.27692 -3.51376,7.95274 -1.27837,1.67582 -4.25667,-2.02582 -3.33622,1.09078 0.92045,3.1166 4.14685,5.66492 3.88909,9.19999 -0.25776,3.53507 -4.82029,4.03271 -8.37783,4.93988 -3.55754,0.90717 -8.787139,-3.27626 -7.937873,-7.13817 0.849266,-3.86191 2.61479,-6.34299 2.269216,-10.08606 -0.345574,-3.74307 -5.089976,0.33626 -7.124327,2.88842 -2.034351,2.55216 -6.93026,-0.91385 -5.024788,-4.27548 1.905472,-3.36163 5.319815,-4.67516 7.643749,-7.49794 2.323934,-2.82278 -2.190179,-2.84025 -4.142908,-0.96651 -1.952729,1.87374 -6.898048,3.63984 -9.200674,0.42396 -1.522577,-3.27755 0.374673,-7.37348 3.124709,-9.438725 2.750036,-2.065248 5.337657,-5.670992 9.271756,-5.436109 0.584488,0.115142 1.123813,0.405576 1.578391,0.785115 z"
       style="fill:#d61031;fill-opacity:0.66504264;stroke:#bb8889;stroke-width:0.3;stroke-opacity:0.941928"
       id="path3"
       sodipodi:nodetypes="cccccccccccccccczzczzzzzzzzzzzczcc" /></g></svg>
