<?xml version="1.0" encoding="UTF-8" standalone="no"?>
<!-- Created with Inkscape (http://www.inkscape.org/) -->

<svg
   width="210mm"
   height="297mm"
   viewBox="0 0 210 297"
   version="1.1"
   id="svg1"
   xml:space="preserve"
   inkscape:version="1.4.2 (f4327f4, 2025-05-13)"
   sodipodi:docname="annotation_mri.svg"
   xmlns:inkscape="http://www.inkscape.org/namespaces/inkscape"
   xmlns:sodipodi="http://sodipodi.sourceforge.net/DTD/sodipodi-0.dtd"
   xmlns:xlink="http://www.w3.org/1999/xlink"
   xmlns="http://www.w3.org/2000/svg"
   xmlns:svg="http://www.w3.org/2000/svg"><sodipodi:namedview
     id="namedview1"
     pagecolor="#ffffff"
     bordercolor="#000000"
     borderopacity="0.25"
     inkscape:showpageshadow="2"
     inkscape:pageopacity="0.0"
     inkscape:pagecheckerboard="0"
     inkscape:deskcolor="#d1d1d1"
     inkscape:document-units="mm"
     inkscape:zoom="1.0267829"
     inkscape:cx="324.80089"
     inkscape:cy="376.41842"
     inkscape:window-width="1920"
     inkscape:window-height="1017"
     inkscape:window-x="1912"
     inkscape:window-y="-8"
     inkscape:window-maximized="1"
     inkscape:current-layer="layer1" /><defs
     id="defs1"><linearGradient
       id="linearGradient16"
       inkscape:collect="always"><stop
         style="stop-color:#9f0c0e;stop-opacity:0.28753993;"
         offset="0"
         id="stop16" /><stop
         style="stop-color:#e6c611;stop-opacity:0;"
         offset="1"
         id="stop17" /></linearGradient><linearGradient
       inkscape:collect="always"
       xlink:href="#linearGradient16"
       id="linearGradient17"
       x1="32.139256"
       y1="119.68368"
       x2="175.07869"
       y2="119.68368"
       gradientUnits="userSpaceOnUse" /></defs><g
     inkscape:label="Слой 1"
     inkscape:groupmode="layer"
     id="layer1"><path
       style="fill:none;stroke:#c81010;stroke-width:0.264583"
       d="m 102.94785,136.29202 c 3.18663,2.95313 -0.42692,-6.39636 0.36442,-6.92392 2.17542,-1.45028 3.76524,0.84871 4.1908,2.55092 0.50376,2.01505 -0.8008,3.60819 1.45767,4.73742 3.24942,1.62471 6.30832,-6.10485 9.65705,-1.63988 4.51965,6.0262 -4.96812,5.74545 -6.01288,7.83497 -0.3071,0.6142 -0.0341,2.92122 0.18221,3.46196 2.386,5.96502 0.58362,0.98366 -2.55093,2.55093 -2.00207,1.00103 2.93959,7.60426 2.18651,9.11043 -0.286,0.572 -9.79581,2.80835 -10.5681,2.55091 -7.237254,-2.41241 2.67422,-13.7862 -1.82209,-16.03435 -3.1548,-1.5774 -6.55945,6.74174 -10.93251,5.28405 -6.161148,-2.05372 12.79952,-9.06551 8.381595,-13.48344 -2.927681,-2.92768 -10.620615,7.23583 -14.030063,3.82638 -0.45303,-0.45303 3.005519,-9.41963 3.097546,-9.47484 2.721383,-1.63283 5.574871,1.67667 7.834969,0.54662 0.750231,-0.37511 0.431736,-4.79487 2.73313,-3.64417 3.748873,1.87444 2.242947,6.95215 5.830673,8.74601 z"
       id="path1" /><path
       style="fill:none;stroke:#c8a410;stroke-width:0.264583;stroke-opacity:1"
       d="m 126.77947,123.42961 c 3.44781,2.28089 11.85337,9.16137 11.85337,18.29541 0,7.59561 -1.11523,11.24933 -4.38059,17.78005 -5.10838,10.21674 -9.53499,10.50072 -20.09919,13.14177 -41.721442,10.43036 -61.643463,-40.78046 -19.326138,-54.88623 4.117046,-1.37235 9.280638,-3.31189 13.657138,-2.06146 5.82991,1.66569 13.21212,4.82572 18.29541,7.73046 z"
       id="path5" /><path
       style="fill:none;stroke:#5ac810;stroke-width:0.264583;stroke-opacity:1"
       d="m 117.50293,126.52179 c 6.58517,0.99247 10.96216,7.23647 14.43018,14.1725 11.17278,22.34556 -33.597363,31.85383 -47.413463,18.03773 -22.298604,-22.2986 11.701076,-42.85133 32.983283,-32.21023 z"
       id="path6" /><image
       width="142.93944"
       height="121.56565"
       preserveAspectRatio="none"
       xlink:href="image31.jpg"
       id="image1-8"
       x="32.139256"
       y="58.900852"
       style="fill:url(#linearGradient17);fill-opacity:1" /><path
       style="fill:none;fill-opacity:0.326478;stroke:#e6c611;stroke-width:0.8;stroke-dasharray:none;stroke-opacity:1"
       d="m 94.56626,105.13436 c 8.79735,0.0391 -8.23844,10.89346 -6.012884,13.11902 3.916884,3.91688 8.188912,-5.65894 10.20368,-3.64418 8.102384,8.10238 -9.855856,24.11781 11.114724,17.12761 3.56241,-1.18747 -5.00313,-11.89291 -2.1865,-13.30123 1.27571,-0.63785 2.95718,0.33609 3.46196,1.09326 4.06677,6.10015 0.40529,-6.75278 0.54663,-7.10614 0.91096,-2.27741 7.90133,-3.34611 9.83926,-5.28405 0.99858,-0.99858 -5.17532,-4.95587 -6.92393,-4.373 -1.55309,0.5177 -5.06486,4.11818 -6.74171,3.27975 -2.37381,-1.1869 0.72948,-7.379122 -3.09755,-9.292637 -4.08001,-2.040006 -1.37915,7.209817 -2.73313,8.563807 -2.046748,2.04675 -5.838502,-8.74993 -7.652758,-9.65706 -0.267211,-0.133604 -14.935076,4.75551 -12.390186,12.39019 1.35573,4.06719 10.805946,-2.32653 12.572394,-2.91534 z"
       id="path13" /><path
       style="fill:none;stroke:#e61111;stroke-width:0.3;stroke-opacity:1"
       d="m 110.03016,81.169787 c 0.64486,0.06391 0.71672,0.436864 3.09218,1.030726 0.66506,0.166267 -0.005,2.571523 0.51536,3.092183 1.91197,1.911972 4.13078,0.261615 6.18437,1.28841 1.60526,0.802632 2.63159,2.26976 3.86522,3.092183 1.39828,0.932182 5.54258,-1.157148 6.69973,0 1.88434,1.884338 -0.93194,4.188769 -0.25768,4.638272 0.83476,0.556509 2.45836,0.65459 3.09218,1.28841 1.06895,1.068949 1.60381,4.038388 2.06146,5.411319 0.78646,2.3594 1.7745,4.83741 2.8345,6.95741 0.49939,0.99879 -0.2736,2.77084 0,3.86523 1.21034,4.84138 0.11903,8.98877 -1.28841,13.91482 -0.45402,1.58907 -0.22842,5.12438 -1.28841,6.18436 -0.9204,0.9204 -2.3467,4.20559 -2.8345,5.669 -0.79165,2.37495 -1.75865,5.88156 -3.60755,7.73046 -0.80887,0.80887 -3.95444,0.55105 -5.15363,1.03073 -1.55352,0.6214 -2.76245,1.92956 -4.3806,2.57682 -5.01186,2.00474 -15.85957,4.2712 -21.38759,3.34986 -1.481791,-0.24697 -2.776021,-1.01903 -4.122909,-1.28841 -2.394873,-0.47897 -3.947782,0.0876 -6.184365,-1.03073 -1.014969,-0.50748 -1.140987,-2.22085 -2.061456,-2.8345 -1.44507,-0.96338 -3.509772,-0.87965 -4.895956,-1.80377 -0.229148,-0.15277 0.115049,-1.83136 0,-2.06145 -1.019614,-2.03924 -3.378041,-2.89086 -4.38059,-4.89596 -0.613275,-1.22655 -0.196974,-3.22845 -0.773046,-4.38059 -0.878332,-1.75667 -2.476294,-3.04829 -3.092183,-4.89596 -4.038362,-12.11508 -1.854449,-28.10564 5.669002,-38.136912 2.549284,-3.399049 7.463719,-4.014406 11.080319,-6.184365 5.946187,-3.567713 13.649134,-5.155417 20.614554,-3.607546 z"
       id="path3" /><path
       style="fill:none;stroke:#4fe611;stroke-width:0.3;stroke-opacity:1"
       d="m 116.98756,92.507788 c 1.99993,-0.432744 6.35953,3.437443 10.30728,5.411319 0.0333,0.01667 0.20919,1.191427 0.25768,1.28841 0.57054,1.141083 2.07104,2.605553 2.57682,4.122913 0.56415,1.69244 0.4127,6.23671 1.03073,7.47277 0.42184,0.84369 0.58407,3.14373 0.25768,4.12291 -1.20368,3.61105 -0.47841,11.00641 -2.06145,14.1725 -0.90839,1.81677 -1.96159,3.6655 -2.8345,5.41132 -1.58329,3.16657 -8.16407,3.13617 -11.08033,3.86523 -2.13515,0.53379 -3.62427,1.76228 -5.41131,2.8345 -6.31943,3.79166 -8.35689,4.19622 -15.718599,0.51536 -2.925998,-1.46299 -8.102978,-2.23371 -10.049591,-5.15363 -1.989199,-2.9838 -5.399188,-7.1787 -6.442046,-10.30728 -1.391367,-4.1741 -2.752209,-12.18253 -1.546093,-17.007 0.574754,-2.29901 1.847339,-4.52125 3.092183,-6.69973 1.672711,-2.927244 3.121459,-6.37567 5.926682,-8.245819 3.249888,-2.16659 7.896172,-2.476918 11.853365,-3.607546 5.851229,-1.67178 15.019659,-2.415341 19.841499,1.803773 z"
       id="path4" /></g></svg>
