<?xml version="1.0" encoding="UTF-8" standalone="no"?>
<!-- Created with Inkscape (http://www.inkscape.org/) -->

<svg
   width="210mm"
   height="297mm"
   viewBox="0 0 210 297"
   version="1.1"
   id="svg1"
   xml:space="preserve"
   inkscape:version="1.4.2 (f4327f4, 2025-05-13)"
   sodipodi:docname="annotation.svg"
   xmlns:inkscape="http://www.inkscape.org/namespaces/inkscape"
   xmlns:sodipodi="http://sodipodi.sourceforge.net/DTD/sodipodi-0.dtd"
   xmlns:xlink="http://www.w3.org/1999/xlink"
   xmlns="http://www.w3.org/2000/svg"
   xmlns:svg="http://www.w3.org/2000/svg"><sodipodi:namedview
     id="namedview1"
     pagecolor="#ffffff"
     bordercolor="#000000"
     borderopacity="0.25"
     inkscape:showpageshadow="2"
     inkscape:pageopacity="0.0"
     inkscape:pagecheckerboard="0"
     inkscape:deskcolor="#d1d1d1"
     inkscape:document-units="mm"
     inkscape:zoom="2.0535659"
     inkscape:cx="454.08818"
     inkscape:cy="886.01978"
     inkscape:window-width="1920"
     inkscape:window-height="1017"
     inkscape:window-x="-8"
     inkscape:window-y="-8"
     inkscape:window-maximized="1"
     inkscape:current-layer="layer3" /><defs
     id="defs1" /><g
     inkscape:label="Слой 1"
     inkscape:groupmode="layer"
     id="layer1"><image
       width="91.28125"
       height="69.849998"
       preserveAspectRatio="none"
       xlink:href="image36.png"
       id="image1"
       x="59.39896"
       y="201.08333" /></g><g
     inkscape:groupmode="layer"
     id="layer2"
     inkscape:label="muscularis"><path
       d="m 95.046395,215.96666 c -4.574356,-0.24347 -9.303452,2.17122 -12.717053,10.27793 -6.146527,9.83444 -1.58947,26.99907 9.792167,30.79295 6.410761,2.13692 20.166951,-0.40092 23.062161,-5.6689 0.53647,-0.97612 0.32015,-3.17119 2.11356,-4.10673 3.29671,-1.71975 0.89048,-5.9026 1.66708,-9.55446 0.98038,-4.61011 -0.87958,-9.51392 -3.90932,-11.8494 -3.64701,-2.81129 -6.95004,-3.44824 -10.30738,-5.92677 -2.67928,-1.97796 -6.143383,-3.77525 -9.701215,-3.96462 z m -2.519226,10.28826 c 1.211049,-0.0327 2.517123,0.37621 4.618839,0.37621 3.736392,0 11.209422,2.31899 13.786242,8.50335 2.57682,6.18437 -4.63823,8.76145 -6.82853,10.17871 -2.1903,1.41725 -9.663574,1.2883 -11.596188,1.2883 -1.932615,0 -5.797794,-3.09231 -6.828524,-6.69985 -1.030726,-3.60755 1.222289,-10.17394 3.865397,-12.36876 1.15636,-0.96023 2.040837,-1.25254 2.982764,-1.27796 z"
       style="fill:none;fill-opacity:0.245283;stroke:#db1a1a;stroke-width:0.264583;stroke-dasharray:0.264583, 0.264583"
       id="path5" /></g><g
     inkscape:groupmode="layer"
     id="layer3"
     inkscape:label="mucosa"><path
       d="m 92.527169,226.25492 c -0.941927,0.0254 -1.826404,0.31773 -2.982764,1.27796 -2.643108,2.19482 -4.896123,8.76121 -3.865397,12.36876 1.03073,3.60754 4.895909,6.69985 6.828524,6.69985 1.932614,0 9.405888,0.12895 11.596188,-1.2883 2.1903,-1.41726 9.40535,-3.99434 6.82853,-10.17871 -2.57682,-6.18436 -10.04985,-8.50335 -13.786242,-8.50335 -2.101716,0 -3.40779,-0.40888 -4.618839,-0.37621 z m 0.882633,5.01468 c 1.932611,0 3.607532,0.90176 3.607532,0.90176 0,0 5.153746,-1.03068 6.313306,1.15962 1.15957,2.19029 3.86496,3.86528 1.80351,5.15369 -2.06146,1.2884 -4.50942,-0.38673 -7.601602,-0.64441 -3.092183,-0.25768 -5.024568,0.25755 -6.570658,0.90176 -1.546093,0.6442 -1.417467,0.12888 -1.030945,-2.83446 0.386525,-2.96334 1.546242,-4.63796 3.478857,-4.63796 z"
       style="fill:none;fill-opacity:0.245283;stroke:#db1a1a;stroke-width:0.264583;stroke-dasharray:0.264583, 0.264583"
       id="path6" /></g></svg>
