<?xml version="1.0" encoding="UTF-8" standalone="no"?>
<!-- Created with Inkscape (http://www.inkscape.org/) -->

<svg
   width="210mm"
   height="297mm"
   viewBox="0 0 210 297"
   version="1.1"
   id="svg1"
   xml:space="preserve"
   inkscape:version="1.4.2 (f4327f4, 2025-05-13)"
   sodipodi:docname="annotation.svg"
   xmlns:inkscape="http://www.inkscape.org/namespaces/inkscape"
   xmlns:sodipodi="http://sodipodi.sourceforge.net/DTD/sodipodi-0.dtd"
   xmlns:xlink="http://www.w3.org/1999/xlink"
   xmlns="http://www.w3.org/2000/svg"
   xmlns:svg="http://www.w3.org/2000/svg"><sodipodi:namedview
     id="namedview1"
     pagecolor="#ffffff"
     bordercolor="#000000"
     borderopacity="0.25"
     inkscape:showpageshadow="2"
     inkscape:pageopacity="0.0"
     inkscape:pagecheckerboard="0"
     inkscape:deskcolor="#d1d1d1"
     inkscape:document-units="mm"
     inkscape:zoom="2.0535659"
     inkscape:cx="454.08819"
     inkscape:cy="886.01979"
     inkscape:window-width="1920"
     inkscape:window-height="1017"
     inkscape:window-x="-8"
     inkscape:window-y="-8"
     inkscape:window-maximized="1"
     inkscape:current-layer="layer1" /><defs
     id="defs1" /><g
     inkscape:label="Слой 1"
     inkscape:groupmode="layer"
     id="layer1"><image
       width="91.28125"
       height="69.849998"
       preserveAspectRatio="none"
       xlink:href="image36.png"
       id="image1"
       x="59.39896"
       y="201.08333" /><path
       style="fill:none;stroke:#db1a1a;stroke-width:0.264583;stroke-dasharray:0.264583, 0.264583;fill-opacity:0.24528302;stroke-opacity:1"
       d="m 89.544444,227.53308 c -2.643108,2.19482 -4.895955,8.76118 -3.865229,12.36873 1.03073,3.60754 4.895956,6.69973 6.828571,6.69973 1.932614,0 9.405384,0.12884 11.595684,-1.28841 2.1903,-1.41726 9.40539,-3.99407 6.82857,-10.17844 -2.57682,-6.18436 -10.04959,-8.5035 -13.785981,-8.5035 -3.736385,0 -4.958507,-1.29293 -7.601615,0.90189 z"
       id="path1"
       sodipodi:nodetypes="zsssssz" /><path
       style="fill:none;fill-opacity:0.245283;stroke:#db1a1a;stroke-width:0.264583;stroke-dasharray:0.264583, 0.264583;stroke-opacity:1"
       d="m 97.017217,232.17135 c 0,0 5.153643,-1.03073 6.313203,1.15957 1.15957,2.19029 3.86523,3.86523 1.80378,5.15364 -2.06146,1.2884 -4.50944,-0.38653 -7.601617,-0.64421 -3.092183,-0.25768 -5.024797,0.25768 -6.570887,0.90189 -1.546093,0.6442 -1.417252,0.12884 -1.03073,-2.8345 0.386525,-2.96334 1.546093,-4.63827 3.478708,-4.63827 1.932611,0 3.607543,0.90188 3.607543,0.90188 z"
       id="path2" /><path
       style="fill:none;fill-opacity:0.245283;stroke:#db1a1a;stroke-width:0.264583;stroke-dasharray:0.264583, 0.264583;stroke-opacity:1"
       d="m 82.329352,226.24467 c 6.068625,-14.41192 16.294238,-10.83426 22.418318,-6.31321 3.35734,2.47853 6.66027,3.1154 10.30728,5.92669 3.02974,2.33548 4.88964,7.2393 3.90926,11.84941 -0.7766,3.65186 1.62986,7.83476 -1.66685,9.55451 -1.79341,0.93554 -1.5771,3.13046 -2.11357,4.10658 -2.89521,5.26798 -16.651765,7.80592 -23.062526,5.669 -11.381637,-3.79388 -15.938439,-20.95854 -9.791912,-30.79298 z"
       id="path3"
       sodipodi:nodetypes="cssssssc" /></g></svg>
