<?xml version="1.0" encoding="UTF-8" standalone="no"?>
<!-- Created with Inkscape (http://www.inkscape.org/) -->

<svg
   width="210mm"
   height="297mm"
   viewBox="0 0 210 297"
   version="1.1"
   id="svg1"
   xml:space="preserve"
   inkscape:version="1.4.2 (f4327f4, 2025-05-13)"
   sodipodi:docname="annotation_mri.svg"
   xmlns:inkscape="http://www.inkscape.org/namespaces/inkscape"
   xmlns:sodipodi="http://sodipodi.sourceforge.net/DTD/sodipodi-0.dtd"
   xmlns:xlink="http://www.w3.org/1999/xlink"
   xmlns="http://www.w3.org/2000/svg"
   xmlns:svg="http://www.w3.org/2000/svg"><sodipodi:namedview
     id="namedview1"
     pagecolor="#ffffff"
     bordercolor="#000000"
     borderopacity="0.25"
     inkscape:showpageshadow="2"
     inkscape:pageopacity="0.0"
     inkscape:pagecheckerboard="0"
     inkscape:deskcolor="#d1d1d1"
     inkscape:document-units="mm"
     inkscape:zoom="1.4520903"
     inkscape:cx="355.00546"
     inkscape:cy="755.80697"
     inkscape:window-width="1920"
     inkscape:window-height="1017"
     inkscape:window-x="-8"
     inkscape:window-y="-8"
     inkscape:window-maximized="1"
     inkscape:current-layer="svg1" /><defs
     id="defs1" /><g
     inkscape:label="Слой 1"
     inkscape:groupmode="layer"
     id="layer1"
     style="stroke:#f20a0c;stroke-opacity:1"><image
       width="125.75231"
       height="122.78683"
       preserveAspectRatio="none"
       xlink:href="image37.jpg"
       id="image1"
       x="3.3529992"
       y="12.199313"
       style="stroke:#f20a0c;stroke-opacity:1" /><image
       width="132.33197"
       height="134.6734"
       preserveAspectRatio="none"
       xlink:href="image51.jpg"
       id="image1-5"
       x="71.671143"
       y="148.37872"
       style="stroke:#f20a0c;stroke-opacity:1" /><path
       style="fill:none;stroke:#f20a0c;stroke-width:0.264583;stroke-opacity:1"
       d="m 45.369937,43.547852 c 4.60719,-6.271334 18.719707,-10.7325 16.945401,3.461965"
       id="path1" /><path
       style="fill:none;stroke:#f20a0c;stroke-width:0.264583;stroke-opacity:1"
       d="M 95.841716,45.005521 C 83.079401,36.960061 68.280695,27.838283 62.133127,46.280982"
       id="path2" /></g><path
     style="fill:none;stroke:#f20a0c;stroke-width:0.264583;stroke-opacity:1"
     d="m 63.590796,53.933743 c 0.490239,-1.434444 6.906321,2.262907 10.021472,1.639877 0.718852,-0.143772 1.115515,-0.736256 1.639877,-0.911043 2.019401,-0.673134 2.948649,-3.031326 5.101841,-3.461964 2.624254,-0.524851 7.020634,-1.023522 9.657056,-0.364416 5.941052,1.485262 11.449168,8.34925 10.203678,14.576687 -0.862542,4.312727 -5.302777,7.143594 -7.106132,10.750306 -0.224017,0.448032 1.225997,1.789536 1.457669,2.368712 0.875538,2.188845 -0.31895,6.149623 -1.822087,7.65276 -1.772693,1.772693 -3.222207,3.279754 -6.012884,3.279754 -0.87073,0 -1.948656,-0.13158 -2.733127,0.182208 -1.1606,0.46424 -6.717567,5.624317 -7.834969,6.741718 -1.647997,1.647997 -4.860004,0.334603 -6.741718,1.275461 -2.584876,1.292437 -7.06229,3.233627 -10.203683,2.186504 -1.951913,-0.65064 -4.584311,-2.397811 -6.012881,-3.826381 -2.063138,-2.063139 -2.748766,-8.969864 0.728835,-9.839264 5.860883,-1.465223 10.241158,0.619855 15.487729,2.368712 6.569895,2.189964 12.207975,-5.793179 12.207975,-11.479141 0,-4.017455 -4.000029,-6.188671 -6.923926,-8.381595 -0.46174,-0.346306 -0.723611,-1.177828 -1.093253,-1.639877 -2.694077,-3.367598 -2.071671,-4.13139 -6.923926,-5.101842 -1.438611,-0.287721 -2.766597,-0.620995 -4.008588,0 -3.820975,1.910488 7.473421,16.398775 -4.737423,16.398775 -1.017474,0 -2.45545,0.251626 -3.461964,0 -2.514931,-0.628735 -7.629102,-3.525878 -8.199385,-6.377303 -0.866521,-4.332594 -0.494958,-9.162097 2.55092,-12.207975 0.638153,-0.638154 1.756661,-1.06054 2.550919,-1.457669 1.890024,-0.94501 3.576053,-2.397233 5.648468,-2.915338 2.168813,-0.542203 4.443552,-0.550828 6.559507,-1.457666 z"
     id="path5" /><path
     style="fill:none;stroke:#f20a0c;stroke-width:0.264583;stroke-opacity:1"
     d="m 146.4957,204.80245 c 0.7771,-4.56437 -0.18131,-9.47841 0.91105,-13.84785 1.23446,-4.93786 4.87946,-8.03726 -1.27546,-11.11473"
     id="path9" /></svg>
