<?xml version="1.0" encoding="UTF-8" standalone="no"?>
<!-- Created with Inkscape (http://www.inkscape.org/) -->

<svg
   width="210mm"
   height="297mm"
   viewBox="0 0 210 297"
   version="1.1"
   id="svg1"
   xml:space="preserve"
   inkscape:version="1.4.2 (f4327f4, 2025-05-13)"
   sodipodi:docname="annotation_mri.svg"
   xmlns:inkscape="http://www.inkscape.org/namespaces/inkscape"
   xmlns:sodipodi="http://sodipodi.sourceforge.net/DTD/sodipodi-0.dtd"
   xmlns:xlink="http://www.w3.org/1999/xlink"
   xmlns="http://www.w3.org/2000/svg"
   xmlns:svg="http://www.w3.org/2000/svg"><sodipodi:namedview
     id="namedview1"
     pagecolor="#ffffff"
     bordercolor="#000000"
     borderopacity="0.25"
     inkscape:showpageshadow="2"
     inkscape:pageopacity="0.0"
     inkscape:pagecheckerboard="0"
     inkscape:deskcolor="#d1d1d1"
     inkscape:document-units="mm"
     inkscape:zoom="0.72604515"
     inkscape:cx="335.37859"
     inkscape:cy="533.71336"
     inkscape:window-width="1920"
     inkscape:window-height="1017"
     inkscape:window-x="-8"
     inkscape:window-y="-8"
     inkscape:window-maximized="1"
     inkscape:current-layer="layer2" /><defs
     id="defs1" /><g
     inkscape:label="Слой 1"
     inkscape:groupmode="layer"
     id="layer1"
     style="stroke:#f20a0c;stroke-opacity:1"><image
       width="127.85578"
       height="138.85553"
       preserveAspectRatio="none"
       xlink:href="image51.jpg"
       id="image1"
       x="5.3287482"
       y="6.808908" /><image
       width="85.989586"
       height="85.724998"
       preserveAspectRatio="none"
       xlink:href="image37.jpg"
       id="image1-4"
       x="100.47422"
       y="181.02588" /></g><path
     style="stroke:#f20a0c;stroke-opacity:1;fill:none;fill-opacity:0.166181;stroke-width:0.365001;stroke-dasharray:1.46001, 0.365001"
     d="m 83.617765,51.922896 c -0.431996,-4.076287 0.645853,-6.444795 2.576819,-9.66307 0.190656,-0.317764 1.415,-1.742725 1.28841,-1.932614 -0.267245,-0.400868 -4.231677,-2.054762 -4.638276,-2.190295 -0.875969,-0.291992 -1.801791,-1.544773 -2.576816,-2.061456"
     id="path1" /><g
     inkscape:groupmode="layer"
     id="layer2"
     inkscape:label="mesorectal_fascia" /><path
     style="stroke:#f20a0c;stroke-opacity:1;fill:none;fill-opacity:0.166181;stroke-width:0.365001;stroke-dasharray:1.46001, 0.365001"
     d="m 133.22152,200.86301 c -0.10923,0.33273 2.28859,-0.42637 3.47871,-0.12884 1.57772,0.39443 2.51203,1.93188 3.09218,3.09218 0.073,0.14591 -0.14787,1.03073 0.12884,1.03073 0.13029,0 0.29524,-1.75005 0.64421,-2.44798 0.48346,-0.96692 1.63382,-2.34838 2.70566,-2.70566 0.61768,-0.20589 1.43521,0.17893 2.06145,0 1.20461,-0.34417 2.68639,-0.30705 3.60755,0"
     id="path2" /><g
     inkscape:groupmode="layer"
     id="layer3"
     inkscape:label="mesorectal_fascia" /></svg>
