<?xml version="1.0" encoding="UTF-8" standalone="no"?>
<!-- Created with Inkscape (http://www.inkscape.org/) -->

<svg
   width="210mm"
   height="297mm"
   viewBox="0 0 210 297"
   version="1.1"
   id="svg1"
   xml:space="preserve"
   inkscape:version="1.4.2 (f4327f4, 2025-05-13)"
   sodipodi:docname="annotation_mri.svg"
   xmlns:inkscape="http://www.inkscape.org/namespaces/inkscape"
   xmlns:sodipodi="http://sodipodi.sourceforge.net/DTD/sodipodi-0.dtd"
   xmlns:xlink="http://www.w3.org/1999/xlink"
   xmlns="http://www.w3.org/2000/svg"
   xmlns:svg="http://www.w3.org/2000/svg"><sodipodi:namedview
     id="namedview1"
     pagecolor="#ffffff"
     bordercolor="#000000"
     borderopacity="0.25"
     inkscape:showpageshadow="2"
     inkscape:pageopacity="0.0"
     inkscape:pagecheckerboard="0"
     inkscape:deskcolor="#d1d1d1"
     inkscape:document-units="mm"
     inkscape:zoom="1.0267829"
     inkscape:cx="278.05294"
     inkscape:cy="548.8015"
     inkscape:window-width="1920"
     inkscape:window-height="1017"
     inkscape:window-x="1912"
     inkscape:window-y="-8"
     inkscape:window-maximized="1"
     inkscape:current-layer="layer3" /><defs
     id="defs1" /><g
     inkscape:label="Слой 1"
     inkscape:groupmode="layer"
     id="layer1"><image
       width="128.85208"
       height="163.24791"
       preserveAspectRatio="none"
       xlink:href="image12.png"
       id="image1"
       x="40.613544"
       y="66.807297" /><path
       style="fill:none;fill-opacity:0.233962;stroke:#79f20a;stroke-width:0.262124;stroke-dasharray:1.04849601,0.262124;stroke-dashoffset:0;stroke-opacity:1"
       d="m 130.28061,139.93567 c -4.70744,13.73625 -9.50598,27.44482 -13.6686,41.18016"
       id="path4" /><path
       style="fill:none;fill-opacity:0.233962;stroke:#f2230a;stroke-width:0.264999;stroke-dasharray:1.05999, 0.264999;stroke-dashoffset:0;stroke-opacity:1"
       d="m 115.42915,141.75828 c 0.39977,-0.19203 18.56989,-2.83329 36.07729,-4.91963"
       id="path6"
       sodipodi:nodetypes="cc" /><path
       style="fill:none;fill-rule:evenodd;stroke:#81e611;stroke-width:0.264583px;stroke-linecap:butt;stroke-linejoin:miter;stroke-dasharray:1.05833, 0.264583;stroke-dashoffset:0;stroke-opacity:1"
       d="M 124.81288,202.06932 116.7957,180.93313"
       id="path9"
       inkscape:connector-type="polyline"
       inkscape:connector-curvature="0" /><path
       style="fill:none;fill-opacity:0.233962;stroke:#1fe611;stroke-width:0.264999;stroke-dasharray:2.11999, 0.264999;stroke-dashoffset:0;stroke-opacity:1"
       d="m 122.44417,202.79816 c -1.50481,-3.9436 -4.781,-13.43193 -6.92393,-19.86074 -3.20147,-9.60442 9.52967,-33.66344 13.11902,-42.63681"
       id="path12" /></g><path
     style="fill:none;fill-opacity:0.233962;stroke:#f2230a;stroke-width:0.264999;stroke-dasharray:1.05999601, 0.264999;stroke-dashoffset:0;stroke-opacity:1"
     d="m 94.110735,111.60276 c 2.097921,-2.19471 3.388836,-0.0731 5.101841,1.63988 1.919104,1.9191 4.548754,0.89165 5.648464,4.1908 0.34354,1.0306 -0.53162,2.1254 0,3.18864 0.2374,0.4748 1.12998,0.8077 1.63988,0.63774 0.79136,-0.26379 1.23912,-2.45995 1.82209,-3.18866 1.21592,-1.5199 3.19173,-2.09694 4.82852,-2.91533 2.22062,-1.11031 3.54723,1.04477 5.10184,1.82208 0.64958,0.32479 1.76732,-0.23083 2.45982,0 0.87954,0.29318 0.10887,1.83097 1.00215,2.27761 2.3438,1.1719 5.01987,5.17477 6.74171,7.47055 0.70901,0.94535 2.49409,0.25076 3.18865,1.63988 0.88299,1.76598 0.78785,4.4962 -0.54662,5.83068 -0.63413,0.63412 -1.99643,0.51101 -2.73313,1.00214 -1.01656,0.67771 -0.81329,5.78845 -3.82638,4.2819 -6.3329,-3.16644 -1.64118,-12.25418 -2.64202,-12.7546 -4.98736,-2.49367 -13.30476,-0.13842 -14.6678,-0.81994 -3.06832,-1.53416 -8.111979,-3.46566 -10.476989,-5.83067 -0.763987,-0.76399 -0.540854,-2.91341 -1.63988,-3.27976 -0.599331,-0.19977 -0.718008,2.3633 -1.457666,2.73313 -1.219454,0.60973 -5.555499,2.101 -6.286198,-0.0911 -1.062572,-3.18772 3.324185,-3.14198 4.646318,-4.46411 1.174031,-1.17403 0.552503,-2.59941 2.0954,-3.37086 z"
     id="path5" /><path
     style="fill:none;fill-opacity:0.233962;stroke:#e61411;stroke-width:0.264999;stroke-dasharray:1.0485, 0.262124;stroke-dashoffset:0;stroke-opacity:1"
     d="m 94.053876,102.17086 c 1.914062,-1.77132 4.346939,-1.99841 6.061674,-2.14297 2.66448,-0.224647 5.33388,0.19923 7.5922,1.49116 2.17692,1.24536 3.94606,3.34892 6.31647,3.74399 7.33528,1.22255 15.03223,2.33694 21.12991,7.21509 1.35816,1.08653 1.71719,2.60161 1.8675,4.15416 0.20875,2.15615 0.015,4.38456 1.53574,5.63775 2.03688,1.67848 5.13815,6.20385 5.74918,10.26082 0.21179,1.40618 0.76568,2.75609 -0.005,3.91168 -1.47691,2.21536 -4.56612,0.25124 -5.79784,-1.28841 -0.91796,-1.14744 -0.56381,-2.72213 -1.03073,-4.12291 -2.86383,-8.59149 -5.83379,-14.7352 -13.91482,-19.58382 -3.96043,-2.37626 -19.92834,-4.20975 -20.48571,-4.76711 -0.36803,-0.36804 -4.86934,0.90854 -5.926681,0.6442 -1.909459,-0.47736 -6.151685,-3.40535 -3.092183,-5.15363 z"
     id="path13"
     sodipodi:nodetypes="cssssssssscssscc" /><g
     inkscape:groupmode="layer"
     id="layer2"
     inkscape:label="tumor" /><g
     inkscape:groupmode="layer"
     id="layer3"
     inkscape:label="dentate_line"><path
       style="fill:none;fill-opacity:0.233962;stroke:#f2d50a;stroke-width:0.264999;stroke-dasharray:2.11999202, 0.264999;stroke-dashoffset:0;stroke-opacity:1"
       d="m 100.03252,186.5816 c 12.8133,-3.72488 25.21212,-9.07258 37.53497,-13.66565"
       id="path3" /></g><path
     style="fill:none;fill-opacity:0.233962;stroke:#f2d50a;stroke-width:0.276731;stroke-dasharray:none;stroke-dashoffset:0;stroke-opacity:1"
     d="m 104.79558,208.97873 c 13.60898,-3.86381 26.77166,-9.39086 39.85621,-14.14358"
     id="path3-5" /><g
     inkscape:groupmode="layer"
     id="layer4"
     inkscape:label="margo_analis" /></svg>
