<?xml version="1.0" encoding="UTF-8" standalone="no"?>
<!-- Created with Inkscape (http://www.inkscape.org/) -->

<svg
   width="210mm"
   height="297mm"
   viewBox="0 0 210 297"
   version="1.1"
   id="svg1"
   xml:space="preserve"
   inkscape:version="1.4.2 (f4327f4, 2025-05-13)"
   sodipodi:docname="annotation_mri.svg"
   xmlns:inkscape="http://www.inkscape.org/namespaces/inkscape"
   xmlns:sodipodi="http://sodipodi.sourceforge.net/DTD/sodipodi-0.dtd"
   xmlns:xlink="http://www.w3.org/1999/xlink"
   xmlns="http://www.w3.org/2000/svg"
   xmlns:svg="http://www.w3.org/2000/svg"><sodipodi:namedview
     id="namedview1"
     pagecolor="#ffffff"
     bordercolor="#000000"
     borderopacity="0.25"
     inkscape:showpageshadow="2"
     inkscape:pageopacity="0.0"
     inkscape:pagecheckerboard="0"
     inkscape:deskcolor="#d1d1d1"
     inkscape:document-units="mm"
     inkscape:zoom="1.4520903"
     inkscape:cx="288.89387"
     inkscape:cy="558.84952"
     inkscape:window-width="1920"
     inkscape:window-height="1017"
     inkscape:window-x="-8"
     inkscape:window-y="-8"
     inkscape:window-maximized="1"
     inkscape:current-layer="layer1" /><defs
     id="defs1" /><g
     inkscape:label="Слой 1"
     inkscape:groupmode="layer"
     id="layer1"><image
       width="65.616669"
       height="71.4375"
       preserveAspectRatio="none"
       xlink:href="image30.png"
       id="image1"
       x="85.714684"
       y="66.067101" /><image
       width="76.199997"
       height="71.17292"
       preserveAspectRatio="none"
       xlink:href="image34.png"
       id="image1-9"
       x="13.00584"
       y="175.88896" /><image
       width="64.822914"
       height="60.854168"
       preserveAspectRatio="none"
       xlink:href="image24.png"
       id="image1-1"
       x="126.92628"
       y="213.11705" /><path
       style="fill:none;stroke:#f20a0d;stroke-width:0.365001;stroke-dasharray:none;stroke-dashoffset:0"
       d="m 156.67057,232.9444 c -0.95469,0.47572 -1.91602,0.57148 -2.8345,1.03072 -0.34095,0.17047 -1.15825,0.51141 -1.28841,0.90189 -0.67255,2.01765 0.32164,5.2176 1.41725,6.31321 1.97616,1.97616 6.22166,-2.7599 7.34393,-0.51537 0.6287,1.2574 -0.67076,2.58075 -0.90189,3.73639 -0.37275,1.86375 1.67494,2.73798 1.67494,4.63827 0,1.79039 -3.51028,1.91156 -4.63828,1.15957 -2.27127,-1.51418 -0.85147,-0.87948 -1.54609,-2.96334 -0.40065,-1.20197 -1.14976,-2.04184 -1.67493,-3.09218 -0.72362,-1.44724 -4.04317,-1.84365 -5.41132,-1.15957 -0.78136,0.39068 -1.16059,1.54917 -1.41725,2.31914 -0.16357,0.49072 0,1.28462 0,1.80377 0,2.74651 1.62972,7.35162 4.50943,8.5035 0.5991,0.23964 1.6573,0.75541 2.1903,1.28841 0.57747,0.57747 1.64834,1.27701 2.57682,1.67493 1.56166,0.66929 4.81085,0.17139 6.18436,-0.51536 1.30432,-0.65216 1.72294,-2.09346 2.8345,-2.8345 0.97429,-0.64953 2.03442,-1.26137 2.8345,-2.06146 0.20579,-0.20578 0.41156,-1.10582 0.51537,-1.41725 0.73077,-2.19231 -0.23703,-4.95793 0.51536,-7.21509 0.36008,-1.08023 1.07518,-2.70116 0.64421,-3.99407 -0.85685,-2.57052 -3.82883,-5.57097 -6.44205,-6.44204 -0.83278,-0.2776 -1.4782,-0.62158 -2.31914,-0.90189 -1.42522,-0.47508 -3.2584,0.17338 -4.76711,-0.25768 z"
       id="path1" /><path
       style="fill:none;stroke:#f20a0d;stroke-width:0.365001;stroke-dasharray:1.46000397,0.36500099;stroke-dashoffset:0"
       d="m 170.58539,247.37458 c -0.69675,2.33964 -0.83552,4.95454 -1.54609,7.08625 -0.0285,0.0856 -3.01946,1.85989 -3.34987,2.1903 -1.07868,1.07868 -1.98178,2.57682 -3.86523,2.57682"
       id="path2" /><path
       style="fill:none;stroke:#f20a0d;stroke-width:0.264999;stroke-dasharray:none;stroke-dashoffset:0"
       d="m 127.03715,78.721806 c 0.13654,-0.322844 -2.0249,2.631647 -1.28841,3.736388 0.85092,1.276371 2.60169,1.72467 3.09219,2.705658 0.60202,1.204039 0.48863,2.727579 0.77304,3.865229 0.31758,1.270307 1.7014,2.114378 2.1903,3.092183 0.42395,0.847892 0.86173,1.940981 1.15957,2.8345 0.61485,1.844571 -0.70166,3.778175 -0.38653,5.668996 0.10653,0.63916 0.71173,0.71792 0.90189,1.28841 0.50653,1.51961 0.25768,3.49478 0.25768,5.15364 0,2.65121 -0.65678,5.38807 3.09219,4.63827 0.20768,-0.0415 0.42396,-0.46966 0.51536,-0.51536 0.60567,-0.30284 1.43142,-0.45803 2.06145,-0.77305 0.64231,-0.32115 1.23591,-2.00895 1.80378,-2.57681 0.89569,-0.8957 2.06252,-1.29055 2.70566,-2.57682 0.16035,-0.32072 0.44062,-4.86249 0.25768,-5.411321 -0.7658,-2.297382 -3.59249,-6.35504 -5.0248,-8.503501 -0.59713,-0.895697 -0.70809,-1.964032 -1.28841,-2.8345 -0.64,-0.959998 -2.11504,-1.470843 -2.8345,-2.190298 -0.4107,-0.410702 -0.66601,-1.643216 -1.03072,-2.190295 -1.21143,-1.817134 -4.95992,-4.555246 -6.95742,-5.411319 z"
       id="path4" /><path
       style="fill:none;stroke:#f20a0d;stroke-width:0.264999;stroke-dasharray:none;stroke-dashoffset:0"
       d="m 116.85872,87.740671 c -0.53383,-0.195714 -2.44438,0.139642 -1.93261,1.674932 0.52056,1.561693 3.76571,1.704258 4.76711,2.705661 0.55325,0.553246 0.78598,1.584891 1.03073,2.319136 0.93058,2.791735 -1.84215,3.980365 -2.57682,6.18436 -0.25871,0.77615 -0.19293,9.59964 0.12884,10.56496 0.32327,0.96981 1.55111,2.19531 2.1903,2.8345 0.44706,0.44706 0.64329,2.61916 1.54609,3.22102 0.41787,0.27858 2.16348,0.23087 2.44798,0.51537 0.62937,0.62937 2.0528,0.62189 2.96334,0.25768 1.00378,-0.40151 1.66692,-1.33354 2.57682,-2.06145 0.95265,-0.76213 2.97264,-0.27629 3.60754,-1.5461 1.07588,-2.15175 -0.0118,-5.06011 -0.6442,-6.95741 -0.54767,-1.64301 0.65606,-3.97036 -0.12885,-5.54016 -1.18899,-2.377982 -6.16632,-1.44817 -8.24581,-2.834497 -0.36528,-0.243515 -0.85357,-0.982408 -1.15957,-1.28841 -0.16949,-0.169492 -0.18709,-0.877199 -0.25768,-1.159568 -0.0844,-0.337386 -0.59456,-1.853425 -0.25769,-2.190295 1.02673,-1.026723 3.86461,-1.61145 2.44798,-3.736387 -0.25166,-0.377495 -1.06045,-1.625375 -1.41725,-1.803773 -0.41582,-0.207913 -6.26941,-2.814513 -6.69973,-2.061454 -0.16227,0.28398 -0.25768,0.601258 -0.38652,0.901885 z"
       id="path5" /><path
       style="fill:none;stroke:#f20a0d;stroke-width:0.264999;stroke-dasharray:none;stroke-dashoffset:0"
       d="m 44.276687,203.52699 c 1.930201,-0.14135 2.973207,0.45123 4.008588,2.0043 2.413143,3.61971 -2.476794,9.23859 1.275461,11.11472 1.188485,0.59424 2.141858,-0.50198 2.733127,-1.09325 1.484675,-1.48467 0.540933,-3.82183 2.368714,-5.28405 2.224247,-1.7794 8.633137,-5.21472 11.296931,-2.55092 2.610786,2.61079 -1.232469,6.58613 -2.55092,8.5638 -1.266954,1.90044 -1.844892,4.1339 -3.097546,6.01289 -0.856453,1.28468 -2.93902,1.89861 -4.190798,2.73312 -1.000149,0.66677 -1.579499,1.7919 -2.733128,2.36872 -2.601603,1.3008 -6.755272,0.99537 -9.110429,-0.18221 -2.853976,-1.42699 -4.392279,-4.41155 -5.648465,-6.92393 -0.232519,-0.46503 0,-1.83769 0,-2.36871 0,-4.6233 0.699714,-12.98055 5.648465,-14.39448 z"
       id="path6" /><path
       style="fill:none;stroke:#f2ee0a;stroke-width:0.165;stroke-dasharray:none;stroke-dashoffset:0;stroke-opacity:1"
       d="m 28.060123,218.10368 c -0.51113,-0.59093 -1.413931,0.79807 -2.368712,1.27546 -3.037589,1.51879 -1.444429,6.78396 2.368712,5.83067 4.206356,-1.05158 4.701646,-7.10613 0,-7.10613 z"
       id="path7" /><path
       style="fill:none;stroke:#f2df0a;stroke-width:0.165;stroke-dasharray:none;stroke-dashoffset:0;stroke-opacity:1"
       d="m 51.200613,237.78221 c -0.552299,-0.32243 -2.772818,-0.30489 -4.190796,1.82208 -0.133742,0.20061 0,0.99799 0,1.27546 0,2.45142 6.000334,3.65672 7.288342,2.36871 2.222582,-2.22258 -0.08208,-6.32782 -3.097546,-5.46625 z"
       id="path8" /><path
       style="fill:none;stroke:#f2e10a;stroke-width:0.165;stroke-dasharray:none;stroke-dashoffset:0;stroke-opacity:1"
       d="m 143.39995,85.421535 c -1.89524,0.580985 1.34609,-1.435505 -1.03072,0.644205 -1.04358,0.91313 1.23254,3.828738 2.96334,2.963341 1.98186,-0.990931 1.07135,-4.894958 -1.93262,-3.607546 z"
       id="path9" /><path
       style="fill:none;stroke:#f2ea0a;stroke-width:0.165;stroke-dasharray:none;stroke-dashoffset:0;stroke-opacity:1"
       d="m 131.80427,69.831783 c -0.61696,0.170068 -1.61008,0.450508 -2.06146,0.901887 -1.46109,1.461088 4.26296,2.307932 4.63828,1.932612 1.7135,-1.713505 -0.58419,-3.688482 -2.57682,-2.834499 z"
       id="path10" /></g></svg>
