<?xml version="1.0" encoding="UTF-8" standalone="no"?>
<!-- Created with Inkscape (http://www.inkscape.org/) -->

<svg
   width="210mm"
   height="297mm"
   viewBox="0 0 210 297"
   version="1.1"
   id="svg1"
   xml:space="preserve"
   inkscape:version="1.4.2 (f4327f4, 2025-05-13)"
   sodipodi:docname="annotation_mri.svg"
   xmlns:inkscape="http://www.inkscape.org/namespaces/inkscape"
   xmlns:sodipodi="http://sodipodi.sourceforge.net/DTD/sodipodi-0.dtd"
   xmlns:xlink="http://www.w3.org/1999/xlink"
   xmlns="http://www.w3.org/2000/svg"
   xmlns:svg="http://www.w3.org/2000/svg"><sodipodi:namedview
     id="namedview1"
     pagecolor="#ffffff"
     bordercolor="#000000"
     borderopacity="0.25"
     inkscape:showpageshadow="2"
     inkscape:pageopacity="0.0"
     inkscape:pagecheckerboard="0"
     inkscape:deskcolor="#d1d1d1"
     inkscape:document-units="mm"
     inkscape:zoom="0.51339145"
     inkscape:cx="8.7652414"
     inkscape:cy="604.80166"
     inkscape:window-width="1920"
     inkscape:window-height="1017"
     inkscape:window-x="1912"
     inkscape:window-y="-8"
     inkscape:window-maximized="1"
     inkscape:current-layer="layer9" /><defs
     id="defs1"><inkscape:path-effect
       effect="spiro"
       id="path-effect8"
       is_visible="true"
       lpeversion="1" /><inkscape:path-effect
       effect="spiro"
       id="path-effect7"
       is_visible="true"
       lpeversion="1" /><inkscape:path-effect
       effect="spiro"
       id="path-effect6"
       is_visible="true"
       lpeversion="1" /><inkscape:path-effect
       effect="spiro"
       id="path-effect7-1"
       is_visible="true"
       lpeversion="1" /><inkscape:path-effect
       effect="spiro"
       id="path-effect7-2"
       is_visible="true"
       lpeversion="1" /><inkscape:path-effect
       effect="spiro"
       id="path-effect7-2-2"
       is_visible="true"
       lpeversion="1" /></defs><g
     inkscape:label="Слой 1"
     inkscape:groupmode="layer"
     id="layer1"><image
       width="98.95417"
       height="124.35416"
       preserveAspectRatio="none"
       xlink:href="image23.png"
       id="image1"
       x="9.2815189"
       y="162.23515" /><image
       width="116.15208"
       height="125.4125"
       preserveAspectRatio="none"
       xlink:href="image26.png"
       id="image1-4"
       x="45.505878"
       y="14.66365" /><image
       width="106.3625"
       height="125.14792"
       preserveAspectRatio="none"
       xlink:href="image5.png"
       id="image1-7"
       x="125.4706"
       y="162.02048" /></g><g
     inkscape:groupmode="layer"
     id="layer8"
     inkscape:label="tumor"><path
       style="fill:none;fill-opacity:0.350943;stroke:#f20a16;stroke-width:0.365001;stroke-dasharray:1.46001, 0.365001"
       d="m 82.358286,192.41228 c 3.61203,6.3288 -3.826383,9.23433 -3.826383,14.57668 0,1.75851 8.141398,5.9259 10.750309,9.83927 3.763126,5.64469 -6.457477,13.40326 -11.296933,8.5638 -1.159399,-1.1594 0.185494,-3.36593 -0.728835,-4.73742 -1.160552,-1.74083 -3.66564,-2.39018 -5.101841,-3.82638 -6.746288,-6.74629 -4.512794,-18.24207 3.461964,-22.22945 2.762036,-1.38102 3.305884,-3.33178 6.741719,-2.1865 z"
       id="path2" /><path
       style="fill:none;fill-opacity:0.350943;stroke:#f20a16;stroke-width:0.365001;stroke-dasharray:1.46001, 0.365001"
       d="m 166.17423,186.21719 c 0.009,6.29873 12.17713,5.40455 15.30553,11.66134 0.71381,1.42763 -1.45767,2.78367 -1.45767,4.1908 0,1.40632 0.50008,3.87292 -0.54662,4.91963 -2.68619,2.68618 -6.43823,2.06522 -8.92823,4.55522 -0.44856,0.44856 3.22241,6.00271 2.55092,8.01718 -1.92499,5.77497 -6.44133,0.97013 -9.47484,-0.54663 -3.43765,-1.71883 -1.64612,3.82222 -4.91964,1.63988 -5.69688,-3.79792 7.00666,-9.09367 7.83498,-10.75031 1.13466,-2.26933 3.55266,-7.99954 2.00429,-10.20368 -2.50459,-3.56536 -6.35607,-7.67865 -5.48867,-10.335 0.72739,-2.22763 -0.0742,-3.14843 3.11995,-3.14843 z"
       id="path4"
       sodipodi:nodetypes="cssssssssssc" /><path
       style="fill:none;fill-opacity:0.350943;stroke:#f20a16;stroke-width:0.365001;stroke-dasharray:1.46001, 0.365001"
       d="m 190.04356,184.57731 c -4.46574,-0.75042 -11.33187,2.46689 -4.373,7.10613 0.38701,0.25801 0.91104,8.48651 0.91104,9.11043 0,4.02865 -4.05884,-0.62833 -4.73742,0.72883 -1.27025,2.54049 2.2726,6.2051 1.09325,8.56381 -0.0976,0.19512 -5.69908,-0.83513 -8.56381,3.46196 -3.65952,5.48928 9.40531,14.07642 13.30123,11.47914 5.60861,-3.73907 0.74762,-8.73791 1.45767,-13.48343 0.59362,-3.96736 2.96176,-7.93132 4.1908,-11.84356 1.01692,-3.23705 -2.60727,-4.48571 -3.82638,-6.92393 -1.50063,-3.00125 3.51073,-4.74125 0.54662,-8.19938 z"
       id="path5"
       sodipodi:nodetypes="csssssssssc" /><path
       style="fill:none;fill-opacity:0.350943;stroke:#f20a16;stroke-width:0.365001;stroke-dasharray:1.46001, 0.365001"
       d="m 57.031289,197.87853 c 1.649693,-2.01215 6.387216,-3.44213 7.834971,-0.54662 2.394532,4.78906 0.594569,12.12165 2.915338,16.76319 2.786136,5.57227 10.077077,8.7614 7.47055,16.58098 -0.882357,2.64707 -8.372541,11.86166 -11.296933,6.01288 -2.447502,-4.89501 7.042885,-7.65653 3.279756,-13.30123 -0.992611,-1.48891 -2.735828,-0.24384 -4.190799,-0.72883 -3.198227,-1.06607 0,-7.00091 0,-10.20368 0,-4.68331 -8.490055,-11.10865 -6.012883,-14.57669 z"
       id="path3" /><path
       style="fill:none;fill-opacity:0.350943;stroke:#f20a16;stroke-width:0.365001;stroke-dasharray:1.46001, 0.365001"
       d="m 104.22332,66.323929 c 1.51877,1.920576 13.65715,3.262773 16.03435,8.017176 1.38432,2.768645 -0.17962,5.368685 -1.09325,7.652761 -3.01614,7.540344 6.43063,16.861851 -5.83067,19.314114 -1.85189,0.37038 -6.01488,1.23671 -7.65277,0.18221 -4.40805,-2.837971 -0.54321,-14.501097 2.73313,-21.136201 0.86865,-1.759159 4.42624,0.986801 5.46626,-1.09325 1.53562,-3.071233 -4.2491,-6.882625 -6.55951,-7.652761 -11.72182,-3.907274 3.52192,21.051321 -8.746012,23.504908 -2.037654,0.40753 -4.283985,0.08902 -5.830676,-1.457669 -5.751406,-5.751409 1.556721,-33.001245 11.479148,-27.331288 z"
       id="path1"
       sodipodi:nodetypes="csssssssssc" /></g><g
     inkscape:groupmode="layer"
     id="layer9"
     inkscape:label="orientation_of_slices"><path
       style="fill:none;fill-opacity:0.350943;stroke:#d6f20a;stroke-width:0.365001;stroke-dasharray:none;stroke-opacity:1"
       d="M 38.992638,198.06074 94.930676,175.28466"
       id="path6-1"
       inkscape:path-effect="#path-effect7-1"
       inkscape:original-d="M 38.992638,198.06074 C 56.170803,187.44846 77.27824,184.11088 94.930676,175.28466"
       transform="matrix(0.84730664,0,0,0.83439595,24.001437,79.65055)" /><path
       style="fill:none;fill-opacity:0.350943;stroke:#e5f20a;stroke-width:0.365001;stroke-dasharray:none;stroke-opacity:1"
       d="M 38.992638,198.06074 94.930676,175.28466"
       id="path6"
       inkscape:path-effect="#path-effect7"
       inkscape:original-d="M 38.992638,198.06074 C 56.170803,187.44846 77.27824,184.11088 94.930676,175.28466"
       transform="matrix(0.86358743,0,0,0.83431417,6.7657001,34.846509)" /><path
       style="fill:none;fill-opacity:0.350943;stroke:#e6f20a;stroke-width:0.365001;stroke-dasharray:none;stroke-opacity:1"
       d="m 61.751086,160.56744 24.455518,56.67007"
       id="path6-6-2"
       inkscape:path-effect="#path-effect7-2-2"
       inkscape:original-d="m 61.751086,160.56744 c 21.105102,-19.84616 12.890062,51.18325 24.455518,56.67007"
       transform="matrix(0.96074352,0,0,1.1031665,18.351081,0.29591286)"
       sodipodi:nodetypes="cc" /><path
       style="fill:none;fill-opacity:0.350943;stroke:#d8f20a;stroke-width:0.365001;stroke-dasharray:none;stroke-opacity:1"
       d="m 61.751086,160.56744 24.455518,56.67007"
       id="path6-6"
       inkscape:path-effect="#path-effect7-2"
       inkscape:original-d="m 61.751086,160.56744 c 21.105102,-19.84616 12.890062,51.18325 24.455518,56.67007"
       transform="matrix(0.96074352,0,0,1.1031665,-15.383212,12.187021)"
       sodipodi:nodetypes="cc" /></g></svg>
