<?xml version="1.0" encoding="UTF-8" standalone="no"?>
<!-- Created with Inkscape (http://www.inkscape.org/) -->

<svg
   width="210mm"
   height="297mm"
   viewBox="0 0 210 297"
   version="1.1"
   id="svg1"
   xml:space="preserve"
   inkscape:version="1.4.2 (f4327f4, 2025-05-13)"
   sodipodi:docname="annotation_mri.svg"
   xmlns:inkscape="http://www.inkscape.org/namespaces/inkscape"
   xmlns:sodipodi="http://sodipodi.sourceforge.net/DTD/sodipodi-0.dtd"
   xmlns:xlink="http://www.w3.org/1999/xlink"
   xmlns="http://www.w3.org/2000/svg"
   xmlns:svg="http://www.w3.org/2000/svg"><sodipodi:namedview
     id="namedview1"
     pagecolor="#ffffff"
     bordercolor="#000000"
     borderopacity="0.25"
     inkscape:showpageshadow="2"
     inkscape:pageopacity="0.0"
     inkscape:pagecheckerboard="0"
     inkscape:deskcolor="#d1d1d1"
     inkscape:document-units="mm"
     inkscape:zoom="1.4520903"
     inkscape:cx="489.98329"
     inkscape:cy="808.14531"
     inkscape:window-width="1920"
     inkscape:window-height="1017"
     inkscape:window-x="-8"
     inkscape:window-y="-8"
     inkscape:window-maximized="1"
     inkscape:current-layer="layer1" /><defs
     id="defs1" /><g
     inkscape:label="Слой 1"
     inkscape:groupmode="layer"
     id="layer1"><image
       width="98.95417"
       height="124.35416"
       preserveAspectRatio="none"
       xlink:href="image23.png"
       id="image1"
       x="10.010353"
       y="162.41736" /><image
       width="116.15208"
       height="125.4125"
       preserveAspectRatio="none"
       xlink:href="image26.png"
       id="image1-4"
       x="45.505878"
       y="14.66365" /><image
       width="106.3625"
       height="125.14792"
       preserveAspectRatio="none"
       xlink:href="image5.png"
       id="image1-7"
       x="125.4706"
       y="162.02048" /><path
       style="fill:none;stroke:#f20a16;stroke-width:0.264583"
       d="m 100.88245,72.795124 c -9.027309,-0.41484 -6.673571,6.247802 -9.018869,12.111048 -0.496986,1.242462 -1.372026,2.441146 -1.803773,3.736387 -0.360259,1.080776 -0.216289,2.303106 -0.515364,3.349863 -1.060524,3.711835 -0.469405,8.333218 3.221025,10.178438 1.905733,0.95286 2.409277,-0.42192 3.736385,-1.41726 1.092139,-0.8191 3.025322,-0.54391 3.865226,-1.803768 1.05915,-1.58872 1.67493,-11.520461 1.67493,-14.172502 0,-0.983922 -0.51576,-3.606951 0,-4.380592 0.95709,-1.435635 4.96693,-1.979078 6.44205,-1.159568 1.61352,0.896403 3.72135,3.508771 2.70566,5.54016 -0.77928,1.558555 -5.24964,1.22273 -6.18436,3.092183 -0.3299,0.659791 -1.04338,5.590733 -1.28841,6.570887 -0.53521,2.140821 -1.95146,4.107114 -2.31914,6.3132 -0.57045,3.42268 2.14473,5.3931 4.76711,6.44205 0.98966,0.39587 2.79617,0.12884 3.86523,0.12884 2.81258,0 3.72725,-1.9189 5.0248,-3.86522 1.0177,-1.52656 2.28858,-2.43601 2.96334,-4.122914 1.47559,-3.688985 -0.77305,-8.453421 -0.77305,-11.982206 0,-1.993062 3.51831,-2.467867 0.90189,-6.828571 -1.22539,-2.042318 -2.97662,-2.530594 -5.0248,-3.349863 -1.76115,-0.704463 -3.3189,-2.351765 -5.15363,-2.963341 -2.38925,-0.796417 -4.53456,-1.133729 -7.08625,-1.417251 z"
       id="path1" /><path
       style="fill:none;stroke:#f20a16;stroke-width:0.264583"
       d="m 81.629447,200.42944 c -0.741203,-0.0642 1.346939,4.41226 0.364416,6.37731 -1.215511,2.43102 -6.711717,3.91637 -5.466257,7.65276 1.542629,4.62788 11.170976,0.94039 12.572394,10.7503 0.139721,0.97805 0.547733,2.91349 0,3.82638 -1.693077,2.8218 -4.554122,3.82638 -8.017179,3.82638 -0.50246,0 -1.731325,-0.22758 -2.186504,0 -0.762261,0.38113 -3.041316,1.30358 -4.190796,0.72884 -0.636836,-0.31842 0.33926,-0.0252 -0.18221,-0.54663 -0.16949,-0.16949 -1.613279,0 -1.822085,0 -1.203698,0 -4.495872,-0.63564 -3.097546,-2.73313 1.109887,-1.66483 6.96219,-0.98757 7.652761,-2.36871 1.406525,-2.81305 -3.541533,-3.0026 -4.919631,-3.46196 -1.18858,-0.39619 -1.468154,-1.03951 -2.368711,-1.63988 -0.929834,-0.61989 -1.822088,-4.46662 -1.822088,-5.83067 0,-2.04878 -1.485852,-4.65287 -0.728834,-6.92393 0.663686,-1.99105 11.371952,-7.2225 14.21227,-9.65706 z"
       id="path3" /><path
       style="fill:none;stroke:#f20a16;stroke-width:0.264583"
       d="m 54.480367,206.26012 c 3.007709,-2.16931 7.378628,-5.10348 9.657056,-0.54663 0.421841,0.84369 -0.236794,2.25955 0.182208,3.09755 0.404032,0.80806 1.060892,1.57516 1.457669,2.36871 0.563493,1.12699 0.481856,2.60359 1.09325,3.82638 0.952934,1.90587 -0.74576,5.06799 0.182211,6.92393 1.127987,2.25598 4.67143,1.98853 5.466257,4.373 0.732187,2.19656 -2.219957,3.53386 -3.644172,4.00859 -1.724187,0.57473 -2.060115,-0.88752 -2.915338,-1.45767 -1.042453,-0.69496 -3.201387,0.26058 -4.190797,-0.72883 -2.857362,-2.85736 1.535967,-7.86058 -0.182208,-11.29693 -0.474792,-0.94958 -1.15694,-2.27982 -2.004295,-2.91534 -2.232462,-1.67435 -8.115832,-4.13644 -5.101841,-7.65276 z"
       id="path4" /><path
       style="fill:none;stroke:#f20a16;stroke-width:0.264583"
       d="m 165.62761,188.7681 c 2.44978,-0.75199 4.50475,3.586 5.46625,3.82638 2.2718,0.56795 4.90306,-2.92639 7.10614,-1.45767 1.59238,1.06159 2.99248,8.17809 2.55092,10.38589 -0.22479,1.12395 -1.19936,2.06432 -1.45767,3.09754 -0.50394,2.01575 0.73182,3.82265 -0.72883,5.64847 -0.34794,0.43492 -0.71114,0.67753 -1.27546,0.72883 -1.22238,0.11113 -2.82688,-0.21169 -4.00859,0.18221 -0.31767,0.10589 -0.55036,0.54663 -0.91105,0.54663 -0.39533,0 -1.0259,3.31343 -0.36441,3.64417 0.56634,0.28317 1.23744,0.3264 1.63987,0.72883 0.84565,0.84565 -2.86959,8.45758 -4.19079,8.01718 -1.29899,-0.43299 -8.14133,-4.38103 -8.56381,-5.64846 -1.25107,-3.75323 2.82025,-4.27792 4.73743,-6.1951 0.84417,-0.84417 2.17015,-7.58735 2.55092,-9.11043 0.18233,-0.72935 0.30397,-3.21843 0,-3.82638 -0.752,-1.50398 -2.82712,-1.64564 -3.46197,-2.91533 -1.29088,-2.58177 -2.66843,-6.63006 0.91105,-7.65276 z"
       id="path5" /><path
       style="fill:none;stroke:#f20a16;stroke-width:0.264583"
       d="m 189.31472,186.03497 c -1.04601,-1.03904 -6.16999,-2.62623 -7.65276,1.82208 -0.82945,2.48836 2.93996,1.53155 3.46196,3.09755 0.37761,1.1328 -0.54662,6.72822 -0.54662,8.5638 0,0.71339 1.85627,3.42779 1.27546,4.00859 -1.80031,1.80031 -3.44475,-2.56814 -4.00859,-2.00429 -0.24263,0.24262 -0.0468,7.19968 -0.72883,8.5638 -1.30905,2.6181 -7.28835,0.87753 -7.28835,6.92393 0,1.75178 0.3444,2.89531 1.45767,4.00859 1.26603,1.26602 3.42004,1.41574 4.55521,2.55091 2.93284,2.93284 8.10857,2.64119 9.47485,-1.45766 0.95426,-2.86277 -1.11664,-5.76049 -0.18221,-8.56381 0.70225,-2.10674 2.89215,-3.05117 3.64417,-4.55521 0.65461,-1.30921 -1.27545,-3.33119 -1.27545,-4.73742 0,-2.27302 1.90101,-3.97839 1.45766,-6.1951 -0.34,-1.70003 -3.35061,-1.85247 -4.00859,-3.82638 -1.05128,-3.15384 1.82387,-5.28049 0.36442,-8.19938 z"
       id="path6" /></g></svg>
