<?xml version="1.0" encoding="UTF-8" standalone="no"?>
<!-- Created with Inkscape (http://www.inkscape.org/) -->

<svg
   width="210mm"
   height="297mm"
   viewBox="0 0 210 297"
   version="1.1"
   id="svg1"
   xml:space="preserve"
   inkscape:version="1.4.2 (f4327f4, 2025-05-13)"
   sodipodi:docname="annotation_ct.svg"
   xmlns:inkscape="http://www.inkscape.org/namespaces/inkscape"
   xmlns:sodipodi="http://sodipodi.sourceforge.net/DTD/sodipodi-0.dtd"
   xmlns:xlink="http://www.w3.org/1999/xlink"
   xmlns="http://www.w3.org/2000/svg"
   xmlns:svg="http://www.w3.org/2000/svg"><sodipodi:namedview
     id="namedview1"
     pagecolor="#ffffff"
     bordercolor="#000000"
     borderopacity="0.25"
     inkscape:showpageshadow="2"
     inkscape:pageopacity="0.0"
     inkscape:pagecheckerboard="0"
     inkscape:deskcolor="#d1d1d1"
     inkscape:document-units="mm"
     showgrid="false"
     inkscape:zoom="4.1071317"
     inkscape:cx="424.26202"
     inkscape:cy="540.88842"
     inkscape:window-width="1920"
     inkscape:window-height="1017"
     inkscape:window-x="-8"
     inkscape:window-y="-8"
     inkscape:window-maximized="1"
     inkscape:current-layer="layer1" /><defs
     id="defs1" /><g
     inkscape:label="Слой 1"
     inkscape:groupmode="layer"
     id="layer1"><image
       width="49.741665"
       height="39.952084"
       preserveAspectRatio="none"
       xlink:href="image2.png"
       id="image1"
       x="80.168755"
       y="128.45522" /><image
       width="51.329166"
       height="39.952084"
       preserveAspectRatio="none"
       xlink:href="image29.png"
       id="image1-8"
       x="79.375"
       y="70.877304" /><path
       style="fill:none;fill-opacity:0.245283;stroke:#db1a1a;stroke-width:0.264583;stroke-dasharray:0.264583, 0.264583;stroke-opacity:1"
       d="m 98.757053,89.464416 c -0.06182,-0.05464 -0.143181,1.136629 0.546627,1.366565 0.88436,0.294788 2.53906,-3.941204 3.46196,-2.095399 0.76042,1.520846 -2.25818,5.475972 -3.917483,4.646318 -1.298154,-0.649076 -3.057355,-5.029829 -0.0911,-3.917484 z"
       id="path1" /><path
       style="fill:none;fill-opacity:0.245283;stroke:#db1a1a;stroke-width:0.264583;stroke-dasharray:0.264583, 0.264583;stroke-opacity:1"
       d="m 101.67239,94.657361 c 5.13874,-10.651667 10.53441,2.379943 5.37515,4.099692 -2.64349,0.881166 -8.720315,-2.845255 -5.37515,-4.099692 z"
       id="path2" /><path
       style="fill:none;fill-opacity:0.245283;stroke:#db1a1a;stroke-width:0.264583;stroke-dasharray:0.264583, 0.264583;stroke-opacity:1"
       d="m 103.78137,95.98649 c 0.42344,0.05711 0.3242,-0.777242 0.70862,-1.54609 0.97778,-1.955543 3.4102,-0.76078 2.77008,1.159568 -0.41978,1.259362 -3.4787,2.386614 -3.4787,0.386522 z"
       id="path6" /><path
       style="fill:none;fill-opacity:0.245283;stroke:#db1a1a;stroke-width:0.264583;stroke-dasharray:0.264583, 0.264583;stroke-opacity:1"
       d="m 100.49592,150.55062 c 0.38653,-1.54609 -1.803769,3.47871 -1.159564,3.47871 0.644205,0 1.868194,1.35283 1.997034,1.54609 0.12884,0.19326 0.66012,1.7106 0.3221,2.19029 -0.25967,0.36849 3.98157,0.21923 3.54313,10e-6 l 0.83746,-1.41725 0.90189,0.0644 1.22399,-1.22399 -0.45094,-1.61051 -1.41725,0.25768 0.3221,-0.90189 1.48167,-0.25768 0.25768,-2.12588 c 0,0 0.90189,-1.80377 0.77304,-2.38355 -0.12884,-0.57979 -1.99703,-2.31914 -1.99703,-2.31914 l -2.12587,-0.51536 -0.96631,-0.12885 c 0,0 -2.25472,1.09515 -2.25472,1.61052 0,0.51536 -1.28841,3.73638 -1.28841,3.73638 z"
       id="path11"
       sodipodi:nodetypes="sssscccccccccscccscs" /><path
       style="fill:none;fill-opacity:0.245283;stroke:#db1a1a;stroke-width:0.264583;stroke-dasharray:0.264583, 0.264583;stroke-opacity:1"
       d="m 102.87948,150.22852 c 0,0 0.25768,1.09515 0.12884,1.48167 -0.12884,0.38652 -0.90188,1.22399 -0.90188,1.22399 0,0 0.12884,1.61051 0.9663,1.41725 0.83747,-0.19326 1.86819,0.25768 2.38356,-0.25768 0.51536,-0.51536 0,-1.15957 0,-1.15957 l -0.0644,-0.96631 c 0,0 0.25768,-0.12884 0.70862,-0.45094 0.45095,-0.3221 0.90189,-1.15957 0.77305,-1.41725 -0.12884,-0.25768 -0.45094,-0.83747 -0.45094,-1.22399 0,-0.38652 0.0644,-1.28841 0.0644,-1.28841 0,0 -0.57979,-0.77304 -0.83747,-0.70862 -0.25768,0.0644 -1.22399,-0.3221 -1.22399,-0.3221 l -0.3221,0.19326 -0.12884,2.12587 z"
       id="path12" /></g></svg>
