<?xml version="1.0" encoding="UTF-8" standalone="no"?>
<!-- Created with Inkscape (http://www.inkscape.org/) -->

<svg
   width="210mm"
   height="297mm"
   viewBox="0 0 210 297"
   version="1.1"
   id="svg1"
   xml:space="preserve"
   inkscape:version="1.4.2 (f4327f4, 2025-05-13)"
   sodipodi:docname="annotation_mri.svg"
   xmlns:inkscape="http://www.inkscape.org/namespaces/inkscape"
   xmlns:sodipodi="http://sodipodi.sourceforge.net/DTD/sodipodi-0.dtd"
   xmlns:xlink="http://www.w3.org/1999/xlink"
   xmlns="http://www.w3.org/2000/svg"
   xmlns:svg="http://www.w3.org/2000/svg"><sodipodi:namedview
     id="namedview1"
     pagecolor="#ffffff"
     bordercolor="#000000"
     borderopacity="0.25"
     inkscape:showpageshadow="2"
     inkscape:pageopacity="0.0"
     inkscape:pagecheckerboard="0"
     inkscape:deskcolor="#d1d1d1"
     inkscape:document-units="mm"
     inkscape:zoom="1.4520903"
     inkscape:cx="529.9257"
     inkscape:cy="638.73436"
     inkscape:window-width="1920"
     inkscape:window-height="1017"
     inkscape:window-x="-8"
     inkscape:window-y="-8"
     inkscape:window-maximized="1"
     inkscape:current-layer="layer1" /><defs
     id="defs1" /><g
     inkscape:label="Слой 1"
     inkscape:groupmode="layer"
     id="layer1"><image
       width="170.12709"
       height="180.97501"
       preserveAspectRatio="none"
       xlink:href="image16.png"
       id="image1"
       x="19.976038"
       y="57.943748" /><path
       style="fill:none;stroke:#f20a16;stroke-width:0.264583"
       d="m 113.51595,178.38221 c -2.29421,-1.19095 -5.30986,6.32569 -3.64417,9.65705 0.69773,1.39547 1.6131,2.835 2.1865,4.55522 0.40086,1.20257 -0.40086,2.80601 0,4.00858 1.10238,3.30715 2.0269,6.44513 3.09755,9.65706 0.68166,2.04499 2.39554,3.33342 3.27975,5.10184 0.7244,1.44879 1.53605,5.97395 3.09755,6.55951 0.7184,0.2694 1.66686,0.13047 2.36871,0.36442 7.16324,2.38774 5.77085,-3.57184 9.83926,-6.01289 2.63136,-1.57881 7.71468,0.55016 5.83068,-5.10184 -0.4426,-1.32779 -1.35143,-2.70285 -2.0043,-4.00859 -1.09186,-2.18372 -1.47899,-4.48426 -2.73313,-6.74171 -1.22501,-2.20502 -3.87357,-4.60897 -4.373,-7.10614 -0.35587,-1.77934 -0.87392,-3.68472 -0.54663,-5.64847 0.45822,-2.74929 2.25833,-6.41584 0.91104,-9.11042 -0.72644,-1.4529 -3.47921,-2.39088 -4.91963,-2.55092 -5.42121,-0.60236 -5.83682,-0.1607 -7.28834,4.91963 -0.31881,1.11582 -0.54663,1.07104 -0.54663,2.36871 0,0.62202 0.40825,4.14697 0,4.55522 -0.80345,0.80345 -4.34309,-5.22384 -4.55521,-5.46626 z"
       id="path4" /></g></svg>
