<?xml version="1.0" encoding="UTF-8" standalone="no"?>
<!-- Created with Inkscape (http://www.inkscape.org/) -->

<svg
   width="210mm"
   height="297mm"
   viewBox="0 0 210 297"
   version="1.1"
   id="svg1"
   xml:space="preserve"
   inkscape:version="1.4.2 (f4327f4, 2025-05-13)"
   sodipodi:docname="annotation_mri.svg"
   xmlns:inkscape="http://www.inkscape.org/namespaces/inkscape"
   xmlns:sodipodi="http://sodipodi.sourceforge.net/DTD/sodipodi-0.dtd"
   xmlns:xlink="http://www.w3.org/1999/xlink"
   xmlns="http://www.w3.org/2000/svg"
   xmlns:svg="http://www.w3.org/2000/svg"><sodipodi:namedview
     id="namedview1"
     pagecolor="#ffffff"
     bordercolor="#000000"
     borderopacity="0.25"
     inkscape:showpageshadow="2"
     inkscape:pageopacity="0.0"
     inkscape:pagecheckerboard="0"
     inkscape:deskcolor="#d1d1d1"
     inkscape:document-units="mm"
     inkscape:zoom="1.0267829"
     inkscape:cx="423.16638"
     inkscape:cy="350.1227"
     inkscape:window-width="1920"
     inkscape:window-height="1017"
     inkscape:window-x="-8"
     inkscape:window-y="-8"
     inkscape:window-maximized="1"
     inkscape:current-layer="layer1" /><defs
     id="defs1"><inkscape:path-effect
       effect="spiro"
       id="path-effect8"
       is_visible="true"
       lpeversion="1" /><inkscape:path-effect
       effect="spiro"
       id="path-effect7"
       is_visible="true"
       lpeversion="1" /><inkscape:path-effect
       effect="spiro"
       id="path-effect6"
       is_visible="true"
       lpeversion="1" /><inkscape:path-effect
       effect="spiro"
       id="path-effect5"
       is_visible="true"
       lpeversion="1" /><inkscape:path-effect
       effect="spiro"
       id="path-effect1"
       is_visible="true"
       lpeversion="1" /><inkscape:path-effect
       effect="spiro"
       id="path-effect7-8"
       is_visible="true"
       lpeversion="1" /><inkscape:path-effect
       effect="spiro"
       id="path-effect8-9"
       is_visible="true"
       lpeversion="1" /></defs><g
     inkscape:label="Слой 1"
     inkscape:groupmode="layer"
     id="layer1"><image
       width="170.12709"
       height="200.10543"
       preserveAspectRatio="none"
       xlink:href="image16.png"
       id="image1"
       x="19.976038"
       y="57.943748" /></g><path
     style="fill:none;fill-opacity:0.350943;stroke:#f0f20a;stroke-width:0.365001;stroke-dasharray:none;stroke-dashoffset:0;stroke-opacity:1"
     d="M 91.992425,182.95412 147.13634,164.91639"
     id="path6"
     inkscape:path-effect="#path-effect7"
     inkscape:original-d="m 91.992425,182.95412 c 18.011995,-5.76886 37.674485,-10.55083 55.143915,-18.03773"
     transform="matrix(0.87876303,0,0,0.87382808,7.7958939,24.909086)" /><path
     style="fill:none;fill-opacity:0.350943;stroke:#f0f20a;stroke-width:0.365001;stroke-dasharray:none;stroke-dashoffset:0;stroke-opacity:1"
     d="M 91.992425,182.95412 147.13634,164.91639"
     id="path6-6"
     inkscape:path-effect="#path-effect7-8"
     inkscape:original-d="m 91.992425,182.95412 c 18.011995,-5.76886 37.674485,-10.55083 55.143915,-18.03773"
     transform="matrix(0.93936886,0,0,0.94396023,16.747964,61.215085)" /><path
     style="fill:none;fill-opacity:0.350943;stroke:#f0f20a;stroke-width:0.365001;stroke-dasharray:none;stroke-dashoffset:0;stroke-opacity:1"
     d="m 89.930969,175.99671 28.602691,70.60483"
     id="path7-9"
     inkscape:path-effect="#path-effect8-9"
     inkscape:original-d="m 89.930969,175.99671 c 7.804541,23.98018 22.215731,46.65376 28.602691,70.60483"
     transform="matrix(0.78592021,0,0,0.89453627,57.931526,6.4120884)" /><path
     style="fill:none;fill-opacity:0.350943;stroke:#f0f20a;stroke-width:0.365001;stroke-dasharray:none;stroke-dashoffset:0;stroke-opacity:1"
     d="m 89.930969,175.99671 28.602691,70.60483"
     id="path7"
     inkscape:path-effect="#path-effect8"
     inkscape:original-d="m 89.930969,175.99671 c 7.804541,23.98018 22.215731,46.65376 28.602691,70.60483"
     transform="matrix(0.78592021,0,0,0.89453627,20.252576,18.548007)" /><g
     inkscape:groupmode="layer"
     id="layer10"
     inkscape:label="orientation_of_slices"><path
       style="fill:none;fill-opacity:0.350943;stroke:#f2120a;stroke-width:0.365001;stroke-dasharray:1.46001, 0.365001;stroke-dashoffset:0;stroke-opacity:1"
       d="m 126.00643,214.39131 c 0.25768,-0.34358 1.11662,-0.77304 0.77305,-1.03073 -0.34358,-0.25768 -0.87721,1.44738 -0.77305,1.03073 0.18633,-0.74532 0.74541,-1.34814 1.03073,-2.06145 0.0787,-0.19667 0.36424,-4.7894 0.25768,-4.89596 -0.39775,-0.39775 -2.34478,-1.85507 -2.57682,-2.31914 -0.11531,-0.23062 -0.12262,-1.41103 -0.25768,-1.54609 -0.69461,-0.6946 -0.34994,-0.69989 -0.77305,-1.54609 -0.26964,-0.53929 0.22255,-1.50509 0,-2.06146 -0.0902,-0.22556 -0.3806,-0.31321 -0.51536,-0.51536 -0.22246,-0.33368 0.12983,-1.15661 0,-1.54609 -0.52055,-1.56164 -1.77924,-3.01857 -2.31914,-4.63827 -0.39897,-1.19692 -0.64885,-2.20425 -1.03072,-3.34987 -0.0955,-0.28657 -1.01164,-1.38861 -1.28841,-1.80377 -1.24852,-1.87278 -1.5461,-4.18427 -1.5461,-6.44205 0,-0.33428 -0.19862,-2.4775 0,-2.57682 0.15366,-0.0768 0.36172,0.0768 0.51537,0 0.0888,-0.0444 0.42606,-0.94142 0.51536,-1.03072 0.53051,-0.53051 3.10656,-0.31497 3.60755,-0.51537 0.22557,-0.0902 0.31322,-0.3806 0.51536,-0.51536 1.12944,-0.75296 4.2358,0.66588 4.89596,1.54609 0.33596,0.44796 0.97692,1.07886 1.28841,1.54609 0.17178,0.25768 0.18375,0.9927 0.25768,1.28841 0.13261,0.53045 0.38275,1.01564 0.51536,1.54609 0.4168,1.6672 -0.54164,3.78638 0,5.41132 0.66787,2.00362 0.57304,4.29592 1.28841,6.44205 0.27708,0.83123 0.84525,2.46354 1.28841,3.34986 0.1385,0.277 0.59304,0.26336 0.77305,0.51537 0.70709,0.98993 1.38682,2.08023 2.06145,3.09218 0.63466,0.95199 -1.45755,-0.94219 0.25768,0.77304 0.21899,0.21899 0.60126,0.25769 0.77305,0.51537 0.19645,0.29467 0.12615,0.7019 0.25768,1.03073 0.22985,0.57461 0.77881,1.17397 1.03073,1.80377 0.79707,1.99267 1.03073,3.761 1.03073,5.92668 0,0.36239 0.18806,1.68534 0,2.06146 -0.57345,1.14688 -4.39116,3.10274 -5.41132,4.1229 -1.30915,1.30916 0.79976,4.43834 -2.06146,5.15364 -1.23335,0.30834 -3.57689,0.0961 -4.63827,-0.25768 -1.36436,-0.45479 -3.2916,0.0194 -4.89596,-0.51536 -0.36266,-0.12089 -0.94777,0.17032 -1.28841,0 -1.12218,-0.56109 -2.94903,-1.58905 -3.60754,-2.57682 -0.26981,-0.40471 -0.43618,-1.98227 -0.77305,-2.31914 -0.13581,-0.13581 -0.37955,-0.12187 -0.51536,-0.25768 -0.14695,-0.14695 -0.13173,-0.84179 -0.25768,-1.03073 -0.30803,-0.46204 -1.39398,-2.12046 -1.54609,-2.57681 -0.52823,-1.5847 0.3709,-4.92719 -0.25769,-6.18437 -0.25025,-0.5005 -0.37611,-0.73143 -0.51536,-1.28841 -0.5873,-2.34919 -2.88404,-2.93358 -3.86523,-4.89596 -0.39974,-0.79948 -0.86208,-1.72417 -1.28841,-2.57681 -0.50822,-1.01644 0.27646,-3.01709 0,-4.12291 -0.42346,-1.69386 -1.33905,-6.85614 -0.51536,-8.5035 0.0859,-0.17179 0.40883,-0.0979 0.51536,-0.25769 0.16389,-0.24583 0.0938,-1.04258 0.25769,-1.28841 0.10653,-0.1598 0.37955,-0.12187 0.51536,-0.25768 0.19285,-0.19285 0.10371,-0.8249 0.51536,-1.03073 1.6609,-0.83044 3.51483,0.16497 4.63828,1.28841 1.01844,1.01845 2.02405,2.97999 2.57681,4.63828 0.18072,0.54214 0.16006,1.01313 0.51537,1.54609 0.59536,0.89304 1.19113,1.1425 1.80377,2.06145 0.15455,0.23183 0.68021,1.71094 0.77305,1.80378 0.0607,0.0607 0.23052,-0.0815 0.25768,0 0.54024,1.62071 0.74636,3.2698 1.28841,4.89595 0.11524,0.34572 0.5709,0.46983 0.77304,0.77305 0.55996,0.83994 0.44608,2.36896 0.77305,3.34986 0.18454,0.55363 0.58606,1.24281 0.77304,1.80377 0.10718,0.32154 -0.18643,1.00877 0,1.28841 0.62231,0.93346 0.81649,1.86894 1.28841,2.57682 0.10654,0.15981 0.42948,0.0859 0.51537,0.25769 0.34357,0.68714 -0.34358,1.88966 0,2.57681 0.43797,0.87595 1.23454,1.52222 1.80377,2.31914 z"
       id="path4" /></g><g
     inkscape:groupmode="layer"
     id="layer11"
     inkscape:label="tumor" /></svg>
