<?xml version="1.0" encoding="UTF-8" standalone="no"?>
<!-- Created with Inkscape (http://www.inkscape.org/) -->

<svg
   width="210mm"
   height="297mm"
   viewBox="0 0 210 297"
   version="1.1"
   id="svg1"
   xml:space="preserve"
   inkscape:version="1.4.2 (d1939eabb2, 2025-08-14)"
   sodipodi:docname="annotation_mri.svg"
   xmlns:inkscape="http://www.inkscape.org/namespaces/inkscape"
   xmlns:sodipodi="http://sodipodi.sourceforge.net/DTD/sodipodi-0.dtd"
   xmlns:xlink="http://www.w3.org/1999/xlink"
   xmlns="http://www.w3.org/2000/svg"
   xmlns:svg="http://www.w3.org/2000/svg"><sodipodi:namedview
     id="namedview1"
     pagecolor="#ffffff"
     bordercolor="#000000"
     borderopacity="0.25"
     inkscape:showpageshadow="2"
     inkscape:pageopacity="0.0"
     inkscape:pagecheckerboard="0"
     inkscape:deskcolor="#d1d1d1"
     inkscape:document-units="mm"
     inkscape:zoom="0.72604515"
     inkscape:cx="-32.367133"
     inkscape:cy="636.32406"
     inkscape:window-width="2494"
     inkscape:window-height="1518"
     inkscape:window-x="3194"
     inkscape:window-y="397"
     inkscape:window-maximized="1"
     inkscape:current-layer="svg1" /><defs
     id="defs1" /><g
     inkscape:label="Слой 1"
     inkscape:groupmode="layer"
     id="layer1"><image
       width="65.616669"
       height="76.149039"
       preserveAspectRatio="none"
       xlink:href="../staging/tables/image30.png"
       id="image1"
       x="85.714684"
       y="66.067101" /><image
       width="75.770214"
       height="71.17292"
       preserveAspectRatio="none"
       xlink:href="../staging/tables/image34.png"
       id="image1-9"
       x="13.00584"
       y="175.88896" /><image
       width="64.822914"
       height="60.854168"
       preserveAspectRatio="none"
       xlink:href="image24.png"
       id="image1-1"
       x="126.92628"
       y="213.11705" /></g><g
     inkscape:groupmode="layer"
     id="layer16"
     inkscape:label="lymph_node"><path
       style="fill:none;fill-opacity:0.233962;stroke:#f2dd0a;stroke-width:0.165;stroke-dasharray:0.660003, 0.165;stroke-dashoffset:0"
       d="m 48.55859,229.0362 c -0.239581,-0.0377 1.588526,-1.14074 2.824234,-0.72883 0.857279,0.28576 2.095399,1.16752 2.095399,2.09539 0,6.51229 -10.097987,0.35956 -4.919633,-1.36656 z"
       id="path4" /><path
       style="fill:none;fill-opacity:0.233962;stroke:#f2dd0a;stroke-width:0.165;stroke-dasharray:0.66000356, 0.165;stroke-dashoffset:0"
       d="m 137.38528,87.004603 c -4.58091,1.842395 3.34565,5.390648 1.82209,0.819939 -0.29575,-0.887217 -0.91313,-0.933559 -1.82209,-0.819939 z"
       id="path1" /><path
       style="fill:none;fill-opacity:0.233962;stroke:#f2dd0a;stroke-width:0.165;stroke-dasharray:0.660003, 0.165;stroke-dashoffset:0"
       d="m 31.339877,213.45737 c 1.140661,-0.0713 2.257351,0.0776 3.097546,0.63773 2.469374,1.64625 -1.715093,5.42865 -4.190796,4.19079 -2.592581,-1.29629 -1.652255,-4.82852 1.09325,-4.82852 z"
       id="path3" /><path
       style="fill:none;fill-opacity:0.233962;stroke:#f2dd0a;stroke-width:0.165;stroke-dasharray:0.66000356, 0.165;stroke-dashoffset:0"
       d="m 127.72822,75.798774 c -0.22904,-0.132024 -0.91932,-0.08282 -1.54877,0.546627 -0.21945,0.219445 0.23734,0.60176 0.36442,0.728834 2.48709,2.487094 6.3489,-1.8493 1.18435,-1.275461 z"
       id="path2" /></g><g
     inkscape:groupmode="layer"
     id="layer19"
     inkscape:label="tumor_part_2"><path
       style="fill:none;fill-opacity:0.233962;stroke:#f2ef0a;stroke-width:0.264999;stroke-dasharray:none;stroke-dashoffset:0;stroke-opacity:1"
       d="m 147.13634,244.66893 c 0,-0.17179 0.17179,-0.51536 0,-0.51536 -0.17178,0 -0.10731,0.6495 0,0.51536 0.26424,-0.33029 0.30995,-0.78982 0.51537,-1.15957 0.40013,-0.72024 1.98759,-0.16549 2.70566,-0.6442 1.05967,-0.70646 0.68955,-4.48676 4.76711,-2.44798 1.51751,0.75875 0.54368,3.30598 1.03073,4.76711 0.17899,0.53696 1.28092,2.20527 1.67493,1.41725"
       id="path12" /><path
       style="fill:none;fill-opacity:0.233962;stroke:#f2ef0a;stroke-width:0.264999;stroke-dasharray:none;stroke-dashoffset:0;stroke-opacity:1"
       d="m 159.89159,230.49642 c -0.32981,-0.47361 -1.61505,1.44024 -2.70565,1.80378 -0.32817,0.10939 -0.79844,0.74036 -1.03073,1.03073 -1.59068,1.98834 -0.89549,1.84216 -0.51537,4.12291 0.11849,0.71087 0.12647,1.31883 0.77305,1.80377 1.71218,1.28414 5.33358,-3.04108 6.57089,-1.80377 0.13903,0.13903 0.15595,0.69842 0.25768,0.90188"
       id="path13"
       sodipodi:nodetypes="csssssc" /></g><g
     inkscape:groupmode="layer"
     id="layer20"
     inkscape:label="tumor"
     style="display:inline"><path
       style="fill:none;fill-opacity:0.233962;stroke:#5c0af2;stroke-width:0.264999;stroke-dasharray:none;stroke-dashoffset:0;stroke-opacity:1"
       d="m 45.996214,201.89374 c 7.53415,-0.38479 0.260839,7.79725 2.576817,9.53423 3.098575,2.32393 3.451971,-2.53672 4.509433,-4.12291 0.755767,-1.13365 3.974291,-2.22995 5.282478,-2.44798 0.764257,-0.12738 2.567228,-1.25825 3.221024,-0.38652 1.428655,1.90487 -0.603943,4.81543 -1.417251,6.44204 -0.508405,1.01682 -0.526476,2.71678 -1.417251,3.60755 -2.769724,2.76972 -7.181998,8.47159 -12.111048,6.82857 -1.374611,-0.4582 -2.633393,-1.45119 -3.865226,-2.19029 -1.747388,-1.04844 -3.114321,-6.63332 -2.447978,-8.63235 0.689472,-2.06841 1.268301,-4.54369 2.447978,-6.3132 0.439986,-0.65998 0.710824,-1.77267 1.288409,-2.06146 0.509887,-0.25494 1.43528,-0.25768 1.932615,-0.25768 z"
       id="path18" /><path
       style="fill:none;fill-opacity:0.233962;stroke:#5c0af2;stroke-width:0.264999;stroke-dasharray:none;stroke-dashoffset:0;stroke-opacity:1"
       d="m 124.08405,82.358285 c -0.42622,-0.208249 -1.08629,0.749706 -0.63773,2.095398 0.13771,0.413115 2.36603,1.907829 2.64203,2.459816 0.71078,1.421572 0.54112,3.214926 1.00214,4.828527 0.31009,1.085316 2.12698,3.763216 1.54878,4.919633 -0.1385,0.276985 -0.46583,0.470975 -0.63773,0.728835 -0.51162,0.767426 -3.40986,0.77657 -4.37301,0.45552 -0.95615,-0.318717 -2.0061,-1.278171 -2.55092,-2.0954 -0.10305,-0.154569 -0.0528,-0.537271 -0.0911,-0.728832 -0.092,-0.459877 -0.35446,-1.032031 -0.18221,-1.548775 0.27035,-0.811051 3.42263,-0.96021 1.63988,-3.18865 -0.36197,-0.452456 -0.97005,-0.849439 -1.45767,-1.09325 -0.90738,-0.453687 -5.96981,-1.629998 -6.37731,0 -0.63281,2.531247 4.11062,1.945949 4.64633,3.553065 0.18902,0.567085 0.35982,1.95185 0.63772,2.368714 0.76767,1.151501 1.3995,2.35068 2.36871,3.735277 0.26342,0.376309 0.37987,0.926494 0.63773,1.184357 0.38504,0.38503 0.51577,1.60752 0.63774,2.0954 0.21033,0.84134 0.41706,2.08121 0,2.91533 -0.63564,1.27127 -4.91298,3.0131 -2.82424,5.10185 0.80803,0.80802 2.56213,1.54503 3.64417,1.18435 0.66084,-0.22028 1.00348,-1.24553 1.63988,-1.45767 1.02851,-0.34284 2.36543,-0.27167 3.27976,-0.72883 0.80847,-0.40424 1.02246,-1.9689 2.00429,-2.45982 0.83586,-0.41793 2.64762,-0.76293 3.27976,-1.18436 1.06905,-0.7127 2.49553,-3.67628 2.73312,-5.10183 0.41058,-2.463474 -0.51474,-2.578261 -1.36656,-4.281908 -0.2288,-0.457594 -0.0365,-1.202703 -0.36442,-1.639877 -1.2129,-1.617202 -2.09649,-3.342314 -3.09754,-5.010736 -1.6368,-2.727997 -5.00058,-6.260881 -8.3816,-7.106134 z"
       id="path16"
       sodipodi:nodetypes="cssssssscssssssssssssssssssssc" /></g><g
     inkscape:groupmode="layer"
     id="layer21"
     inkscape:label="tumor_part_3"
     style="display:inline"><path
       style="fill:none;fill-opacity:0.233962;stroke:#f20a1e;stroke-width:0.264999;stroke-dasharray:none;stroke-dashoffset:0;stroke-opacity:1"
       d="m 146.87866,244.92661 c 0.25754,1.9147 -0.40876,-2.23936 0,1.03073 0.009,0.0697 2.4231,1.40481 3.22102,1.80377 0.3113,0.15565 0.64789,1.42093 0.90189,1.67493 0.34531,0.34531 0.88333,1.36159 1.03073,1.80378 0.49444,1.48332 3.22466,2.0629 4.50943,2.57682 1.92824,0.77129 5.8047,2.05459 7.60162,0.25768 0.96703,-0.96703 0.68118,-2.63229 1.41725,-3.73639 0.58532,-0.87799 3.02564,-1.413 3.4787,-2.31914 0.6641,-1.3282 -0.65009,-3.8564 0.12884,-5.02479 0.62653,-0.93979 0.55481,-3.04401 0.77305,-3.60755 0.90638,-2.34042 -3.00464,-6.09683 -4.89595,-7.98814 -0.45552,-0.45552 -0.99116,-0.93759 -1.5461,-1.15957 -0.98734,-0.39493 -2.60514,-0.63004 -3.60754,-0.12884"
       id="path15"
       sodipodi:nodetypes="ccsssssssssssc" /></g></svg>
