<?xml version="1.0" encoding="UTF-8" standalone="no"?>
<!-- Created with Inkscape (http://www.inkscape.org/) -->

<svg
   width="210mm"
   height="297mm"
   viewBox="0 0 210 297"
   version="1.1"
   id="svg1"
   xml:space="preserve"
   inkscape:version="1.4.2 (f4327f4, 2025-05-13)"
   sodipodi:docname="annotation_mri.svg"
   xmlns:inkscape="http://www.inkscape.org/namespaces/inkscape"
   xmlns:sodipodi="http://sodipodi.sourceforge.net/DTD/sodipodi-0.dtd"
   xmlns:xlink="http://www.w3.org/1999/xlink"
   xmlns="http://www.w3.org/2000/svg"
   xmlns:svg="http://www.w3.org/2000/svg"><sodipodi:namedview
     id="namedview1"
     pagecolor="#ffffff"
     bordercolor="#000000"
     borderopacity="0.25"
     inkscape:showpageshadow="2"
     inkscape:pageopacity="0.0"
     inkscape:pagecheckerboard="0"
     inkscape:deskcolor="#d1d1d1"
     inkscape:document-units="mm"
     inkscape:zoom="0.72604517"
     inkscape:cx="350.52915"
     inkscape:cy="486.88431"
     inkscape:window-width="1920"
     inkscape:window-height="1017"
     inkscape:window-x="-8"
     inkscape:window-y="-8"
     inkscape:window-maximized="1"
     inkscape:current-layer="svg1" /><defs
     id="defs1" /><g
     inkscape:label="Слой 1"
     inkscape:groupmode="layer"
     id="layer1"><image
       width="157.37106"
       height="159.38742"
       preserveAspectRatio="none"
       xlink:href="image54.png"
       id="image1"
       x="29.269394"
       y="59.62711" /><path
       style="fill:none;stroke:#f20a16;stroke-width:0.264583;stroke-opacity:1"
       d="m 94.311559,120.07974 c -0.354243,-0.8795 0.974391,-7.67412 3.607546,-10.30727 1.935369,-1.93537 5.502585,-1.56434 7.988135,-2.06145 4.869,-0.97381 11.49114,-1.35811 15.46091,1.2884 1.84961,1.23308 3.87249,3.61118 5.92669,4.63828 4.41026,2.20513 10.02025,2.98672 14.43018,5.92668 5.16315,3.4421 6.46461,10.63265 8.24582,15.97628 0.65656,1.96967 -0.64802,5.146 0.25768,6.9574 0.53749,1.07498 0.72817,2.33074 0.51536,3.60755 -0.65181,3.91087 -6.08572,4.7178 -9.01886,6.18437 -4.69965,2.34982 -2.03078,11.21682 -9.79191,9.27654 -1.24818,-0.31204 -8.75658,-5.41592 -9.27655,-4.89595 -3.00482,3.00482 -3.9188,8.47926 -7.73045,11.338 -3.79002,2.84251 -11.12792,0.72545 -14.17251,-2.31914 -1.258587,-1.25859 -1.989458,-4.82396 -4.380585,-7.21509 -2.910748,-2.91075 -9.174716,0.92579 -11.853368,-3.09218 -0.180348,-0.27052 0,-1.49637 0,-1.80377 0,-4.94531 4.480714,-6.38953 8.503502,-7.73046 3.906099,-1.30203 12.591061,-3.65468 15.718591,0.51536 0.653,0.87066 0.4599,5.64127 1.03073,5.92669 0.60657,0.30328 2.20038,0 2.8345,0 4.33169,0 4.19286,-2.99353 7.21509,-5.41132 1.77443,-1.41954 4.72148,-0.93945 5.92668,-3.34987 1.34533,-2.69065 -1.32985,-8.68415 -2.8345,-10.56495 -2.93759,-3.672 -3.79186,-10.28894 -9.01886,-11.59569 -2.1381,-0.53452 -5.38151,-1.36028 -7.73046,-0.77304 -5.13079,1.2827 -7.672053,4.36283 -11.853361,-0.51537 z"
       id="path2" /></g><path
     style="fill:none;stroke:#f20a16;stroke-width:0.264583;stroke-opacity:1"
     d="m 147.22454,94.384047 0.72883,-0.364416"
     id="path3" /><path
     style="fill:none;stroke:#f20a16;stroke-width:0.264583;stroke-opacity:1"
     d="m 168.72515,102.03681 c 3.516,2.77619 7.16219,15.33364 5.46626,25.5092 -0.31748,1.90487 0.11718,4.13865 -0.72884,5.83067 -1.65023,3.30047 -2.12311,9.01535 -4.373,12.39019 -0.69051,1.03577 -1.68412,2.13702 -2.18651,3.64417 -9.57481,28.72445 -23.07994,53.08346 -56.12024,57.2135 -3.57483,0.44685 -6.86952,-0.72884 -10.20368,-0.72884 -7.593406,0 -13.96717,3.03789 -21.500615,-0.72883 -5.223652,-2.61183 -11.592043,-7.21904 -15.669937,-11.29693 -3.586358,-3.58636 -15.50848,-21.78657 -16.398774,-26.23804 -0.742916,-3.71458 -1.74715,-7.79238 -2.915335,-11.29693 -3.30195,-9.90585 -8.457594,-21.40904 -6.55951,-32.79755 1.421574,-8.52945 7.215893,-16.61829 10.568098,-23.3227"
     id="path4" /></svg>
