<?xml version="1.0" encoding="UTF-8" standalone="no"?>
<!-- Created with Inkscape (http://www.inkscape.org/) -->

<svg
   width="210mm"
   height="297mm"
   viewBox="0 0 210 297"
   version="1.1"
   id="svg1"
   xml:space="preserve"
   inkscape:version="1.4.2 (f4327f4, 2025-05-13)"
   sodipodi:docname="annotation_mri.svg"
   xmlns:inkscape="http://www.inkscape.org/namespaces/inkscape"
   xmlns:sodipodi="http://sodipodi.sourceforge.net/DTD/sodipodi-0.dtd"
   xmlns:xlink="http://www.w3.org/1999/xlink"
   xmlns="http://www.w3.org/2000/svg"
   xmlns:svg="http://www.w3.org/2000/svg"><sodipodi:namedview
     id="namedview1"
     pagecolor="#ffffff"
     bordercolor="#000000"
     borderopacity="0.25"
     inkscape:showpageshadow="2"
     inkscape:pageopacity="0.0"
     inkscape:pagecheckerboard="0"
     inkscape:deskcolor="#d1d1d1"
     inkscape:document-units="mm"
     inkscape:zoom="0.72604517"
     inkscape:cx="354.66113"
     inkscape:cy="419.39539"
     inkscape:window-width="1920"
     inkscape:window-height="1017"
     inkscape:window-x="-8"
     inkscape:window-y="-8"
     inkscape:window-maximized="1"
     inkscape:current-layer="layer4" /><defs
     id="defs1" /><g
     inkscape:label="Слой 1"
     inkscape:groupmode="layer"
     id="layer1"><image
       width="157.37106"
       height="159.38742"
       preserveAspectRatio="none"
       xlink:href="image54.png"
       id="image1"
       x="29.269394"
       y="59.62711" /></g><path
     style="fill:none;fill-opacity:0.166181;stroke:#f20a16;stroke-width:0.365001;stroke-dasharray:1.46001, 0.365001;stroke-opacity:1"
     d="m 94.826922,112.34929 c 5.052872,-4.9706 12.677488,-4.78256 19.269098,-5.09906 3.94161,-0.4471 8.45248,-0.54994 11.453,2.49684 2.99108,2.63245 5.95111,5.71224 10.07128,6.39052 4.9386,1.42388 10.97152,2.70063 13.31468,7.88749 2.18564,4.35971 4.8498,8.97364 4.54309,14.00618 -1.17311,6.49119 -8.29399,9.24015 -10.83948,14.99638 -0.88957,3.11345 -2.79141,6.87467 -6.7093,6.34862 -3.72346,-0.0811 -4.60058,-4.49519 -7.95647,-5.40751 -3.39967,-2.11857 -7.59872,0.522 -7.28786,4.44329 0.13561,3.45021 -1.84962,6.7838 -5.59529,6.68417 -3.89938,1.05566 -8.24067,1.19131 -11.86207,-0.78866 -4.621345,-1.03706 -3.851303,-7.4042 -7.72576,-9.21785 -3.033099,-1.45327 -4.84666,2.13933 -1.811976,3.7478 3.217441,2.16256 3.841114,7.94204 -1.238888,7.31515 -5.441983,-0.12257 -8.96473,-5.20969 -10.722927,-9.82621 -1.207052,-3.31116 -1.746539,-6.853 -2.006326,-10.34253 1.800014,-4.19753 7.609787,-2.53076 11.250924,-2.61744 3.946759,0.37177 8.601747,0.81227 11.505473,-2.47775 2.13127,-2.89285 7.17989,-2.70912 7.52583,1.35002 0.73085,2.9094 -0.10122,6.49783 2.38302,8.71832 4.92631,-0.37606 3.64788,-8.71663 9.18038,-8.25442 2.79438,-0.19279 7.20644,-0.19256 7.38456,-3.92933 0.40443,-4.1832 -3.76361,-6.34029 -6.41257,-8.73264 -3.47176,-2.9492 -4.27865,-8.37793 -8.71817,-10.24765 -3.64106,-0.77046 -7.04782,1.57929 -10.51739,2.3683 -3.497955,1.25284 -7.415636,0.0243 -9.47845,-3.10529 -1.815981,-1.92009 -2.419304,-6.13371 1.001592,-6.70674 z"
     id="path1" /><g
     inkscape:groupmode="layer"
     id="layer4"
     inkscape:label="tumor" /><path
     style="fill:none;fill-opacity:0.166181;stroke:#f20a16;stroke-width:0.365001;stroke-dasharray:1.46001, 0.365001;stroke-opacity:1"
     d="m 120.59511,87.611832 c 7.31116,-2.390256 16.98775,0.505764 26.28355,5.153637 2.90972,1.454861 8.10813,-0.561258 11.338,0.515363 2.75371,0.917903 5.19373,4.420685 6.95741,6.184366 3.22848,3.228482 8.02799,2.398842 10.56496,7.472772 10.19421,20.38843 -4.90658,46.40043 -14.94555,63.13205 -3.62091,6.03486 -7.99757,15.05617 -13.65714,19.58383 -8.94684,7.15747 -26.08978,15.76703 -38.65228,12.62641 -2.97189,-0.74298 -5.2147,-2.65254 -8.761182,-2.06146 -14.981097,2.49685 -26.600144,-0.50515 -35.47926,-12.49377 -11.476781,-15.496 -29.365087,-43.06815 -27.652794,-66.0992 0.317794,-4.27447 0.836552,-11.14382 4.12291,-14.43018 22.052091,-22.052089 31.345864,10.25182 48.959552,4.38059 4.988187,-1.66273 10.403774,-5.3879 14.430184,-8.76118 5.25115,-4.399358 11.62909,-10.154533 16.49164,-15.203228 z"
     id="path6"
     sodipodi:nodetypes="csssssssssssssc" /><g
     inkscape:groupmode="layer"
     id="layer5"
     inkscape:label="mesorectal_fascia" /></svg>
