<?xml version="1.0" encoding="UTF-8" standalone="no"?>
<!-- Created with Inkscape (http://www.inkscape.org/) -->

<svg
   width="210mm"
   height="297mm"
   viewBox="0 0 210 297"
   version="1.1"
   id="svg1"
   xml:space="preserve"
   inkscape:version="1.4.2 (f4327f4, 2025-05-13)"
   sodipodi:docname="annotation_mri.svg"
   xmlns:inkscape="http://www.inkscape.org/namespaces/inkscape"
   xmlns:sodipodi="http://sodipodi.sourceforge.net/DTD/sodipodi-0.dtd"
   xmlns:xlink="http://www.w3.org/1999/xlink"
   xmlns="http://www.w3.org/2000/svg"
   xmlns:svg="http://www.w3.org/2000/svg"><sodipodi:namedview
     id="namedview1"
     pagecolor="#ffffff"
     bordercolor="#000000"
     borderopacity="0.25"
     inkscape:showpageshadow="2"
     inkscape:pageopacity="0.0"
     inkscape:pagecheckerboard="0"
     inkscape:deskcolor="#d1d1d1"
     inkscape:document-units="mm"
     inkscape:zoom="1.0267829"
     inkscape:cx="278.05293"
     inkscape:cy="554.64498"
     inkscape:window-width="1920"
     inkscape:window-height="1017"
     inkscape:window-x="-8"
     inkscape:window-y="-8"
     inkscape:window-maximized="1"
     inkscape:current-layer="layer1" /><defs
     id="defs1" /><g
     inkscape:label="Слой 1"
     inkscape:groupmode="layer"
     id="layer1"><image
       width="137.76634"
       height="130.32802"
       preserveAspectRatio="none"
       xlink:href="image35.png"
       id="image1"
       x="37.978493"
       y="80.534119" /><path
       style="fill:none;stroke:#f20a16;stroke-width:0.264583"
       d="m 144.85583,175.28466 c -0.77421,0.0351 -3.82638,0.56018 -3.82638,1.45767 0,1.08775 -0.36442,1.77297 -0.36442,2.91534 0,4.26754 2.46402,3.8481 5.46626,3.09754 0.86779,-0.21695 1.88504,-0.30812 2.36871,-1.27546 1.20991,-2.41981 -0.67498,-7.04343 -3.64417,-6.19509 z"
       id="path1" /><path
       style="fill:none;stroke:#77f20a;stroke-width:0.265;fill-opacity:1;stroke-opacity:1;stroke-dasharray:1.58999991,0.26499999;stroke-dashoffset:0"
       d="m 106.40981,103.85889 c 12.46595,2.00265 22.58567,-7.28834 34.25522,-7.28834 3.47262,0 5.25802,1.067226 7.65276,3.46196 5.73952,5.73952 7.08006,9.50061 8.38159,17.30982 0.50818,3.04909 -0.13984,6.26704 0.36442,9.29264 0.76244,4.57465 0.88795,9.97528 2.91534,14.03006 0.57086,1.14171 0.12628,3.29417 0.54662,4.55521 1.79673,5.39019 3.27976,7.59212 3.27976,14.03006 0,1.07914 0.26213,2.59566 0,3.64418 -1.6793,6.71717 -8.23776,12.06414 -12.93681,16.76319 -1.07593,1.07593 -2.31193,3.01788 -3.64417,3.46196 -1.69674,0.56558 -6.89306,2.02221 -8.3816,2.91534 -0.51258,0.30755 -1.17427,0.80307 -1.82208,0.91104 -2.58266,0.43044 -4.94644,0.25188 -7.47056,1.09325 -5.38276,1.79426 -10.31527,3.89983 -15.85214,5.28405 -2.28968,0.57242 -19.450792,0.37011 -22.411659,0 -3.1823,-0.39779 -5.36416,-2.15247 -8.199385,-3.09755 -7.349966,-2.44998 -16.267636,-3.33082 -21.500613,-8.5638 -2.496764,-2.49676 -4.391617,-6.61534 -5.466259,-9.83926 -0.200592,-0.60178 -1.238409,-1.56578 -1.639877,-2.36871 -1.155629,-2.31126 -2.301955,-4.88351 -2.733128,-7.47056 -1.417066,-8.50238 -0.546457,-18.40391 1.093251,-26.60245 0.276627,-1.38314 0.09573,-2.65591 0.546626,-4.00859 0.363681,-1.09104 -0.0093,-2.85934 0.182208,-4.00859 0.979567,-5.8774 1.494497,-16.6086 6.559511,-20.40736 5.016118,-3.76209 15.055407,-6.35825 21.500612,-5.28405 1.946003,0.32434 4.298609,1.14716 6.012884,2.0043 2.5004,1.2502 15.595759,1.08841 18.767479,0.1822 z"
       id="path2" /></g></svg>
