<?xml version="1.0" encoding="UTF-8" standalone="no"?>
<!-- Created with Inkscape (http://www.inkscape.org/) -->

<svg
   width="210mm"
   height="297mm"
   viewBox="0 0 210 297"
   version="1.1"
   id="svg1"
   xml:space="preserve"
   inkscape:version="1.4.2 (f4327f4, 2025-05-13)"
   sodipodi:docname="annotation_mri.svg"
   xmlns:inkscape="http://www.inkscape.org/namespaces/inkscape"
   xmlns:sodipodi="http://sodipodi.sourceforge.net/DTD/sodipodi-0.dtd"
   xmlns:xlink="http://www.w3.org/1999/xlink"
   xmlns="http://www.w3.org/2000/svg"
   xmlns:svg="http://www.w3.org/2000/svg"><sodipodi:namedview
     id="namedview1"
     pagecolor="#ffffff"
     bordercolor="#000000"
     borderopacity="0.25"
     inkscape:showpageshadow="2"
     inkscape:pageopacity="0.0"
     inkscape:pagecheckerboard="0"
     inkscape:deskcolor="#d1d1d1"
     inkscape:document-units="mm"
     inkscape:zoom="1.0267829"
     inkscape:cx="416.34897"
     inkscape:cy="352.07053"
     inkscape:window-width="1920"
     inkscape:window-height="1017"
     inkscape:window-x="-8"
     inkscape:window-y="-8"
     inkscape:window-maximized="1"
     inkscape:current-layer="svg1" /><defs
     id="defs1"><inkscape:path-effect
       effect="spiro"
       id="path-effect1"
       is_visible="true"
       lpeversion="1" /></defs><g
     inkscape:label="Слой 1"
     inkscape:groupmode="layer"
     id="layer1"><image
       width="137.76634"
       height="130.32802"
       preserveAspectRatio="none"
       xlink:href="image35.png"
       id="image1"
       x="37.978493"
       y="80.534119" /><path
       style="fill:none;fill-opacity:0.350943;stroke:#f2110a;stroke-width:0.365001;stroke-opacity:1"
       d="M 142.49807,162.33957 Z"
       id="path1"
       inkscape:path-effect="#path-effect1"
       inkscape:original-d="m 142.49807,162.33957 c 15.96617,1.38336 -9.99934,9.99935 0,0 z" /></g><path
     style="fill:none;fill-opacity:0.350943;stroke:#edf20a;stroke-width:0.365001;stroke-opacity:1;stroke-dasharray:1.46000397, 0.36500099;stroke-dashoffset:0"
     d="m 102.76565,102.40123 c 12.71391,0.88518 32.6417,-10.914942 46.28098,-1.82209 7.44938,4.96626 4.22801,17.23925 6.74172,24.78037 2.08046,6.24139 8.67446,27.22063 3.27975,32.61534 -3.67163,3.67163 -7.60776,8.17689 -12.39018,10.5681 -9.04275,4.52137 -42.35032,12.06053 -52.840495,8.5638 -3.577116,-1.19237 -6.980322,-2.98351 -10.568098,-4.00859 -2.740358,-0.78296 -8.969907,-0.57789 -11.114725,-2.1865 -4.693899,-3.52043 -10.685301,-7.88717 -13.483436,-13.48344 -7.377266,-14.75453 -10.949938,-43.05035 5.101841,-53.75153 10.674268,-7.116178 26.779725,-2.63245 38.992643,-1.27546 z"
     id="path5" /><g
     inkscape:groupmode="layer"
     id="layer12"
     inkscape:label="mesorectal_fascia" /><path
     style="fill:none;fill-opacity:0.350943;stroke:#f2110a;stroke-width:0.365001;stroke-opacity:1"
     d="m 142.11155,161.56653 c 0.54459,-0.14763 3.38982,0.04 4.76711,1.41725 2.99403,2.99403 -3.32114,7.88802 -5.92668,5.28248 -0.43118,-0.43118 -1.1079,-0.97906 -1.54609,-1.41726 -0.66348,-0.66347 -0.58258,-6.51556 2.70566,-5.28247 z"
     id="path4" /><g
     inkscape:groupmode="layer"
     id="layer13"
     inkscape:label="lymph_node" /></svg>
