<?xml version="1.0" encoding="UTF-8" standalone="no"?>
<!-- Created with Inkscape (http://www.inkscape.org/) -->

<svg
   width="210mm"
   height="297mm"
   viewBox="0 0 210 297"
   version="1.1"
   id="svg1"
   xml:space="preserve"
   inkscape:version="1.4.2 (f4327f4, 2025-05-13)"
   sodipodi:docname="annotatiom_mri.svg"
   xmlns:inkscape="http://www.inkscape.org/namespaces/inkscape"
   xmlns:sodipodi="http://sodipodi.sourceforge.net/DTD/sodipodi-0.dtd"
   xmlns:xlink="http://www.w3.org/1999/xlink"
   xmlns="http://www.w3.org/2000/svg"
   xmlns:svg="http://www.w3.org/2000/svg"><sodipodi:namedview
     id="namedview1"
     pagecolor="#ffffff"
     bordercolor="#000000"
     borderopacity="0.25"
     inkscape:showpageshadow="2"
     inkscape:pageopacity="0.0"
     inkscape:pagecheckerboard="0"
     inkscape:deskcolor="#d1d1d1"
     inkscape:document-units="mm"
     inkscape:zoom="2.0535659"
     inkscape:cx="330.88785"
     inkscape:cy="368.38361"
     inkscape:window-width="1920"
     inkscape:window-height="1017"
     inkscape:window-x="-8"
     inkscape:window-y="-8"
     inkscape:window-maximized="1"
     inkscape:current-layer="layer1" /><defs
     id="defs1" /><g
     inkscape:label="Слой 1"
     inkscape:groupmode="layer"
     id="layer1"><image
       width="94.659897"
       height="88.015312"
       preserveAspectRatio="none"
       xlink:href="image9.png"
       id="image1"
       x="22.725588"
       y="30.993534" /><image
       width="67.58287"
       height="88.674309"
       preserveAspectRatio="none"
       xlink:href="image52.png"
       id="image1-7"
       x="103.31686"
       y="158.57446" /><path
       style="fill:none;stroke:#f20a0d;stroke-width:0.264999;stroke-dasharray:none;stroke-opacity:1"
       d="m 144.8172,179.60425 c 0.17179,0 0.51537,0.17179 0.51537,0 0,-0.17179 -0.68203,-0.0417 -0.51537,0 0.33591,0.084 0.69273,0.0537 1.03073,0.12884 0.15929,0.0354 0.33829,0.38653 0.51536,0.38653 0.68558,0 -0.78905,-5.653 -0.25768,-6.18437 0.98894,-0.98893 3.43485,1.71607 3.73639,2.31914 0.27219,0.54439 0.57886,1.19039 0.90188,1.67493 0.40077,0.60115 0.25137,4.65723 0,5.41132 -0.11711,0.35135 -0.65209,1.27657 -0.38652,1.67493 0.22684,0.34026 0.71725,0.33072 1.03073,0.64421"
       id="path1" /><path
       style="fill:none;stroke:#f20a0d;stroke-width:0.264999;stroke-dasharray:none;stroke-opacity:1"
       d="m 60.684076,75.243102 c -0.434613,0.129135 -1.293175,0.641821 -1.803773,0.386522 -0.281427,-0.140714 -0.128839,-1.850885 -0.128839,-2.190295 0,-4.254532 4.561967,-4.356823 6.055521,-7.343934 0.40362,-0.807233 0.491017,-2.803051 0.257683,-3.736385 -0.393448,-1.573797 -3.104692,-1.674934 -4.380592,-1.674934 -0.532482,0 -1.114523,0.492842 -1.674932,0.773046 -3.70138,1.850692 -3.872113,4.787776 -5.024794,8.245819 -1.712773,5.138309 5.463055,12.522938 3.736385,15.976274"
       id="path3" /><path
       style="fill:none;stroke:#f20a0d;stroke-width:0.065;stroke-dasharray:0.19500001,0.19500001;stroke-opacity:1;stroke-dashoffset:0"
       d="m 55.788123,69.5741 c -0.06224,-0.113308 1.726893,0.978767 2.319136,0.386524 0.405818,-0.405818 -0.04539,-1.538756 0.128839,-2.061456 0.343741,-1.031219 5.036156,-2.565458 3.607546,-3.994068 -1.147167,-1.14717 -5.124992,2.261852 -5.797841,3.607546 -0.312894,0.625787 -0.361307,1.336082 -0.25768,2.061454 z"
       id="path4" /></g></svg>
