<?xml version="1.0" encoding="UTF-8" standalone="no"?>
<!-- Created with Inkscape (http://www.inkscape.org/) -->

<svg
   width="210mm"
   height="297mm"
   viewBox="0 0 210 297"
   version="1.1"
   id="svg1"
   xml:space="preserve"
   inkscape:version="1.4.2 (f4327f4, 2025-05-13)"
   sodipodi:docname="annotatiom_mri.svg"
   xmlns:inkscape="http://www.inkscape.org/namespaces/inkscape"
   xmlns:sodipodi="http://sodipodi.sourceforge.net/DTD/sodipodi-0.dtd"
   xmlns:xlink="http://www.w3.org/1999/xlink"
   xmlns="http://www.w3.org/2000/svg"
   xmlns:svg="http://www.w3.org/2000/svg"><sodipodi:namedview
     id="namedview1"
     pagecolor="#ffffff"
     bordercolor="#000000"
     borderopacity="0.25"
     inkscape:showpageshadow="2"
     inkscape:pageopacity="0.0"
     inkscape:pagecheckerboard="0"
     inkscape:deskcolor="#d1d1d1"
     inkscape:document-units="mm"
     inkscape:zoom="1.4520904"
     inkscape:cx="259.97005"
     inkscape:cy="306.11042"
     inkscape:window-width="1920"
     inkscape:window-height="1017"
     inkscape:window-x="-8"
     inkscape:window-y="-8"
     inkscape:window-maximized="1"
     inkscape:current-layer="layer14" /><defs
     id="defs1" /><g
     inkscape:label="Слой 1"
     inkscape:groupmode="layer"
     id="layer1"><image
       width="94.659897"
       height="88.015312"
       preserveAspectRatio="none"
       xlink:href="image9.png"
       id="image1"
       x="23.885157"
       y="34.987602" /><image
       width="67.58287"
       height="88.674309"
       preserveAspectRatio="none"
       xlink:href="image52.png"
       id="image1-7"
       x="103.31686"
       y="158.57446" /></g><path
     style="fill:none;fill-opacity:0.350943;stroke:#f2110a;stroke-width:0.365001;stroke-dasharray:1.46001, 0.365001;stroke-opacity:1"
     d="m 145.71909,177.41395 c 0.72357,-0.27311 -0.77305,-2.009 -0.77305,-3.34986 0,-11.68389 7.76303,10.02836 2.57682,6.57089 -0.76499,-0.50999 -1.48821,-2.37953 -1.80377,-3.22103 z"
     id="path1" /><path
     style="fill:none;fill-opacity:0.350943;stroke:#f2110a;stroke-width:0.365001;stroke-dasharray:1.46001, 0.365001;stroke-opacity:1"
     d="m 58.62262,76.789192 c -3.238548,-5.457288 2.995221,-6.747545 5.797843,-10.95148 2.729434,-4.094152 -7.736911,-3.340179 -9.791911,-0.25768 -3.944168,5.916252 -0.03242,18.585515 2.190295,16.362796 1.025797,-1.025798 0.745778,-3.742976 1.803773,-5.153636 z"
     id="path2" /><g
     inkscape:groupmode="layer"
     id="layer14"
     inkscape:label="emvi_node" /><path
     style="fill:none;fill-opacity:0.233962;stroke:#f2dd0a;stroke-width:0.065;stroke-dasharray:0.26000117,0.065;stroke-dashoffset:0;stroke-opacity:1"
     d="m 146.4046,172.36932 c -2.101,1.02656 2.82196,2.45868 0.54662,1.32101 -0.0171,-0.009 -0.41226,-1.18665 -0.54662,-1.32101 z"
     id="path4" /><path
     style="fill:none;fill-opacity:0.233962;stroke:#f2dd0a;stroke-width:0.0649999;stroke-dasharray:0.260001, 0.0649999;stroke-dashoffset:0;stroke-opacity:1"
     d="m 57.304601,68.328219 c 0.573958,-1.99798 2.459164,-1.032298 4.555214,-1.730981 1.618208,-0.539403 -1.126035,-2.004295 -1.822087,-2.004295 -1.801892,0 -4.273603,3.080951 -4.919631,4.373006 -0.500589,1.001176 0.725038,9.934163 2.277608,8.381596 1.026623,-1.026623 -3.327699,-8.614752 -0.0911,-9.019326 z"
     id="path5" /><g
     inkscape:groupmode="layer"
     id="layer15"
     inkscape:label="vessels" /></svg>
