<?xml version="1.0" encoding="UTF-8" standalone="no"?>
<!-- Created with Inkscape (http://www.inkscape.org/) -->

<svg
   width="210mm"
   height="297mm"
   viewBox="0 0 210 297"
   version="1.1"
   id="svg1"
   xml:space="preserve"
   inkscape:version="1.4.2 (f4327f4, 2025-05-13)"
   sodipodi:docname="annotation_ct.svg"
   xmlns:inkscape="http://www.inkscape.org/namespaces/inkscape"
   xmlns:sodipodi="http://sodipodi.sourceforge.net/DTD/sodipodi-0.dtd"
   xmlns:xlink="http://www.w3.org/1999/xlink"
   xmlns="http://www.w3.org/2000/svg"
   xmlns:svg="http://www.w3.org/2000/svg"><sodipodi:namedview
     id="namedview1"
     pagecolor="#ffffff"
     bordercolor="#000000"
     borderopacity="0.25"
     inkscape:showpageshadow="2"
     inkscape:pageopacity="0.0"
     inkscape:pagecheckerboard="0"
     inkscape:deskcolor="#d1d1d1"
     inkscape:document-units="mm"
     showgrid="false"
     inkscape:zoom="4.1071317"
     inkscape:cx="475.87955"
     inkscape:cy="126.24382"
     inkscape:window-width="1920"
     inkscape:window-height="1017"
     inkscape:window-x="-8"
     inkscape:window-y="-8"
     inkscape:window-maximized="1"
     inkscape:current-layer="layer1" /><defs
     id="defs1" /><g
     inkscape:label="Слой 1"
     inkscape:groupmode="layer"
     id="layer1"><image
       width="65.616669"
       height="60.060417"
       preserveAspectRatio="none"
       xlink:href="image11.png"
       id="image1"
       x="75.146584"
       y="128.60472" /><image
       width="78.845833"
       height="60.060417"
       preserveAspectRatio="none"
       xlink:href="image57.png"
       id="image1-3"
       x="68.896423"
       y="47.704105" /><path
       style="fill:none;fill-opacity:0.245283;stroke:#db1a1a;stroke-width:0.264583;stroke-dasharray:0.264583, 0.264583;stroke-opacity:1"
       d="m 112.34929,61.457122 c 0.0762,-0.0019 0.99465,0.03608 1.80377,-0.773046 1.48035,-1.480352 -2.49699,-1.908106 -0.6442,-2.8345 2.98576,-1.492882 2.86975,3.191547 2.19029,4.380593"
       id="path2" /><path
       style="fill:none;fill-opacity:0.245283;stroke:#db1a1a;stroke-width:0.264583;stroke-dasharray:0.264583, 0.264583;stroke-opacity:1"
       d="m 102.49296,154.22259 c 0.22227,-0.10266 -0.20611,0.57979 -0.45095,0.57979 -0.62661,0 -0.83759,-0.92332 -1.48167,-0.70863 -1.145535,0.38185 0.20162,2.8178 -0.12884,3.4787 -0.23095,0.4619 -2.084315,1.65207 -1.159565,2.57682 0.788135,0.78813 1.281215,-1.81097 2.641235,-0.45094"
       id="path3" /></g></svg>
