<?xml version="1.0" encoding="UTF-8" standalone="no"?>
<!-- Created with Inkscape (http://www.inkscape.org/) -->

<svg
   width="210mm"
   height="297mm"
   viewBox="0 0 210 297"
   version="1.1"
   id="svg1"
   xml:space="preserve"
   inkscape:version="1.4.2 (f4327f4, 2025-05-13)"
   sodipodi:docname="annotatiom_mri.svg"
   xmlns:inkscape="http://www.inkscape.org/namespaces/inkscape"
   xmlns:sodipodi="http://sodipodi.sourceforge.net/DTD/sodipodi-0.dtd"
   xmlns:xlink="http://www.w3.org/1999/xlink"
   xmlns="http://www.w3.org/2000/svg"
   xmlns:svg="http://www.w3.org/2000/svg"><sodipodi:namedview
     id="namedview1"
     pagecolor="#ffffff"
     bordercolor="#000000"
     borderopacity="0.25"
     inkscape:showpageshadow="2"
     inkscape:pageopacity="0.0"
     inkscape:pagecheckerboard="0"
     inkscape:deskcolor="#d1d1d1"
     inkscape:document-units="mm"
     inkscape:zoom="1.0267829"
     inkscape:cx="805.91523"
     inkscape:cy="322.85305"
     inkscape:window-width="1920"
     inkscape:window-height="1017"
     inkscape:window-x="-8"
     inkscape:window-y="-8"
     inkscape:window-maximized="1"
     inkscape:current-layer="layer1" /><defs
     id="defs1" /><g
     inkscape:label="Слой 1"
     inkscape:groupmode="layer"
     id="layer1"><image
       width="72.231247"
       height="58.208332"
       preserveAspectRatio="none"
       xlink:href="image4.png"
       id="image1"
       x="2.2356143"
       y="6.3577623" /><image
       width="60.589584"
       height="75.935417"
       preserveAspectRatio="none"
       xlink:href="image13.png"
       id="image1-3"
       x="79.482216"
       y="6.9071765" /><image
       width="61.118752"
       height="62.177082"
       preserveAspectRatio="none"
       xlink:href="image17.png"
       id="image1-2"
       x="143.71947"
       y="17.794931" /><image
       width="82.020836"
       height="76.199997"
       preserveAspectRatio="none"
       xlink:href="image19.png"
       id="image1-31"
       x="3.5359168"
       y="86.582245" /><image
       width="83.07917"
       height="74.612503"
       preserveAspectRatio="none"
       xlink:href="image25.png"
       id="image1-5"
       x="102.12822"
       y="90.291336" /><image
       width="73.025002"
       height="61.118752"
       preserveAspectRatio="none"
       xlink:href="image27.png"
       id="image1-6"
       x="6.5761642"
       y="170.76744" /><image
       width="71.4375"
       height="58.208332"
       preserveAspectRatio="none"
       xlink:href="image38.png"
       id="image1-8"
       x="98.109787"
       y="176.59566" /><image
       width="67.20417"
       height="85.989586"
       preserveAspectRatio="none"
       xlink:href="image40.png"
       id="image1-9"
       x="7.3000765"
       y="239.23264" /><image
       width="78.052086"
       height="68.791664"
       preserveAspectRatio="none"
       xlink:href="image46.png"
       id="image1-1"
       x="89.336243"
       y="249.71652" /><image
       width="75.40625"
       height="69.849998"
       preserveAspectRatio="none"
       xlink:href="image50.png"
       id="image1-34"
       x="187.22971"
       y="211.65237" /><image
       width="145.52083"
       height="72.760414"
       preserveAspectRatio="none"
       xlink:href="image62.png"
       id="image1-66"
       x="190.89174"
       y="129.75209" /><path
       style="fill:none;stroke:#f2df0a;stroke-width:0.165;stroke-dasharray:0.33,0.165;stroke-dashoffset:0"
       d="m 37.041767,203.76193 c 0.08322,-0.37709 0.709427,-0.36478 1.417251,-0.12884"
       id="path1" /><path
       style="fill:none;stroke:#f2df0a;stroke-width:0.165;stroke-dasharray:0.33,0.165;stroke-dashoffset:0"
       d="m 36.605052,205.54687 c 0.599856,-0.40987 1.097813,-0.73135 1.790884,-0.73135"
       id="path2" /><path
       style="fill:none;stroke:#f2df0a;stroke-width:0.165;stroke-dasharray:0.33,0.165;stroke-dashoffset:0"
       d="m 36.719663,206.85411 c 0.07888,0.30674 0.981181,-1.28841 1.674934,-1.28841"
       id="path3" /><path
       style="fill:none;stroke:#f2df0a;stroke-width:0.165;stroke-dasharray:0.33,0.165;stroke-dashoffset:0"
       d="m 37.170608,207.62715 c 0.148887,-0.30116 0.507622,-0.57591 1.28841,-0.9663"
       id="path4" /><path
       style="fill:none;stroke:#f2df0a;stroke-width:0.165;stroke-dasharray:0.33,0.165;stroke-dashoffset:0"
       d="m 37.55713,200.2188 c 0.276318,-0.11358 0.482267,0.41785 1.030727,0.96631"
       id="path6" /><path
       style="fill:none;stroke:#f2df0a;stroke-width:0.165;stroke-dasharray:0.33,0.165;stroke-dashoffset:0"
       d="m 38.136914,198.86597 c 0.152831,0.10202 0.793618,-0.0233 1.095148,0.57979"
       id="path9" /><path
       style="fill:none;stroke:#f2df0a;stroke-width:0.165;stroke-dasharray:0.33,0.165;stroke-dashoffset:0"
       d="m 38.909961,197.57756 c 0.421629,-0.16228 0.607618,0.47878 1.223988,1.09515"
       id="path10" /><path
       style="fill:none;stroke:#f2df0a;stroke-width:0.165;stroke-dasharray:0.32999898,0.165;stroke-dashoffset:0"
       d="m 37.041767,201.95815 c 0.461872,0.14496 1.21231,-0.0878 1.417251,0.32211"
       id="path11" /><path
       style="fill:none;stroke:#f2df0a;stroke-width:0.165;stroke-dasharray:0.32999898,0.165;stroke-dashoffset:0"
       d="m 165.36733,49.668178 c 0.22325,-0.236852 0.87148,0.322101 1.54609,0.322101"
       id="path12" /><path
       style="fill:none;stroke:#f2df0a;stroke-width:0.165;stroke-dasharray:0.33000049,0.165;stroke-dashoffset:0"
       d="m 164.78755,52.69594 c 0.19026,-1.414645 1.41498,-0.675283 2.25471,-1.095147"
       id="path13" /><path
       style="fill:none;stroke:#f2df0a;stroke-width:0.165;stroke-dasharray:0.33000049,0.165;stroke-dashoffset:0"
       d="m 166.65574,53.791087 c 0.10424,-0.114345 0.5346,-0.344693 1.22399,0"
       id="path14" /><path
       style="fill:none;stroke:#f2df0a;stroke-width:0.165;stroke-dasharray:0.33000049,0.165;stroke-dashoffset:0"
       d="m 165.94711,56.625587 c 0.76518,-0.411869 1.51878,-0.386522 2.38356,-0.386522"
       id="path15" /><path
       style="fill:none;stroke:#f2120a;stroke-width:0.165;stroke-dasharray:0.329999, 0.165;stroke-dashoffset:0;stroke-opacity:1"
       d="m 47.993246,40.133949 c -1.942671,0.105508 -3.105491,1.352831 -5.089218,1.352831 -2.820453,0 -0.57056,-4.398968 -0.773046,-4.702696 -0.32018,-0.480272 -1.607899,-1.096714 -2.254716,-0.708623 -1.465736,0.87944 0.901793,2.705938 0.450943,4.058488 -0.255079,0.765239 -1.147429,1.264132 -1.481669,1.932615 -0.370409,0.740815 -0.65546,2.526366 0.193262,3.09218 1.64483,1.096555 2.589231,-0.740116 2.963341,-0.579784 1.248254,0.534966 1.243693,2.425621 1.674932,2.64124 1.237366,0.618683 1.215977,0.551749 1.610511,1.932615 0.112186,0.392649 0.27986,0.662159 0.193262,1.095147 -0.123968,0.619842 -1.480558,0.751943 -1.997035,0.579784 -0.651397,-0.217133 -0.465135,-1.443455 -0.966306,-1.610511 -0.180126,-0.06004 -0.389245,-7.93e-4 -0.579784,-0.06442 -0.204529,-0.06818 -1.032577,1.804233 -1.803774,1.997032 -0.239783,0.05995 -0.716073,0.147834 -0.966308,0.06442 -0.937588,-0.312528 -1.527376,-1.568945 -1.997033,-1.803773 -0.834866,-0.417433 -2.938478,-1.600338 -3.221024,-2.447978 -0.114123,-0.342371 -0.244409,-1.225283 -0.128841,-1.610511 0.438507,-1.46169 2.248429,-2.880055 2.770081,-4.445013 0.513993,-1.541978 -4.691255,-5.09684 -1.803773,-7.02183 0.483352,-0.322236 0.935292,-0.618913 1.481669,-0.837464 0.468988,-0.187595 0.913107,-0.478957 1.417252,-0.579784 3.338269,-0.667655 8.755832,-0.314897 10.178433,3.478704 0.309319,0.824852 1.715188,4.18733 0.128841,4.18733 z"
       id="path18" /><path
       style="fill:none;stroke:#f2120a;stroke-width:0.165;stroke-dasharray:0.329999, 0.165;stroke-dashoffset:0;stroke-opacity:1"
       d="m 137.65859,204.52914 c -0.47156,0.0852 -0.31906,-0.59224 -1.27546,-0.91105 -2.681,-0.89366 -5.1391,-0.10769 -6.3773,2.36872 -1.19177,2.38353 0.89263,2.5868 1.45767,4.2819 0.45571,1.36713 -0.71415,1.8985 -1.45767,2.64202 -0.26788,0.26787 -0.27332,1.14994 -0.27332,1.54878 0,3.08021 1.65463,3.35032 3.73528,4.73742 1.22318,0.81545 5.37515,1.15099 5.37515,-1.09325 0,-4.42612 -4.22932,-0.35036 -5.19294,-2.27761 -1.36426,-2.72851 2.08209,-3.31966 1.45767,-5.19294 -0.43824,-1.3147 -2.18651,-1.65256 -2.18651,-3.18866 0,-1.31924 0.83184,-1.09325 1.91319,-1.09325 2.75407,0 1.98751,3.91749 5.19295,3.91749 0.27526,0 0.98742,0.47516 1.27546,0.0911 0.84905,-1.13206 1.36569,-4.0699 0.0911,-4.91963 -0.65102,-0.43402 -2.89395,-0.91104 -3.73527,-0.91104 z"
       id="path19" /><path
       style="fill:none;stroke:#f2120a;stroke-width:0.165;stroke-dasharray:none;stroke-dashoffset:0;stroke-opacity:1"
       d="m 104.49663,34.938496 c 0.0355,-0.444214 -0.12766,-2.076855 0.1822,-3.006442 0.12719,-0.381545 0.47294,-0.627012 0.63773,-0.956593 0.0456,-0.09111 -0.20129,0.06463 -0.27331,0.136655 -0.16555,0.165544 -0.55781,0.428881 -0.77439,0.501073 -1.02227,0.340759 -2.0725,0.660466 -3.09754,1.002149"
       id="path22" /><path
       style="fill:none;stroke:#f2120a;stroke-width:0.165;stroke-dasharray:none;stroke-dashoffset:0;stroke-opacity:1"
       d="m 40.133949,112.15603 c 2.235391,-1.37092 5.522458,0.43324 7.02183,1.93261 0.194202,0.1942 0.394203,-1.05732 1.030727,-1.48167 0.95223,-0.63482 2.436672,0.25768 3.414287,0.25768"
       id="path23" /><path
       style="fill:none;stroke:#f2120a;stroke-width:0.165;stroke-dasharray:none;stroke-dashoffset:0;stroke-opacity:1"
       d="m 146.87866,122.7854 c -0.69848,-1.18201 -0.83612,-2.40413 -2.06146,-3.22102 -1.3749,-0.9166 -8.48248,-2.72668 -9.79191,-1.41725 -1.29867,1.29867 -1.40222,3.19096 -2.1903,4.76711 -0.71134,1.42269 -2.44797,2.47503 -2.44797,4.25176 0,1.732 -0.35261,4.1704 0.25768,5.79784 0.44435,1.18494 1.37594,2.5404 1.67493,3.73638 0.8614,3.4456 3.02338,8.29304 6.95741,9.27655 1.05211,0.26303 2.7483,0.66575 3.86523,0.38652 0.49337,-0.12334 2.25665,-1.35089 2.8345,-0.77304 0.73384,0.73384 1.41013,4.06205 3.60755,2.96334 0.58225,-0.29113 1.93468,-6.82995 3.86522,-8.11698 0.95907,-0.63937 1.69538,-2.20392 2.8345,-2.96334 1.69755,-1.1317 4.02455,-2.09193 5.41132,-3.4787 0.74985,-0.74985 0.35334,-1.31771 0.64421,-2.1903 0.29268,-0.87805 0.88489,-3.37252 0.12884,-4.38059 -1.02311,-1.36415 -1.77892,-0.78662 -2.96334,-1.67494 -0.76247,-0.57185 -1.68455,-1.29802 -2.44798,-2.06145 -1.2951,-1.2951 -6.94871,-1.63778 -8.63234,-0.51536 -1.58577,1.05717 -3.0576,3.41902 -2.06146,5.41132 0.42067,0.84133 2.08632,1.82034 2.8345,2.31913 0.53206,0.35471 1.2073,2.42412 0.38653,2.8345 -0.96338,0.48169 -3.44287,0.35069 -4.12291,1.03073 -0.65682,0.65681 -0.88397,1.54967 -2.1903,1.28841 -1.18687,-0.23737 -3.76079,-6.14369 -2.96334,-7.47277 1.71057,-2.85096 7.66455,-1.42322 6.57089,-5.79785 z"
       id="path24" /><path
       style="fill:none;stroke:#f2120a;stroke-width:0.165;stroke-dasharray:none;stroke-dashoffset:0;stroke-opacity:1"
       d="m 48.194171,261.56043 c 1.846151,-1.55638 4.818772,-1.55853 7.652761,1.27546 0.395031,0.39503 0.383484,1.15045 0.546626,1.63987 1.674559,5.02369 -2.809954,7.24008 -1.913191,9.93038 0.379552,1.13864 2.429044,1.41703 3.37086,1.73096 0.327877,0.1093 0.356291,0.46887 0.637731,0.63775 2.32501,1.39499 2.550919,2.78919 2.550919,5.73956 0,0.73004 0.05579,1.95535 -0.637731,2.18651 -1.017481,0.33915 -3.098675,-0.18391 -3.644172,-1.00216 -0.454734,-0.68209 -0.421166,-1.77054 -1.002146,-2.64202 -0.653717,-0.98057 -2.39875,-1.0627 -3.370858,-1.54877 -1.406099,-0.70305 -2.672501,-2.12587 -3.82638,-3.27975 -1.640354,-1.64036 -5.486525,1.20463 -6.741719,2.45981 -1.20292,1.20293 -1.625224,2.96249 -2.186503,4.64632 -0.647565,1.9427 -1.462029,6.8167 0.728834,8.3816 0.909704,0.64979 2.101551,0.81995 3.18865,0.81995 0.555781,0 1.284171,0.13446 1.822085,0 1.23118,-0.30782 1.79342,-0.82505 2.186504,-2.0043 0.192468,-0.57743 0.488206,-1.45074 0.273314,-2.09539 -0.374608,-1.12385 -3.036213,-2.06563 -1.275461,-3.82641 0.867929,-0.86791 2.763406,-0.28088 3.82638,-0.5466 1.478249,-0.36957 3.585946,-2.95714 4.828527,-1.09326 0.231709,0.34756 0.165002,1.58319 0,1.91318 -0.427355,0.85471 -1.652667,1.57435 -1.913189,2.09542 -0.46569,0.93136 0.05875,2.59519 -0.0911,3.64416 -0.234632,1.6424 -1.079449,2.84908 -1.913191,4.09969 -0.963483,1.44523 -2.589789,1.5721 -3.917484,2.36871 -0.565725,0.33943 -3.192211,2.19125 -3.461965,2.55092 -0.137258,0.18302 -0.101624,0.46604 -0.273312,0.63773 -1.205669,1.20568 -3.065113,0.63368 -4.555214,0.81994 -1.383316,0.17291 -2.635309,1.18602 -4.099693,0.81995 -0.569447,-0.14238 -0.947261,-1.04744 -1.275461,-1.45767 -1.134316,-1.4179 -2.967953,-3.0693 -2.459815,-5.10186 0.20891,-0.83563 0.856946,-2.2235 1.457669,-2.82421 0.334648,-0.33467 1.01518,-0.85905 1.184354,-1.36658 0.81534,-2.44602 0.33601,-5.79638 -0.819938,-8.10828 -1.33776,-2.67552 -4.032089,-3.10931 -6.559508,-4.37301 -0.757597,-0.3788 -0.705789,-1.3435 -1.184357,-1.82208 -0.463066,-0.46307 -1.363676,-0.27043 -1.730981,-0.63773 -1.140297,-1.1403 -1.457669,-2.21294 -1.457669,-3.82637 0,-1.47204 2.186503,0.01 2.186503,-1.27548 0,-1.44306 -1.334244,-3.16217 -0.546625,-4.73742 0.759436,-1.51886 4.083306,0.0993 5.192945,-0.45553 0.950227,-0.47511 4.129849,-4.81119 4.646318,-4.73741 2.545218,0.3636 1.716146,3.3486 2.824234,5.01072 0.391351,0.58703 0.890477,1.35287 1.457669,1.73099 0.804918,0.53663 1.611733,0.13531 2.186501,1.09326 0.423741,0.70622 0.127944,2.13225 0.63773,2.64202 1.299205,1.29921 2.330813,-5.48399 3.644173,-5.92177 0.477067,-0.15902 3.250313,-1.42823 3.553068,-1.73099 0.247558,-0.24756 0.184158,-2.10319 0.273312,-2.45981 z"
       id="path25" /><path
       style="fill:none;stroke:#d9f20a;stroke-width:0.165;stroke-dasharray:0.49500002, 0.16500001;stroke-dashoffset:0;stroke-opacity:1"
       d="m 123.17193,274.1735 c 1.34792,-0.37709 6.2278,-0.54383 9.01886,0.38653 0.97248,0.32414 1.75372,1.38387 2.57682,1.93259 4.11234,2.74156 5.43599,6.39271 3.22102,10.82265 -0.48402,0.96803 -1.16477,1.82459 -1.41725,2.83451 -0.0784,0.31372 0.10229,0.72385 0,1.03071 -0.18786,0.56362 -0.54535,0.64421 -1.03072,0.64421"
       id="path27" /><path
       style="fill:none;stroke:#f20d0a;stroke-width:0.165;stroke-dasharray:0.495001, 0.165;stroke-dashoffset:0;stroke-opacity:1"
       d="m 122.65656,276.87915 c 2.53364,-0.2976 7.61484,-2.5636 9.92075,-0.25768 0.91497,0.91496 0.55877,2.70701 0.90189,3.7364 0.1855,0.5565 2.22022,0.6741 2.70566,1.15956 0.81257,0.81256 -0.17276,4.81102 -0.77305,5.41131 -1.82124,1.82126 -1.76534,-1.17877 -3.34986,-0.38653 -1.67891,0.83947 -1.61305,3.06126 -2.70566,3.60757 -0.97172,0.48585 -2.81561,0.20439 -3.09218,-0.90189 -0.10105,-0.40423 0.10105,-0.88421 0,-1.28841 -0.33838,-1.3535 -1.88172,-2.21734 -2.44798,-3.34986 -0.39028,-0.78058 -2.07515,-6.34008 -1.80377,-6.82858 0.17942,-0.32295 0.42947,-0.60127 0.6442,-0.90189 z"
       id="path28" /><path
       style="fill:none;stroke:#f20d0a;stroke-width:0.165;stroke-dasharray:0.495001, 0.165;stroke-dashoffset:0;stroke-opacity:1"
       d="m 213.48942,235.65006 c -0.25123,-0.53333 0.46636,-1.29869 1.80377,-2.1903 0.2852,-0.19013 -0.0829,-1.58322 0.25768,-1.67493 2.0535,-0.55301 5.30091,-1.90501 7.08625,-1.15956 1.09702,0.45804 2.94447,-0.15804 4.12291,0.51535 1.82778,1.04445 2.92617,3.0674 4.50944,4.12291 5.76808,3.84539 8.24581,3.06452 8.24581,10.95148 0,1.12047 -0.69111,2.9868 -1.67493,3.47871 -0.87199,0.43599 -2.67449,-0.53614 -3.4787,0 -0.6278,0.41853 -0.9563,0.95629 -1.54609,1.54609 -1.13432,1.13431 -4.41918,0.51536 -5.92669,0.51536 -1.33707,0 -3.74602,-0.72689 -4.76711,-0.38652 -2.71083,0.90361 -0.99714,4.76711 -4.50943,4.76711 -0.52582,0 -1.19156,0.11285 -1.67494,-0.12884 -0.50718,-0.25359 -0.66737,-1.05389 -1.03072,-1.41725 -0.55601,-0.556 -0.0566,-2.82948 0.12884,-3.4787 0.28109,-0.98384 0.70021,-1.6021 1.41725,-2.31914 0.84418,-0.84419 3.56798,-1.14638 4.76711,-1.54609 0.70159,-0.23386 1.40546,-0.93697 1.93262,-1.28841 1.50678,-1.00452 3.23617,-0.0455 3.99406,-2.31914 0.11011,-0.3303 0.40554,-0.58716 0.25769,-1.03072 -0.30758,-0.92274 -3.32801,-0.87351 -3.86523,-0.51537 -2.0659,1.37727 -2.05694,3.72085 -5.0248,3.34987 -1.64843,-0.20606 -3.8522,-1.12049 -4.38059,-2.70566 -0.28291,-0.84874 0.17674,-1.95078 0,-2.8345 -0.39355,-1.96777 -2.26552,-1.9819 -0.6442,-4.25175 z"
       id="path29"
       sodipodi:nodetypes="csssssssssssssscsssssssssc" /><path
       style="fill:none;stroke:#eef20a;stroke-width:0.165;stroke-dasharray:0.495001, 0.165;stroke-dashoffset:0;stroke-opacity:1"
       d="m 216.83928,230.88294 c 0.1148,0.57828 1.40483,-1.00247 2.1903,-1.15957 0.79322,-0.15864 8.02969,-0.37267 8.76118,-0.12884 1.9717,0.65724 2.85499,3.24152 4.25175,4.63828 0.53264,0.53264 4.87993,0.57177 6.05552,1.15957 0.97131,0.48565 2.11849,2.3614 2.44798,3.34986 0.39974,1.19921 1.04514,2.73447 1.67493,3.99407 0.23636,0.47271 0,1.63634 0,2.19029 0,3.39236 -1.11971,6.84495 -3.99407,8.76119 -0.30185,0.20123 -0.56272,0.78883 -0.90188,0.90188 -0.32029,0.10677 -0.60169,-0.0212 -0.90189,0.12884"
       id="path33" /><path
       style="fill:none;stroke:#f21b0a;stroke-width:0.365;stroke-dasharray:1.46,0.365;stroke-dashoffset:0;stroke-opacity:1"
       d="m 224.29877,162.89448 c 0.28543,0.11279 1.26237,0.53353 2.0954,1.36656 0.7229,0.7229 1.09361,5.55665 0.63773,6.4684"
       id="path34" /><path
       style="fill:none;stroke:#f2dc0a;stroke-width:0.365;stroke-dasharray:none;stroke-dashoffset:0;stroke-opacity:1"
       d="m 227.30521,167.26748 c -0.0287,-0.41459 1.34917,0.0542 2.0043,-0.27331"
       id="path36" /><path
       style="fill:none;stroke:#f21e0a;stroke-width:0.365;stroke-dasharray:1.09500003,0.36500001;stroke-dashoffset:0;stroke-opacity:1"
       d="m 299.82422,153.51073 c -0.11705,-0.0182 -2.18345,0.44944 -2.64202,1.36657 -0.38495,0.76991 -1.77747,0.8683 -2.0954,1.82208 -0.83127,2.49378 -1.59313,5.10344 0.18222,7.47056 0.33171,0.44228 0.33584,1.12451 0.81992,1.36656 0.37531,0.18765 0.81224,0.26946 1.18435,0.45552"
       id="path37" /><path
       style="fill:none;stroke:#eef20a;stroke-width:0.365;stroke-dasharray:none;stroke-dashoffset:0;stroke-opacity:1"
       d="m 289.80275,154.7862 c 0.29663,0 0.3787,-0.0384 0.63773,0.0911 0.50175,0.25087 1.12408,0.94185 1.45767,1.27546 0.72649,0.72649 1.90314,0.71879 2.55092,1.36656"
       id="path38" /></g></svg>
