<?xml version="1.0" encoding="UTF-8" standalone="no"?>
<!-- Created with Inkscape (http://www.inkscape.org/) -->

<svg
   width="210mm"
   height="297mm"
   viewBox="0 0 210 297"
   version="1.1"
   id="svg1"
   xml:space="preserve"
   inkscape:version="1.4.2 (f4327f4, 2025-05-13)"
   sodipodi:docname="annotation_ct.svg"
   xmlns:inkscape="http://www.inkscape.org/namespaces/inkscape"
   xmlns:sodipodi="http://sodipodi.sourceforge.net/DTD/sodipodi-0.dtd"
   xmlns:xlink="http://www.w3.org/1999/xlink"
   xmlns="http://www.w3.org/2000/svg"
   xmlns:svg="http://www.w3.org/2000/svg"><sodipodi:namedview
     id="namedview1"
     pagecolor="#ffffff"
     bordercolor="#000000"
     borderopacity="0.25"
     inkscape:showpageshadow="2"
     inkscape:pageopacity="0.0"
     inkscape:pagecheckerboard="0"
     inkscape:deskcolor="#d1d1d1"
     inkscape:document-units="mm"
     showgrid="false"
     inkscape:zoom="2.9041807"
     inkscape:cx="424.73253"
     inkscape:cy="922.63543"
     inkscape:window-width="1920"
     inkscape:window-height="1017"
     inkscape:window-x="-8"
     inkscape:window-y="-8"
     inkscape:window-maximized="1"
     inkscape:current-layer="layer1" /><defs
     id="defs1" /><g
     inkscape:label="Слой 1"
     inkscape:groupmode="layer"
     id="layer1"><image
       width="88.106247"
       height="53.974998"
       preserveAspectRatio="none"
       xlink:href="image6.png"
       id="image1"
       x="60.257626"
       y="118.16399" /><image
       width="68.262497"
       height="53.710415"
       preserveAspectRatio="none"
       xlink:href="image18.png"
       id="image1-1"
       x="69.815079"
       y="239.28279" /><image
       width="115.45419"
       height="63.385876"
       preserveAspectRatio="none"
       xlink:href="image41.png"
       id="image1-4"
       x="48.223534"
       y="174.68063" /><image
       width="80.962502"
       height="55.033333"
       preserveAspectRatio="none"
       xlink:href="image43.png"
       id="image1-9"
       x="62.736248"
       y="59.692497" /><image
       width="75.40625"
       height="55.5625"
       preserveAspectRatio="none"
       xlink:href="image55.png"
       id="image1-8"
       x="64.056702"
       y="1.4855841" /><path
       style="fill:none;fill-opacity:0.245283;stroke:#db1a1a;stroke-width:0.264583;stroke-dasharray:0.264583, 0.264583;stroke-opacity:1"
       d="m 94.201839,264.84017 0.455522,-0.91103 c 0,0 -0.182208,1.45766 0.728835,0.36442 0.911042,-1.09325 0.728834,-1.54877 0.728834,-1.54877 l 2.004293,-1.54877 c 0,0 0.63773,-0.81994 0.728834,0.54662 0.0911,1.36656 1.00215,1.36656 1.00215,1.36656 l 0.911043,0.54663 1.09325,0.18221 0.72883,0.63773 0.54663,0.72884 1.18435,0.54663 1.18436,0.18219 0.91104,0.54663 c 0,0 0.91105,0.72885 0.54663,1.18436 -0.36442,0.45553 0.54663,0.36441 0.54663,0.36441 l 0.63773,-0.27332 0.81994,0.81995 0.72883,0.36441 0.27331,-0.72882 c 0,0 1.18436,-0.27332 1.27546,0.36441 0.0911,0.63772 -0.81994,2.27761 -0.81994,2.27761 l -0.81994,0.72885 c 0,0 -1.00214,0.91104 0,0.81991 1.00215,-0.0911 0.54663,0.45554 0.54663,0.45554 l -2.82423,0.18222 -0.36442,-1.00217 -0.72883,0.18222 -0.27332,-2.45983 -0.81993,-0.36441 c 0,0 0.54662,-0.72882 -0.0911,-1.27545 -0.63773,-0.54663 -1.45767,-0.18222 -1.45767,-0.18222 v -1.09326 c 0,0 0.72883,0.54663 -0.54662,-0.27331 -1.27546,-0.81992 -1.54878,-1.54877 -1.54878,-1.54877 l -1.00215,-0.36441 c 0,0 0.75308,1.85873 -0.45552,0.81995 -1.386009,-1.19126 -0.459337,-0.6772 -2.915333,-0.81992 l -0.455523,0.54663 c 0,0 -0.0911,-0.54663 -0.546624,-0.27331 -0.455522,0.27331 -0.911042,0.63772 -0.911042,0.63772 z"
       id="path1"
       sodipodi:nodetypes="ccsccsccccccccscccccsccsccccccsccsccsccscc" /><path
       style="fill:none;fill-opacity:0.245283;stroke:#db1a1a;stroke-width:0.264583;stroke-dasharray:0.264583, 0.264583;stroke-opacity:1"
       d="m 99.94141,257.09631 c 0,0 -0.455522,1.45767 -0.728834,0.45553 -0.273315,-1.00215 -0.273315,-1.27546 -0.273315,-1.27546 l 1.548769,-0.45552 h 2.0043 l 1.36656,0.91104 2.0954,0.91104 3.64417,1.00215 c 0,0 2.45982,0.36442 2.82424,0.45552 0.36442,0.0911 1.63987,1.36657 1.63987,2.0954 0,0.72883 -0.45552,2.45982 -0.45552,2.45982 0,0 -0.27331,1.45767 -0.91104,1.36655 -0.63773,-0.0911 -0.91104,-1.09324 -1.36656,-0.63772 -0.45553,0.45553 -0.36442,0.72884 -1.54878,0.0911 -1.18435,-0.63773 -1.36656,-2.1865 -1.91319,-2.2776 -0.54662,-0.0911 -1.45767,-0.27332 -1.45767,-0.27332 l -0.72883,1.09325 c 0,0 -0.63773,-0.36441 -1.36657,-0.27331 -0.72883,0.0911 -1.73098,-0.72883 -1.73098,-0.72883 0,0 -1.54877,0.54662 -1.82208,0.18221 -0.27332,-0.36442 -0.911043,-1.63988 -0.911043,-1.63988 l 0.911043,-0.91104 0.45552,-1.00215 1.36656,-0.91104 -0.63773,-1.36657 c 0,0 -1.00214,-0.91104 -1.54877,-0.18221 -0.546623,0.72884 -0.45552,0.91104 -0.45552,0.91104 z"
       id="path3" /><path
       style="fill:none;fill-opacity:0.245283;stroke:#db1a1a;stroke-width:0.264583;stroke-dasharray:0.264583, 0.264583;stroke-opacity:1"
       d="m 110.4184,212.72852 c -1.61421,2.61145 6.16235,7.04778 2.73313,10.477"
       id="path4" /><path
       style="fill:none;fill-opacity:0.245283;stroke:#db1a1a;stroke-width:0.264583;stroke-dasharray:0.264583, 0.264583;stroke-opacity:1"
       d="m 97.754907,137.56748 c 0,0 0.911043,2.0043 0.0911,2.27761 -0.819938,0.27331 -1.730981,0.72883 -1.730981,0.72883 0,0 -0.63773,-0.45552 0.182208,0.72884 0.819939,1.18435 0.0911,2.36871 0.0911,2.36871 l -0.182208,2.0043 -0.0911,0.36441 c 0,0 -0.63773,-1.45767 0,0 0.637731,1.45767 0,3.46197 -0.455522,3.46197 -0.45552,0 0.455522,2.91533 0.911042,2.91533 0.455523,0 1.275461,1.27546 1.275461,1.27546 0,0 1.639877,-0.63773 1.366565,-1.09325 -0.273315,-0.45552 -0.819938,-1.00215 -1.002146,-1.63987 -0.182211,-0.63774 0.728831,-1.45767 0.728831,-1.45767 0,0 1.548773,-0.63773 0.911046,-1.36657 -0.637731,-0.72883 -0.273315,-2.82423 -0.455523,-3.27975 -0.182208,-0.45552 0.364419,-3.27976 0.364419,-3.27976 l 0.455521,-1.18435 c 0,0 1.09326,0.1822 1.18436,1.09325 0.0911,0.91104 0,2.1865 0.36442,2.45981 0.36441,0.27332 1.73098,1.36657 2.1865,1.36657 0.45552,0 1.73098,0 1.82208,-0.36442 0.0911,-0.36442 1.09326,0 1.09326,0.36442 0,0.36442 -0.36442,2.91534 -1.00215,2.27761 -0.63773,-0.63774 -0.45552,1.18435 -0.45552,1.18435 0,0 1.00214,1.18436 1.27546,0.72884 0.27331,-0.45553 0.27331,-2.0954 0.27331,-2.0954 0,0 1.00215,-1.63988 0.81994,-2.27761 -0.18221,-0.63773 -0.72884,-2.36871 -1.09325,-2.45982 -0.36442,-0.0911 -1.63988,0.27332 -1.63988,0.27332 0,0 0.27331,-1.00215 -0.0911,-1.82209 -0.36442,-0.81994 -1.27546,-1.91319 -1.27546,-1.91319 0,0 -1.63988,-0.81994 -1.63988,-1.27546 0,-0.45552 -1.09325,-1.00215 -1.09325,-1.00215 z"
       id="path6" /><path
       style="fill:none;fill-opacity:0.245283;stroke:#db1a1a;stroke-width:0.264583;stroke-dasharray:0.264583, 0.264583;stroke-opacity:1"
       d="m 90.557666,84.089263 c -2.045213,-1.340472 6.344394,-2.070113 7.197241,-0.364416 0.616334,1.232664 -3.6811,1.019397 -2.642026,3.097546 0.950542,1.901079 5.140659,4.802645 7.834969,3.006442 1.62841,-1.085607 -3.349054,-7.197241 0.63773,-7.197241 4.09864,0 4.26573,4.587552 2.82423,7.470552 -5.90214,11.804284 -17.278372,-4.111243 -15.852144,-6.012883 z"
       id="path8" /><path
       style="fill:none;fill-opacity:0.245283;stroke:#db1a1a;stroke-width:0.264583;stroke-dasharray:0.264583, 0.264583;stroke-opacity:1"
       d="m 101.30798,33.253068 c -2.953752,-0.852987 -2.671344,1.031457 -3.917491,2.277605 -3.599344,3.599347 2.013037,6.054066 3.917491,5.101841 0.27761,-0.138805 -0.27926,-1.545799 0.0911,-1.73098 0.49215,-0.246076 1.45767,-0.692915 1.45767,-1.457669 0,-0.421886 0.93605,-0.794933 0.63773,-1.093251 -0.63141,-0.631407 -1.71484,-2.154221 -2.1865,-3.097546 z"
       id="path9" /><path
       style="fill:none;fill-opacity:0.245283;stroke:#db1a1a;stroke-width:0.264583;stroke-dasharray:0.264583, 0.264583;stroke-opacity:1"
       d="m 95.659508,33.070858 c -0.05873,0.101555 -0.677466,0.626097 -1.184355,1.639877 -2.27126,4.54252 4.967298,10.338223 7.561657,7.743867 2.81989,-2.819892 5.20384,-7.78397 0.36442,-10.203683 -1.45468,-0.727337 -4.104604,-0.0911 -5.739576,-0.0911 -0.334049,0.30368 -0.668097,0.607359 -1.002146,0.911039 z"
       id="path10" /></g></svg>
