<?xml version="1.0" encoding="UTF-8" standalone="no"?>
<!-- Created with Inkscape (http://www.inkscape.org/) -->

<svg
   width="210mm"
   height="297mm"
   viewBox="0 0 210 297"
   version="1.1"
   id="svg1"
   xml:space="preserve"
   inkscape:version="1.4.2 (89e1ae34b9, 2025-08-05)"
   sodipodi:docname="annotatiom_mri.svg"
   xmlns:inkscape="http://www.inkscape.org/namespaces/inkscape"
   xmlns:sodipodi="http://sodipodi.sourceforge.net/DTD/sodipodi-0.dtd"
   xmlns:xlink="http://www.w3.org/1999/xlink"
   xmlns="http://www.w3.org/2000/svg"
   xmlns:svg="http://www.w3.org/2000/svg"><sodipodi:namedview
     id="namedview1"
     pagecolor="#ffffff"
     bordercolor="#000000"
     borderopacity="0.25"
     inkscape:showpageshadow="2"
     inkscape:pageopacity="0.0"
     inkscape:pagecheckerboard="0"
     inkscape:deskcolor="#d1d1d1"
     inkscape:document-units="mm"
     inkscape:zoom="0.72604515"
     inkscape:cx="762.34928"
     inkscape:cy="733.42546"
     inkscape:window-width="1920"
     inkscape:window-height="1017"
     inkscape:window-x="1912"
     inkscape:window-y="-8"
     inkscape:window-maximized="1"
     inkscape:current-layer="layer1" /><defs
     id="defs1" /><g
     inkscape:label="Слой 1"
     inkscape:groupmode="layer"
     id="layer1"><image
       width="72.231247"
       height="58.208332"
       preserveAspectRatio="none"
       xlink:href="image4.png"
       id="image1"
       x="2.2356143"
       y="6.3577623" /><image
       width="60.589584"
       height="75.935417"
       preserveAspectRatio="none"
       xlink:href="image13.png"
       id="image1-3"
       x="79.482216"
       y="6.9071765" /><image
       width="61.118752"
       height="62.177082"
       preserveAspectRatio="none"
       xlink:href="image17.png"
       id="image1-2"
       x="143.71947"
       y="17.794931" /><image
       width="82.020836"
       height="76.199997"
       preserveAspectRatio="none"
       xlink:href="image19.png"
       id="image1-31"
       x="3.5359168"
       y="86.582245" /><image
       width="83.07917"
       height="74.612503"
       preserveAspectRatio="none"
       xlink:href="image25.png"
       id="image1-5"
       x="102.12822"
       y="90.291336" /><image
       width="73.025002"
       height="61.118752"
       preserveAspectRatio="none"
       xlink:href="image27.png"
       id="image1-6"
       x="6.5761642"
       y="170.76744" /><image
       width="71.4375"
       height="58.208332"
       preserveAspectRatio="none"
       xlink:href="image38.png"
       id="image1-8"
       x="98.109787"
       y="176.59566" /><image
       width="67.20417"
       height="85.989586"
       preserveAspectRatio="none"
       xlink:href="image40.png"
       id="image1-9"
       x="7.3000765"
       y="239.23264" /><image
       width="78.052086"
       height="68.791664"
       preserveAspectRatio="none"
       xlink:href="image46.png"
       id="image1-1"
       x="89.336243"
       y="249.71652" /><image
       width="75.40625"
       height="69.849998"
       preserveAspectRatio="none"
       xlink:href="image50.png"
       id="image1-34"
       x="187.22971"
       y="211.65237" /><image
       width="145.52083"
       height="72.760414"
       preserveAspectRatio="none"
       xlink:href="image62.png"
       id="image1-66"
       x="190.89174"
       y="129.75209" /><path
       style="fill:none;fill-opacity:0.233962;stroke:#e6e111;stroke-width:0.264999;stroke-dasharray:1.0485, 0.262124;stroke-opacity:1"
       d="m 32.983278,193.39024 c 0.445058,-0.28624 1.135528,1.15957 2.061456,1.15957"
       id="path9" /><path
       style="fill:none;fill-opacity:0.233962;stroke:#e6d711;stroke-width:0.264999;stroke-dasharray:1.0485, 0.262124;stroke-opacity:1"
       d="m 31.952551,198.67272 c 0.888371,-0.18817 1.802059,-0.12884 2.705659,-0.12884"
       id="path10" /><path
       style="fill:none;fill-opacity:0.233962;stroke:#e6da11;stroke-width:0.264999;stroke-dasharray:1.0485, 0.262124;stroke-opacity:1"
       d="m 31.82371,200.86301 c -0.144897,-0.53611 2.271953,-0.46818 2.963341,-1.15957"
       id="path11" /><path
       style="fill:none;fill-opacity:0.233962;stroke:#e6d311;stroke-width:0.264999;stroke-dasharray:1.0485, 0.262124;stroke-opacity:1"
       d="m 32.339073,203.69751 c -0.09676,-0.84419 1.654987,-1.27844 2.963341,-1.93261"
       id="path16" /><path
       style="fill:none;fill-opacity:0.233962;stroke:#e6d711;stroke-width:0.264999;stroke-dasharray:1.0485, 0.262124;stroke-opacity:1"
       d="m 32.854437,196.99778 c 0.879284,-0.12258 1.615328,0.2609 2.190297,0.64421"
       id="path17" /><path
       style="fill:none;fill-opacity:0.233962;stroke:#e6d311;stroke-width:0.264999;stroke-dasharray:1.0485, 0.262124;stroke-opacity:1"
       d="m 162.33957,43.161711 c 0.19306,-0.324733 1.04881,-0.208706 2.06146,0.128842"
       id="path18" /><path
       style="fill:none;fill-opacity:0.233962;stroke:#e6d311;stroke-width:0.264999;stroke-dasharray:1.0485, 0.262124;stroke-opacity:1"
       d="m 161.82421,46.898099 c -0.19143,-1.257707 1.13682,-1.417251 2.96334,-1.417251"
       id="path19" /><path
       style="fill:none;fill-opacity:0.233962;stroke:#e6d311;stroke-width:0.264999;stroke-dasharray:1.0485, 0.262124;stroke-opacity:1"
       d="m 160.92232,49.346077 c 0.86669,-1.530421 2.58938,-1.335543 3.99407,-1.803773"
       id="path20" /><path
       style="fill:none;fill-opacity:0.233962;stroke:#e6d311;stroke-width:0.264999;stroke-dasharray:1.0485, 0.262124;stroke-opacity:1"
       d="m 161.56653,51.794055 c 1.36467,-1.119722 3.45353,-0.464026 4.76711,-0.901888"
       id="path21" /></g><g
     inkscape:groupmode="layer"
     id="layer2"
     inkscape:label="tumor"><path
       style="fill:none;fill-opacity:0.233962;stroke:#e62111;stroke-width:0.264999;stroke-dasharray:1.0485, 0.262124;stroke-opacity:1"
       d="m 233.26651,238.67783 c 2.77282,0.25351 4.92717,3.99803 4.25175,6.69972 -0.13689,0.54754 -0.50908,1.0056 -0.64421,1.54609 -0.0816,0.32621 -0.25329,0.8975 -0.51536,1.15957 -0.87311,0.87311 -3.1144,0.77749 -4.38059,1.03073 -0.88553,0.17711 -1.64427,0.62043 -2.5124,0.83747 -0.21531,0.0538 -1.70211,0.42377 -1.73935,0.38652 -0.49632,-0.49632 -1.89902,-0.89161 -2.64124,-0.6442 -0.71272,0.23757 0.11209,1.31676 0.19326,1.80377 0.0583,0.34957 -0.0628,0.63773 -0.12884,0.90188 -0.0787,0.31458 -0.76328,0.55506 -1.03073,0.64421 -1.20387,0.40129 -2.00406,0.11947 -2.77008,-0.90189 -0.5179,-0.69053 -0.38652,-1.55234 -0.38652,-2.38355 0,-1.45562 1.0009,-2.67425 2.25471,-3.09219 0.69186,-0.23062 1.59333,0.0785 2.31914,-0.12884 0.20402,-0.0583 0.52007,-0.1634 0.70863,-0.25768 0.44173,-0.22087 0.64787,-0.71107 1.03072,-0.96631 0.45704,-0.30469 1.22634,-0.35783 1.54609,-0.83746 0.14019,-0.21028 0.1475,-0.97478 0.0644,-1.22399 -0.98687,-2.96062 -4.2591,1.80622 -4.83153,1.99703 -0.42566,0.14189 -1.11902,0.25172 -1.61051,0.12884 -0.86166,-0.21541 -1.72016,-1.50769 -2.06146,-2.19029 -0.1495,-0.29901 0.0205,-0.88435 -0.0644,-1.22399 -0.16168,-0.64672 -0.5509,-1.1018 -0.83746,-1.67493 -0.22827,-0.45653 0.0874,-1.33433 0.25768,-1.67494 0.28892,-0.57783 0.38549,-1.02969 0.83746,-1.48166 1.10675,-1.10675 5.07567,-1.74275 6.63531,-1.35284 1.37805,0.34452 2.70403,1.06213 3.92965,1.67494 0.77992,0.38996 1.55704,0.42762 2.12588,1.22399 z"
       id="path29" /><path
       style="fill:none;stroke:#f2120a;stroke-width:0.165;stroke-dasharray:none;stroke-dashoffset:0;stroke-opacity:1"
       d="m 48.194171,261.56043 c 1.846151,-1.55638 4.818772,-1.55853 7.652761,1.27546 0.395031,0.39503 0.383484,1.15045 0.546626,1.63987 1.674559,5.02369 -2.809954,7.24008 -1.913191,9.93038 0.379552,1.13864 2.429044,1.41703 3.37086,1.73096 0.327877,0.1093 0.356291,0.46887 0.637731,0.63775 2.32501,1.39499 2.550919,2.78919 2.550919,5.73956 0,0.73004 0.05579,1.95535 -0.637731,2.18651 -1.017481,0.33915 -3.098675,-0.18391 -3.644172,-1.00216 -0.454734,-0.68209 -0.421166,-1.77054 -1.002146,-2.64202 -0.653717,-0.98057 -2.39875,-1.0627 -3.370858,-1.54877 -1.406099,-0.70305 -2.672501,-2.12587 -3.82638,-3.27975 -1.640354,-1.64036 -5.486525,1.20463 -6.741719,2.45981 -1.20292,1.20293 -1.625224,2.96249 -2.186503,4.64632 -0.647565,1.9427 -1.462029,6.8167 0.728834,8.3816 0.909704,0.64979 2.101551,0.81995 3.18865,0.81995 0.555781,0 1.284171,0.13446 1.822085,0 1.23118,-0.30782 1.79342,-0.82505 2.186504,-2.0043 0.192468,-0.57743 0.488206,-1.45074 0.273314,-2.09539 -0.374608,-1.12385 -3.036213,-2.06563 -1.275461,-3.82641 0.867929,-0.86791 2.763406,-0.28088 3.82638,-0.5466 1.478249,-0.36957 3.585946,-2.95714 4.828527,-1.09326 0.231709,0.34756 0.165002,1.58319 0,1.91318 -0.427355,0.85471 -1.652667,1.57435 -1.913189,2.09542 -0.46569,0.93136 0.05875,2.59519 -0.0911,3.64416 -0.234632,1.6424 -1.079449,2.84908 -1.913191,4.09969 -0.963483,1.44523 -2.589789,1.5721 -3.917484,2.36871 -0.565725,0.33943 -3.192211,2.19125 -3.461965,2.55092 -0.137258,0.18302 -0.101624,0.46604 -0.273312,0.63773 -1.205669,1.20568 -3.065113,0.63368 -4.555214,0.81994 -1.383316,0.17291 -2.635309,1.18602 -4.099693,0.81995 -0.569447,-0.14238 -0.947261,-1.04744 -1.275461,-1.45767 -1.134316,-1.4179 -2.967953,-3.0693 -2.459815,-5.10186 0.20891,-0.83563 0.856946,-2.2235 1.457669,-2.82421 0.334648,-0.33467 1.01518,-0.85905 1.184354,-1.36658 0.81534,-2.44602 0.33601,-5.79638 -0.819938,-8.10828 -1.33776,-2.67552 -4.032089,-3.10931 -6.559508,-4.37301 -0.757597,-0.3788 -0.705789,-1.3435 -1.184357,-1.82208 -0.463066,-0.46307 -1.363676,-0.27043 -1.730981,-0.63773 -1.140297,-1.1403 -1.457669,-2.21294 -1.457669,-3.82637 0,-1.47204 2.186503,0.01 2.186503,-1.27548 0,-1.44306 -1.334244,-3.16217 -0.546625,-4.73742 0.759436,-1.51886 4.083306,0.0993 5.192945,-0.45553 0.950227,-0.47511 4.129849,-4.81119 4.646318,-4.73741 2.545218,0.3636 1.716146,3.3486 2.824234,5.01072 0.391351,0.58703 0.890477,1.35287 1.457669,1.73099 0.804918,0.53663 1.611733,0.13531 2.186501,1.09326 0.423741,0.70622 0.127944,2.13225 0.63773,2.64202 1.299205,1.29921 2.330813,-5.48399 3.644173,-5.92177 0.477067,-0.15902 3.250313,-1.42823 3.553068,-1.73099 0.247558,-0.24756 0.184158,-2.10319 0.273312,-2.45981 z"
       id="path25" /><path
       style="fill:none;fill-opacity:0.233962;stroke:#e6111d;stroke-width:0.264999;stroke-dasharray:1.0485, 0.262124;stroke-opacity:1"
       d="m 137.9319,114.427 c -0.14611,-0.0286 -0.0144,0.1822 2.0043,0.1822 1.66528,0 5.15811,2.51787 3.82638,4.73743 -0.9761,1.62683 -2.62261,1.16493 -3.82638,2.36871 -1.85091,1.85091 -0.71052,6.0312 1.09325,7.83497 0.47459,0.47459 4.2747,-0.49747 4.73742,-0.72884 3.50256,-1.75127 -2.51064,-5.54681 -1.63987,-7.28834 1.29465,-2.58931 4.01909,-2.91534 6.74171,-2.91534 1.09494,0 2.50552,-0.59202 3.27976,0.18221 1.12172,1.12172 5.66877,5.42565 4.55521,7.65276 -0.68595,1.3719 -6.68434,5.7733 -8.19938,7.28835 -0.19713,0.19713 -0.66168,0.92534 -0.72884,1.09324 -0.80944,2.02361 -0.36615,5.10359 -2.00429,6.74173 -1.51477,1.51476 -2.9842,-2.58536 -3.64417,-2.91534 -1.50625,-0.75312 -3.98167,0.51557 -5.64847,0.18221 -1.40931,-0.28186 -2.33944,-1.71635 -3.64417,-2.36871 -0.45615,-0.22808 -3.31109,-5.63656 -3.46197,-6.01288 -2.05619,-5.12851 -1.34905,-17.53427 6.55951,-16.03436 z"
       id="path24"
       sodipodi:nodetypes="csssscsssssssssssc" /><path
       style="fill:none;fill-opacity:0.233962;stroke:#e61411;stroke-width:0.264999;stroke-dasharray:1.0485, 0.262124"
       d="m 133.46779,200.15614 c 1.97726,-0.97094 3.86171,1.49299 5.64847,3.27975 0.9196,0.9196 1.73536,-1.34746 2.55092,-1.18435 0.74761,0.14952 1.09701,1.21068 1.18436,1.82208 0.15925,1.11474 -0.1912,1.91918 -1.00215,2.45982 -3.40608,2.27072 -7.96049,-5.81854 -8.92822,-2.91534 -0.66747,2.0024 3.21439,2.46676 2.1865,4.00859 -0.485,0.7275 -2.85337,2.61289 -1.63988,3.82638 1.00613,1.00613 3.48793,-0.24735 4.1908,0.45552 2.85409,2.85409 -3.21036,4.11704 -5.10184,3.64418 -5.29121,-1.32281 -0.36889,-6.67301 -0.72883,-8.47271 -0.53134,-2.6567 -4.69251,-6.92392 2.55092,-6.92392"
       id="path7" /><path
       style="fill:none;fill-opacity:0.233962;stroke:#e61411;stroke-width:0.264999;stroke-dasharray:1.0485, 0.262124"
       d="m 42.904031,190.4269 c 2.305921,0 -2.274207,0 1.030727,0 3.509126,0 5.024797,3.31783 5.024797,6.44204 0,0.44388 0.09001,1.1984 -0.257683,1.54609 -1.026403,1.02641 -2.719334,2.61065 -4.509434,1.41726 -0.165394,-0.11027 -0.571664,-4.58198 -1.288407,-3.86523 -0.217368,0.21736 0.03618,1.34488 -0.128841,1.67493 -0.219845,0.43969 -0.755727,0.24036 -1.030727,0.51536 -0.260744,0.26075 0.489244,1.80553 0.386522,2.31914 -0.218239,1.09119 -1.422416,1.16732 -1.932615,1.93261 -0.15059,0.22589 0.04037,0.85379 0.128842,1.03073 1.074446,2.14889 6.699729,-0.46329 6.699729,1.54609 0,3.4491 -1.43273,5.28248 -4.767115,5.28248 -0.63011,0 -1.517173,0.0789 -1.932614,-0.12884 -3.342222,-1.67111 -0.629018,-2.81172 -1.932615,-4.76712 -0.753623,-1.13043 -0.892101,-0.8921 -1.674931,-1.67493 -0.470932,-0.47093 0.515363,-1.82835 0.515363,-2.31913 0,-1.1364 -1.064866,-2.21673 -0.644205,-3.47871 0.27368,-0.82104 1.511636,-1.09066 1.932615,-1.93261 0.550383,-1.10077 0.466672,-3.78982 1.54609,-4.50943 0.804169,-0.53612 1.919668,-0.57332 2.834502,-1.03073 z"
       id="path8" /><path
       style="fill:none;fill-opacity:0.233962;stroke:#e61411;stroke-width:0.264999;stroke-dasharray:1.0485, 0.262124"
       d="m 36.719666,29.762254 c 0.845957,-2.571941 14.093028,0.803153 11.20916,6.57089 -0.337966,0.675931 -5.837505,2.299303 -6.828568,1.803773 -0.415298,-0.20765 -0.0095,-7.509404 -2.190297,-6.055524 -1.950776,1.300517 1.156932,4.259657 0.644204,5.797841 -0.374742,1.124233 -1.559853,1.187098 -2.061453,2.190295 -0.914061,1.828122 6.842961,2.856092 7.859297,4.380592 1.629667,2.444504 -1.252807,3.551605 -3.092183,2.447978 -2.378794,-1.427276 -3.66549,2.092404 -6.442048,-0.128841 -4.377984,-3.502388 -2.580677,-4.888236 -0.644205,-8.761183 1.751846,-3.503689 -6.973025,-3.986262 1.546093,-8.245821 z"
       id="path5" /><path
       style="fill:none;fill-opacity:0.233962;stroke:#e62111;stroke-width:0.264999;stroke-dasharray:1.0485, 0.262124;stroke-opacity:1"
       d="m 99.207517,23.771152 c 0.994673,0.08533 3.463683,-1.174587 4.895953,0.257682 0.28711,0.287108 0.84695,0.460421 1.15957,0.773045 0.76431,0.764307 1.29089,1.935095 1.99704,2.641238 0.51072,0.510723 1.70101,0.425384 2.31913,0.837468 1.10004,0.733358 1.30871,2.205521 2.31914,2.963341 1.21428,0.910714 3.04495,1.193943 3.73639,2.576819 0.0899,0.179798 0.34475,0.306509 0.38652,0.515364 0.42021,2.101053 -0.4451,3.534341 -2.57682,3.800808 -0.65284,0.0816 -1.34951,0.335648 -2.06145,0.193259 -0.50455,-0.100909 -1.43228,-0.971669 -1.61052,-1.417248 -0.10641,-0.266031 -0.083,-0.511067 -0.25768,-0.773046 -0.41348,-0.620223 -0.94764,-1.398591 -1.48167,-1.932615 -0.092,-0.092 -1.28088,-3.334803 -1.48167,-3.736388 -0.19843,-0.396853 -1.00607,-0.555127 -1.35283,-0.901885 -0.58114,-0.581141 -0.67976,-1.461701 -1.15957,-2.061456 -1.09257,-1.365715 -2.41908,-0.03331 -3.28544,-0.322101 -0.65687,-0.218956 -0.75986,-0.842438 -1.28841,-1.159569 -0.541745,-0.325046 -1.155073,-0.223224 -1.481672,-0.386523 -0.07683,-0.03841 0.01413,-0.172956 0,-0.257681 -0.134202,-0.805205 0.498438,-1.195911 1.223989,-1.610512 z"
       id="path31" /><path
       style="fill:none;fill-opacity:0.233962;stroke:#e62111;stroke-width:0.264999;stroke-dasharray:1.0485, 0.262124;stroke-opacity:1"
       d="m 104.74768,17.844469 c 0.28772,-0.03585 1.13023,0.763265 2.12587,1.095148 1.0444,0.348132 3.21452,-0.173926 4.25175,-0.322103 0.79315,-0.113306 1.70961,0 2.5124,0 1.35101,0 3.14996,-0.293214 4.38059,0.322103 2.15192,1.07596 3.50904,3.025502 4.96038,4.767114 0.54144,0.649736 1.25877,1.328325 1.54609,2.190296 0.19211,0.576321 0.9178,1.051949 1.28841,1.54609 0.20657,0.275434 0.24571,0.620261 0.38652,0.901888 0.57647,1.152927 -1.24325,2.903736 -2.25471,3.156604 -1.61881,0.404701 -3.99407,-0.60738 -3.99407,-2.383557 0,-0.111192 0.0725,-1.414569 0.0644,-1.417252 -0.93907,-0.313023 -1.65175,0.722374 -2.38356,0.966306 -1.24411,0.414706 -2.36062,-0.556847 -3.09218,-1.288409 -0.29925,-0.299252 -0.75782,-0.431906 -1.03073,-0.773044 -0.21282,-0.266028 -1.18313,-1.844636 -0.77305,-2.254717 0.48189,-0.481882 1.41458,-0.0757 1.93262,-0.386523 0.38568,-0.231409 0.31769,-0.534778 0,-0.773045 -0.50094,-0.375707 -1.32302,-0.351918 -1.73935,0.06442 -0.10025,0.100248 -0.20101,0.523103 -0.32211,0.644205 -0.3887,0.388702 -1.14535,-0.02621 -1.61051,0.128841 -0.53579,0.178598 -0.62937,0.833758 -1.15957,0.966307 -0.97912,0.24478 -7.62494,-2.39662 -8.18139,-3.092183 -0.21728,-0.271591 -0.21725,-0.587307 -0.32211,-0.901886 -0.58489,-1.754685 1.78823,-2.507215 2.96335,-2.898921"
       id="path30" /><path
       style="fill:none;fill-opacity:0.233962;stroke:#e62111;stroke-width:0.264999;stroke-dasharray:1.0485, 0.262124;stroke-opacity:1"
       d="m 40.971417,105.1342 c 0.206754,0.63671 -0.155553,0.57412 -0.230112,-0.004 -0.177213,0.96211 0.783706,1.2612 1.18729,1.62164 -0.213817,1.611 -2.495693,1.20598 -3.700311,1.44362 -1.258007,-0.24306 -3.220331,-0.1232 -2.630023,1.66228 0.13835,1.6242 0.562924,3.47564 -0.544414,4.87713 -0.743018,1.15539 -2.804618,3.01468 -1.154685,4.22577 1.312111,1.00809 3.031255,0.0374 2.898768,-1.57594 0.0071,-0.9119 0.963126,-1.27169 0.840911,-0.067 0.05474,1.60284 -0.416956,3.17804 -0.274032,4.7873 0.0536,1.78788 -0.04344,3.69982 -1.121202,5.20752 -0.671451,1.61332 1.134889,2.68083 2.547537,2.44617 1.562215,0.0391 3.300896,-0.2109 4.482336,-1.31271 1.144736,-1.52167 1.410523,-3.63742 0.909269,-5.43952 -0.830249,-1.3791 -1.163153,-3.01428 -0.548011,-4.54782 0.691025,-1.31653 0.126799,-3.65301 1.776213,-4.19945 1.341873,-0.25375 2.481425,0.94971 2.535598,2.23168 0.1456,1.30035 -0.02637,2.918 1.211126,3.76028 2.049848,1.67127 5.004117,2.44807 7.542595,1.55218 1.64251,-0.71173 2.580613,-3.03884 1.318014,-4.50074 -1.218342,-1.59337 -3.593869,-2.3276 -3.994956,-4.49356 -0.03342,-1.61677 -1.689101,-2.17036 -2.682907,-3.01365 0.148988,-1.29617 2.430032,0.0432 2.572657,-1.23225 -0.48963,-1.32964 -2.360975,-1.37961 -3.500056,-0.93164 -0.793785,0.44615 -1.851582,0.73936 -1.615479,-0.55465 -0.06661,-1.71199 -1.752288,-0.33986 -2.668695,-0.37574 -1.103037,-0.74992 -1.979934,-2.40054 -3.629959,-2.05908 -0.523354,0.10794 -1.039249,0.2758 -1.527472,0.49219 z"
       id="path32" /></g><g
     inkscape:groupmode="layer"
     id="layer3"
     inkscape:label="mesorectal_fascia"><path
       style="fill:none;fill-opacity:0.233962;stroke:#e6c611;stroke-width:0.264999;stroke-dasharray:1.0485, 0.262124;stroke-opacity:1"
       d="m 100.76135,32.706442 c 1.77469,0.07999 3.34296,-0.345818 4.73742,-1.275461 0.33901,-0.226002 1.50069,-0.546624 1.09326,-0.546624 -0.27382,0 -0.36791,0.367906 -0.54663,0.546624 -1.19949,1.199491 0.70226,4.652015 1.36657,5.648468"
       id="path26" /><path
       style="fill:none;fill-opacity:0.233962;stroke:#e6d311;stroke-width:0.264999;stroke-dasharray:1.0485, 0.262124;stroke-opacity:1"
       d="m 30.161997,107.09444 c 0.242946,0.0607 0.668099,0.42515 0.728835,0.18221 0.06074,-0.24295 -0.929172,-0.032 -0.728835,-0.18221 0.400674,-0.30051 0.982528,-0.20604 1.457669,-0.36442 1.268029,-0.42268 2.685867,-1.50265 4.190796,-2.0043 1.585217,-0.5284 3.698835,0.52841 5.284049,0 0.855324,-0.2851 1.732646,-0.56451 2.73313,-0.36441 1.270709,0.25414 1.745401,2.08098 1.822085,2.00429 0.681244,-0.68124 0.908185,-2.00143 1.63988,-2.73313 0.219683,-0.21968 1.544912,0 1.822085,0 2.399368,0 4.558773,-0.91104 6.923926,-0.91104"
       id="path23" /></g></svg>
